<svg width="10" height="10" viewBox="0 0 10 10" fill="none" xmlns="http://www.w3.org/2000/svg">
<g clip-path="url(#clip0)">
<path d="M9.90007 2.68527L9.39911 2.18434C9.33236 2.11745 9.25546 2.08411 9.16852 2.08411C9.0818 2.08411 9.00494 2.11745 8.93819 2.18434L5.00005 6.12227L1.06209 2.18445C0.9953 2.11755 0.918439 2.08421 0.83161 2.08421C0.744747 2.08421 0.667885 2.11755 0.601132 2.18445L0.100235 2.68541C0.0333416 2.75217 0 2.82903 0 2.91589C0 3.00269 0.0334469 3.07955 0.100235 3.1463L4.76957 7.81575C4.83633 7.88254 4.91322 7.91591 5.00005 7.91591C5.08688 7.91591 5.16363 7.88254 5.23035 7.81575L9.90007 3.1463C9.96683 3.07951 9.99999 3.00265 9.99999 2.91589C9.99999 2.82903 9.96683 2.75217 9.90007 2.68527Z" fill="#77716D"/>
</g>
<defs>
<clipPath id="clip0">
<rect width="10" height="10" fill="white"/>
</clipPath>
</defs>
</svg>
