<svg width="10" height="10" viewBox="0 0 10 10" fill="none" xmlns="http://www.w3.org/2000/svg">
<g clip-path="url(#clip0)">
<path d="M0.099925 5.23062L0.600891 5.73155C0.667644 5.79845 0.744541 5.83179 0.831475 5.83179C0.918199 5.83179 0.99506 5.79845 1.06181 5.73155L4.99995 1.79362L8.93791 5.73145C9.0047 5.79834 9.08156 5.83168 9.16839 5.83168C9.25525 5.83168 9.33211 5.79834 9.39887 5.73145L9.89976 5.23048C9.96666 5.16373 10 5.08686 10 5C10 4.91321 9.96655 4.83635 9.89976 4.76959L5.23043 0.100146C5.16367 0.033358 5.08678 -1.91208e-05 4.99995 -1.91132e-05C4.91312 -1.91056e-05 4.83636 0.0333581 4.76965 0.100146L0.0999249 4.76959C0.0331716 4.83638 5.64174e-06 4.91324 5.64933e-06 5C5.65692e-06 5.08687 0.0331716 5.16373 0.099925 5.23062Z" fill="#A6C950"/>
</g>
<defs>
<clipPath id="clip0">
<rect width="10" height="10" fill="white" transform="translate(10 10) rotate(180)"/>
</clipPath>
</defs>
</svg>
