<svg width="184" height="80" viewBox="0 0 184 80" fill="none" xmlns="http://www.w3.org/2000/svg">
<g clip-path="url(#clip0)">
<g opacity="0.6">
<path opacity="0.6" d="M62.9667 17.8111L57.6015 4.83762C56.9705 3.31166 55.2239 2.58702 53.7004 3.21909L40.7477 8.5929L27.7951 3.21909C26.2716 2.58702 24.525 3.31166 23.8939 4.83762L18.5288 17.8111L5.57617 23.1849C4.05266 23.817 3.32918 25.5665 3.96024 27.0924L9.32539 40.0659L3.96024 53.0394C3.32918 54.5654 4.05266 56.3148 5.57617 56.9469L18.5288 62.3207L23.8939 75.2942C24.525 76.8202 26.2716 77.5448 27.7951 76.9128L40.7477 71.539L53.7004 76.9128C55.2239 77.5448 56.9705 76.8202 57.6015 75.2942L62.9667 62.3207L75.9193 56.9469C77.4428 56.3148 78.1663 54.5654 77.5352 53.0394L72.1701 40.0659L77.5352 27.0924C78.1663 25.5665 77.4428 23.817 75.9193 23.1849L62.9667 17.8111Z" fill="url(#paint0_linear)"/>
<path opacity="0.6" d="M27.7937 10.8054H13.7739C12.1248 10.8054 10.788 12.1444 10.788 13.7961V27.8385L0.874532 37.768C-0.291511 38.9359 -0.291511 40.8295 0.874532 41.9974L10.788 51.9269V65.9694C10.788 67.6211 12.1248 68.96 13.7739 68.96H27.7937L37.7072 78.8895C38.8732 80.0574 40.7638 80.0574 41.9298 78.8895L51.8433 68.96H65.8631C67.5122 68.96 68.849 67.6211 68.849 65.9694V51.9269L78.7625 41.9974C79.9285 40.8295 79.9285 38.9359 78.7625 37.768L68.849 27.8385V13.7961C68.849 12.1444 67.5122 10.8054 65.8631 10.8054H51.8433L41.9298 0.875942C40.7638 -0.291981 38.8732 -0.291981 37.7072 0.875942L27.7937 10.8054Z" fill="url(#paint1_linear)"/>
</g>
<path opacity="0.8" d="M46.5354 31.9614H48.0933V36.3346H49.1974V31.9614H50.6081L50.9025 31.0234H46.5354V31.9614ZM54.9262 31.9614L55.2206 31.0234H52.1293V36.3346H55.2206V35.4088H53.2456V34.1175H54.9385V33.1917H53.2456V31.9614H54.9262ZM58.4101 30.999L56.3247 36.3346H57.4655L57.9562 35.0434H59.7717L60.287 36.3346H61.4769L59.2933 30.999H58.4101ZM58.2874 34.1541L58.6064 33.2648C58.7536 32.875 58.8394 32.6557 58.8762 32.473H58.8885C58.9376 32.6557 58.9989 32.875 59.1338 33.2648L59.4528 34.1541H58.2874ZM67.2548 31.0234L66.0158 32.9237C65.844 33.1917 65.7091 33.411 65.5987 33.6181H65.5864C65.4637 33.411 65.3411 33.2039 65.1571 32.9603L63.7831 31.0355H62.7772V36.3346H63.8935V33.4475C63.8935 33.277 63.8935 33.0334 63.8813 32.8506H63.8935C64.0039 33.0577 64.1389 33.2161 64.2493 33.3744L65.3288 34.885H65.8318L66.7886 33.4232C66.8745 33.2892 67.083 32.9846 67.1566 32.8384H67.1689C67.1566 33.0212 67.1566 33.2648 67.1566 33.4719V36.3346H68.2729V31.0234H67.2548Z" fill="white"/>
<path d="M43.6649 34.4651C43.0148 34.2458 42.3033 34.6113 42.0947 35.2569C42.0947 35.2569 42.0579 35.3909 41.9721 35.6102C41.8985 35.8416 41.8003 36.1584 41.6654 36.5482C41.5427 36.938 41.4078 37.3887 41.2483 37.876C41.1011 38.3633 40.9416 38.8871 40.7821 39.3987C40.6963 39.6667 40.6227 39.9469 40.5368 40.2149C40.2669 40.3367 39.9234 40.4829 39.5309 40.6656C39.2855 40.7753 39.0157 40.8849 38.7335 41.0067C38.6599 41.0433 38.5863 41.0676 38.5127 41.1042C38.4759 41.1164 38.4391 41.1407 38.4023 41.1529L38.341 41.1773L38.3164 41.1895H38.3042C38.2919 41.1895 38.2674 41.2016 38.2551 41.2016H38.2428H38.2551H38.2428H38.2306C38.2306 41.2016 38.2183 41.2016 38.2306 41.2016H38.2428H38.206H38.1447H38.1324C38.1324 41.2016 38.1324 41.2016 38.1201 41.2016H38.1815H38.1569C38.1447 41.1895 38.1324 41.1895 38.1201 41.1773C38.0956 41.1651 38.0711 41.1407 38.0588 41.1164C38.0343 41.0676 38.022 41.0311 38.0343 40.9946V41.0067V40.9946V40.9824C38.0343 40.9824 38.0343 40.9824 38.0343 40.9702L38.0588 40.8727C38.1079 40.7266 38.1569 40.5804 38.1938 40.4342C38.3042 40.0931 38.4023 39.7642 38.5127 39.4475C38.6108 39.1307 38.7212 38.814 38.8071 38.5216C38.893 38.2293 38.9789 37.9491 39.0647 37.6933C39.2242 37.1816 39.3469 36.7431 39.445 36.4507C39.5309 36.1462 39.5799 35.9756 39.5799 35.9756C39.5922 35.9269 39.6045 35.866 39.6167 35.8173C39.7149 35.4153 39.6045 34.9767 39.2855 34.66C38.8071 34.1971 38.0343 34.2093 37.5681 34.6844L37.4823 34.7696C37.4823 34.7696 37.4209 34.8306 37.3228 34.928C37.2737 34.9767 37.2124 35.0498 37.1388 35.1107C37.102 35.1473 37.0652 35.1716 37.0161 35.2082C36.9916 35.2326 36.967 35.2447 36.9548 35.2691C36.9302 35.2935 36.9057 35.3056 36.8812 35.3178C36.8321 35.3544 36.7708 35.3909 36.7217 35.4275C36.6971 35.4518 36.6603 35.464 36.6358 35.4884C36.6113 35.5006 36.5745 35.5249 36.5377 35.5371C36.4763 35.5736 36.415 35.6102 36.3414 35.6467C36.2801 35.6833 36.2065 35.7076 36.1329 35.732C36.0593 35.7564 35.9857 35.7929 35.912 35.8173C35.8384 35.8416 35.7526 35.866 35.679 35.8904C35.6422 35.9026 35.5931 35.9147 35.5686 35.9269L35.4704 35.9391C35.3968 35.9513 35.3355 35.9635 35.2619 35.9878C35.1515 36 35.0411 36 34.9307 36.0122L34.7712 36.0244H34.7589H34.6976C34.6117 36.0244 34.5381 36.0244 34.4522 36.0122C34.3664 36 34.2928 36 34.2192 35.9878C34.0597 35.9635 33.9125 35.9391 33.7775 35.8904C33.6303 35.866 33.5077 35.8051 33.385 35.7686C33.3237 35.7442 33.2746 35.7198 33.2255 35.6955C33.1765 35.6711 33.1151 35.6467 33.0906 35.6346C33.0783 35.6346 33.066 35.6224 33.0538 35.6224C32.9802 35.5615 32.9066 35.5127 32.833 35.4518C32.3914 35.1351 31.8393 34.8549 31.2014 34.6966C30.5635 34.526 29.8152 34.4773 29.0547 34.6356C28.9565 34.6478 28.8707 34.6844 28.7725 34.7087L28.6253 34.7453L28.5517 34.7696L28.4413 34.8062C28.2941 34.8671 28.196 34.8915 27.9629 35.0133C27.8647 35.062 27.7543 35.1229 27.6562 35.1716C27.5703 35.2326 27.4845 35.2813 27.3986 35.3422C27.3127 35.3909 27.2268 35.464 27.1532 35.5249C27.0674 35.598 26.9815 35.6467 26.9079 35.732C26.589 36.0122 26.3191 36.3533 26.0983 36.7309C25.8775 37.1086 25.7057 37.5106 25.5953 37.9491C25.5217 38.2658 25.4726 38.6069 25.4726 38.9358C25.2764 39.0211 25.031 39.1307 24.7366 39.2526C24.4177 39.3866 24.0374 39.5571 23.6203 39.7398C23.7798 39.216 23.9392 38.7044 24.0987 38.2293C24.3318 37.4984 24.5403 36.8284 24.7243 36.2315C24.9083 35.6346 25.0678 35.1229 25.2028 34.6966C25.4604 33.8438 25.6198 33.3566 25.6198 33.3566C25.8161 32.7109 25.4604 32.0166 24.7979 31.8095C24.1355 31.6024 23.4363 31.9678 23.2277 32.6135C23.2277 32.6135 23.0683 33.1007 22.7984 33.9535C22.6634 34.3798 22.4917 34.8915 22.3077 35.4884C22.1727 35.9026 22.0378 36.3655 21.8783 36.8527C21.8293 36.8771 21.7802 36.8893 21.7311 36.9136C21.4858 37.0233 21.1914 37.1451 20.8602 37.2913C20.5167 37.4375 20.1364 37.608 19.7193 37.7786C19.3022 37.9491 18.8483 38.144 18.3699 38.3389L18.284 38.3755L18.2472 38.3876C18.235 38.3998 18.2227 38.3998 18.2104 38.3998H18.2227H18.1982H18.1859H18.1982H18.1H18.0878H18.1491C18.1491 38.3998 18.1491 38.3998 18.1368 38.3998C18.0878 38.3876 18.051 38.3511 18.0264 38.3146C18.0019 38.278 17.9896 38.2293 18.0019 38.2049C18.0019 38.2049 18.0019 38.2049 18.0019 38.1927C18.0019 38.1927 18.0019 38.1927 18.0019 38.1806V38.1684V38.144C18.0019 38.1318 18.0019 38.144 18.0019 38.144L18.0264 38.0587V38.0466L18.0387 38.0222C18.235 37.4618 18.419 36.8893 18.6153 36.3167C18.8115 35.7442 18.9833 35.1716 19.1673 34.6113C19.2531 34.3311 19.339 34.0509 19.4249 33.7707L19.4372 33.722L19.4494 33.6855L19.4617 33.6246C19.4862 33.5393 19.4985 33.454 19.5108 33.3566L19.523 33.2956V33.2591V33.2347V33.186V33.0764V32.9546V32.9058V32.8084C19.523 32.7353 19.5108 32.6744 19.4985 32.6013C19.474 32.4673 19.4372 32.3333 19.4004 32.1993C19.2163 31.6876 18.8851 31.2491 18.4558 30.9567C18.2472 30.8106 18.0142 30.7009 17.7688 30.6278C17.7075 30.6035 17.6461 30.5913 17.5848 30.5791C17.5235 30.5669 17.4744 30.5547 17.3885 30.5426C17.3149 30.5304 17.2413 30.5182 17.1677 30.5182H17.1309H17.1064H17.0573H16.9469H16.861C16.7997 30.5182 16.7384 30.5304 16.677 30.5304C16.6157 30.5426 16.5544 30.5426 16.5053 30.5547C16.444 30.5669 16.3703 30.5913 16.2967 30.6035L16.1986 30.6278L16.1495 30.64L16.1005 30.6522L16.0759 30.6644L15.9901 30.7009H15.9778C15.9165 30.7253 15.8674 30.7496 15.8061 30.774C15.5852 30.8715 15.3644 30.9689 15.1559 31.0542C14.7388 31.2369 14.3585 31.4075 14.015 31.5536C13.6716 31.6998 13.3771 31.8216 13.1318 31.9313C12.6411 32.1384 12.359 32.248 12.359 32.248C12.3467 32.2602 12.3222 32.2602 12.2976 32.2724C11.7333 32.5282 11.488 33.1982 11.7456 33.7586C12.0032 34.3189 12.6779 34.5626 13.2422 34.3067C13.2422 34.3067 13.5121 34.1849 14.0028 33.9656C14.2481 33.856 14.5425 33.7342 14.8737 33.588C15.2172 33.4418 15.5975 33.2835 16.0146 33.1129C16.2231 33.0276 16.444 32.9302 16.6648 32.8449C16.7138 32.8206 16.7506 32.8084 16.7997 32.784L16.8488 32.7718L16.8978 32.7596C16.8978 32.7596 16.8978 32.7596 16.8856 32.7718L16.861 32.784H16.8733H16.8856H16.8978H16.8488H16.861H16.8856H16.9346H16.9592H16.9714H16.9346C16.9224 32.784 16.9346 32.784 16.9346 32.784C16.9346 32.784 16.9469 32.784 16.9469 32.7962C16.9592 32.8084 16.9714 32.8206 16.9714 32.8327C16.9714 32.8327 16.9714 32.8449 16.9837 32.8449V32.8571V32.8693V32.8815L16.9714 32.9911V33.0398C16.9714 33.052 16.9714 33.0398 16.9714 33.0398V33.0276V33.0155V32.9667L16.9592 33.0155C16.861 33.2956 16.7752 33.5636 16.677 33.8438C16.493 34.4042 16.2967 34.9767 16.1127 35.5493C15.9287 36.1218 15.7447 36.6944 15.573 37.2669L15.5607 37.2913V37.3035L15.5362 37.3887L15.5239 37.4375L15.4994 37.5471C15.4748 37.6811 15.4503 37.876 15.4503 38.01C15.438 38.2902 15.4871 38.5582 15.5607 38.8262C15.6466 39.0942 15.7693 39.3378 15.9287 39.5571C16.0882 39.7764 16.2722 39.9591 16.493 40.1175C16.7016 40.2758 16.9346 40.3855 17.18 40.4707C17.4253 40.5438 17.6707 40.6047 17.9283 40.6047H18.0264H18.0755H18.0878H18.1614H18.1736L18.2718 40.5926H18.2963H18.3454L18.4558 40.5804L18.5662 40.556L18.6275 40.5438L18.6766 40.5316C18.787 40.4951 18.9097 40.4586 18.9955 40.422L19.1427 40.3611L19.2286 40.3246C19.707 40.1175 20.1487 39.9226 20.5657 39.7398C20.7007 39.6789 20.8356 39.618 20.9583 39.5693C20.8111 40.0322 20.6639 40.5073 20.5167 40.9946C20.026 41.2016 19.523 41.4209 18.9955 41.6402C18.5907 41.8107 18.1736 41.9935 17.7443 42.1762C17.5357 42.2615 17.3149 42.3589 17.0941 42.4442L16.9346 42.5173L16.7384 42.6026L16.7016 42.6269L16.6402 42.6635L16.5053 42.7366C16.4194 42.7853 16.3581 42.834 16.2722 42.8706C15.6834 43.2482 15.1927 43.8451 14.9351 44.5638C14.8983 44.6491 14.8737 44.7466 14.8492 44.8318C14.8247 44.9293 14.8124 45.0146 14.7879 45.112C14.7756 45.2095 14.7633 45.3069 14.7511 45.3922L14.7388 45.5384V45.6115V45.7211L14.7511 45.916C14.7633 46.0257 14.7756 46.1353 14.8001 46.2449C14.8369 46.452 14.886 46.6226 14.9596 46.8053C15.2295 47.5362 15.757 48.1697 16.444 48.5595C16.7874 48.7544 17.1677 48.8884 17.5603 48.9615C17.6584 48.9737 17.7565 48.998 17.8547 48.998L18.0019 49.0102H18.0755H18.1H18.1614H18.1859H18.284H18.3331C18.3454 49.0102 18.3944 49.0102 18.419 48.998L18.5907 48.9737L18.6766 48.9615L18.7502 48.9493C19.5353 48.8031 20.2713 48.3767 20.7743 47.7555C21.0319 47.4509 21.2282 47.0977 21.3631 46.72C21.3999 46.6104 21.4122 46.5738 21.4367 46.5007L21.498 46.318C21.5349 46.1962 21.5717 46.0744 21.6085 45.9526C21.9151 44.9902 22.2095 44.0522 22.504 43.1386C22.5776 42.9071 22.6512 42.6756 22.7248 42.4564C23.2155 42.2493 23.6816 42.0422 24.111 41.8595C24.6875 41.6158 25.1905 41.4087 25.6076 41.226C25.7548 41.1651 25.8897 41.1042 26.0124 41.0555L26.0247 41.0798L26.1228 41.2504L26.1719 41.3356L26.2209 41.4087L26.4172 41.6767C26.6994 42.03 27.0183 42.3346 27.3741 42.5904C27.4599 42.6513 27.5581 42.7122 27.6439 42.7731C27.7298 42.834 27.8279 42.8827 27.9261 42.9315C28.1101 43.0411 28.3186 43.1142 28.5149 43.1995C28.9197 43.3335 29.3368 43.4431 29.7416 43.4675C30.1587 43.4918 30.5758 43.4796 30.9684 43.4066C31.1646 43.3822 31.3609 43.3213 31.5449 43.2726L31.5817 43.2604H31.594H31.6062C31.594 43.2604 31.6553 43.236 31.6799 43.236L31.7289 43.2238L31.8271 43.1873L31.9252 43.1507C31.962 43.1386 31.9865 43.1264 32.0479 43.102C32.146 43.0533 32.2441 43.0046 32.3423 42.9558C32.3914 42.9315 32.4404 42.9071 32.4772 42.8827L32.5999 42.8096C32.6735 42.7609 32.7594 42.7122 32.833 42.6635C32.9066 42.6147 32.9802 42.5538 33.0538 42.4929C33.3359 42.2736 33.5813 42.0056 33.7898 41.7498C34.2069 41.2138 34.4522 40.6291 34.5872 40.1053C34.6117 39.9713 34.6485 39.8373 34.6608 39.7155C34.6731 39.5936 34.6853 39.4596 34.6976 39.35C34.7099 39.2282 34.6976 39.1186 34.6976 39.0089V38.8506C34.6976 38.8018 34.6853 38.7531 34.6853 38.7044C34.6731 38.6069 34.6608 38.5095 34.6485 38.4242C34.6485 38.3876 34.6363 38.3633 34.624 38.3267H34.6363H34.7344H34.7589H34.7712H34.8325H34.8693L35.0288 38.3146C35.1392 38.3146 35.2496 38.3024 35.36 38.3024C35.5072 38.278 35.6544 38.2658 35.8016 38.2415L36.0225 38.2049C36.0961 38.1927 36.1574 38.1684 36.2187 38.1562H36.2433C36.1819 38.3389 36.1329 38.5216 36.0715 38.7166C35.9734 39.0333 35.8752 39.3744 35.7771 39.7155C35.7526 39.8007 35.728 39.886 35.7035 39.9713L35.6667 40.1053L35.6422 40.1662L35.6176 40.2515V40.2636L35.6054 40.3002L35.5808 40.4342C35.5686 40.5316 35.544 40.6291 35.544 40.7387C35.5318 40.8484 35.5318 40.9215 35.5318 41.0067C35.5318 41.092 35.5318 41.1773 35.544 41.2626C35.5563 41.3478 35.5686 41.4331 35.5808 41.5184C35.6054 41.6036 35.6299 41.6889 35.6422 41.762C35.7035 41.9204 35.7648 42.0787 35.8507 42.2249C36.0225 42.5173 36.2433 42.7731 36.5009 42.968C36.7585 43.1629 37.0529 43.3091 37.3596 43.4066C37.5068 43.4553 37.6663 43.4796 37.8257 43.504C37.8993 43.5162 37.9852 43.5162 38.0588 43.5162H38.1201H38.1324H38.1938H38.206H38.2674L38.341 43.504C38.39 43.504 38.4391 43.4918 38.4882 43.4796C38.5372 43.4675 38.5863 43.4675 38.6354 43.4553C38.6844 43.4431 38.709 43.4309 38.7458 43.4309C38.8194 43.4066 38.893 43.3944 38.9543 43.37C39.0157 43.3456 39.077 43.3213 39.1383 43.2969C39.2855 43.2238 39.445 43.1629 39.5799 43.0898C39.8621 42.9558 40.132 42.834 40.3773 42.7244C40.3896 42.7244 40.4019 42.7122 40.4141 42.7122C40.7576 43.2604 41.3587 43.5649 41.923 43.5893H41.9843H42.0089H42.0211C42.291 43.5771 42.0947 43.5893 42.1561 43.5771H42.1929C42.2174 43.5771 42.2419 43.5649 42.2665 43.5649H42.291L42.3523 43.5527C42.3891 43.5406 42.4382 43.5284 42.475 43.5284C42.5609 43.504 42.6345 43.4796 42.7081 43.4553L42.7572 43.4309L42.7694 43.4187L42.8062 43.4066C42.8308 43.3944 42.843 43.3822 42.8676 43.3822C42.9044 43.3578 42.9412 43.3456 42.978 43.3213C43.1252 43.2482 43.2601 43.1751 43.3583 43.1264C43.5668 43.0167 43.6895 42.9436 43.6895 42.9436L43.7017 42.9315C44.1556 42.6756 44.3887 42.1275 44.217 41.6158C44.0452 41.0676 43.4809 40.7509 42.9289 40.8484C43.0025 40.6291 43.0638 40.4098 43.1374 40.1906C43.3092 39.6667 43.4687 39.1551 43.6159 38.6678C43.7631 38.1806 43.9103 37.7298 44.0207 37.34C44.1311 36.9502 44.2292 36.6213 44.3028 36.3898C44.3642 36.1584 44.401 36.0244 44.401 36.0244V36.0122C44.6586 35.3422 44.3028 34.6722 43.6649 34.4651ZM17.0328 32.9302C17.0328 32.9424 17.0328 32.9424 17.0205 32.9424C17.0205 32.9424 17.0205 32.9424 17.0205 32.9546V32.8571C17.0328 32.8936 17.0328 32.918 17.0328 32.9302ZM19.0078 45.9647C18.971 46.0622 18.9219 46.1718 18.8606 46.2571C18.7257 46.4398 18.5171 46.5616 18.2963 46.6104H18.2718C18.2718 46.6104 18.2718 46.6104 18.2595 46.6104H18.2472C18.2472 46.6104 18.2472 46.6104 18.235 46.6104H18.1859H18.0878H18.0755H18.0264C18.0019 46.6104 17.9651 46.6104 17.9406 46.5982C17.8301 46.586 17.7197 46.5495 17.6093 46.5007C17.4008 46.4033 17.2291 46.2084 17.1432 46.0013C17.1186 45.9526 17.1064 45.8795 17.0941 45.8429C17.0941 45.8307 17.0941 45.8186 17.0818 45.8064L17.0696 45.6237V45.6115V45.5749C17.0696 45.5506 17.0696 45.514 17.0818 45.4896L17.0941 45.4044C17.1064 45.38 17.1064 45.3556 17.1186 45.3191C17.1923 45.112 17.3395 44.9049 17.548 44.7587C17.5725 44.7466 17.6093 44.7222 17.6216 44.71C17.6339 44.71 17.6339 44.6978 17.6461 44.6978L17.6584 44.6856L17.6952 44.6613L17.7811 44.6247L17.8056 44.6126L17.8301 44.6004L17.9896 44.5273C18.2104 44.4298 18.419 44.3446 18.6275 44.2471C18.971 44.1009 19.3145 43.9426 19.6457 43.8086C19.4985 44.2836 19.3513 44.7709 19.1918 45.2582C19.155 45.5018 19.0814 45.7333 19.0078 45.9647ZM32.146 39.5327C32.0847 39.7764 31.9865 40.0566 31.8025 40.3124C31.7044 40.4342 31.6062 40.5682 31.4713 40.69C31.4345 40.7144 31.41 40.7509 31.3732 40.7753C31.3364 40.7996 31.2996 40.824 31.2628 40.8484L31.2137 40.8849C31.2014 40.8971 31.1892 40.8971 31.1646 40.9093C31.1401 40.9215 31.1033 40.9458 31.0788 40.9702C31.0788 40.9824 31.0297 40.9946 31.0052 41.0067L30.907 41.0555L30.8089 41.1042L30.7843 41.1164C30.6862 41.1407 30.6003 41.1895 30.5022 41.2016C30.3059 41.2504 30.1096 41.2626 29.9011 41.2504C29.852 41.2504 29.803 41.2382 29.7416 41.2382C29.6926 41.2382 29.6435 41.2138 29.5822 41.2138L29.5086 41.2016L29.4349 41.1773C29.3859 41.1651 29.3368 41.1529 29.2877 41.1286C29.0915 41.0555 28.8952 40.9458 28.7234 40.8118C28.5517 40.6778 28.4168 40.5073 28.2941 40.3367C28.2696 40.288 28.245 40.2393 28.2082 40.2027L28.1837 40.1662L28.1714 40.1418C28.1592 40.1296 28.1592 40.1053 28.1469 40.0931C28.1346 40.0809 28.1346 40.0566 28.1224 40.0444C28.1224 40.0444 28.1224 40.0322 28.1101 40.0322L28.0978 40.0078L28.0733 39.9469L27.9874 39.7155C28.0365 39.8251 27.9997 39.7398 28.0119 39.7642V39.752V39.7276L27.9997 39.6911L27.9751 39.618C27.9629 39.5693 27.9506 39.5084 27.9506 39.4596C27.9506 39.4109 27.9261 39.3622 27.9261 39.3013C27.9261 39.2526 27.9261 39.1916 27.9138 39.1429C27.9138 38.9358 27.9383 38.7287 27.9874 38.5338C28.0365 38.3389 28.1101 38.144 28.2082 37.9613C28.2328 37.9126 28.2696 37.876 28.2941 37.8395L28.3309 37.7786L28.38 37.7176C28.4168 37.6811 28.4413 37.6324 28.4658 37.5958C28.5026 37.5593 28.5394 37.5227 28.564 37.4862C28.5885 37.4496 28.6376 37.4253 28.6744 37.3887C28.7112 37.3522 28.748 37.3156 28.7848 37.2913C28.8216 37.2669 28.8584 37.2304 28.9075 37.206C28.9443 37.1816 28.9688 37.1695 29.0056 37.1451C29.0301 37.1086 29.2141 37.0355 29.3368 36.9867L29.3613 36.9746H29.3736L29.4349 36.9502C29.484 36.938 29.5208 36.9136 29.5699 36.9015C29.9256 36.804 30.2937 36.804 30.6126 36.8649C30.6985 36.8893 30.7721 36.9136 30.8457 36.938C30.9193 36.9746 30.9929 36.9989 31.0542 37.0355C31.1156 37.072 31.1892 37.1086 31.2382 37.1451C31.2505 37.1451 31.2505 37.1573 31.2628 37.1573C31.2873 37.1816 31.3118 37.206 31.3486 37.2182C31.3486 37.2182 31.3609 37.2304 31.3732 37.2426C31.3854 37.2547 31.3977 37.2547 31.41 37.2669C31.6185 37.4253 31.7657 37.6202 31.8639 37.7664C31.8884 37.8029 31.9129 37.8395 31.9375 37.876C31.962 37.9126 31.962 37.9369 31.9743 37.9613C31.9865 37.9856 31.9988 38.01 32.0111 38.0222C32.0111 38.0222 32.0233 38.0587 32.0356 38.0709C32.0479 38.0953 32.0479 38.1075 32.0601 38.1318C32.0847 38.2049 32.1092 38.2658 32.1215 38.3024C32.1215 38.3024 32.1337 38.3511 32.1583 38.4486C32.1583 38.4729 32.1705 38.4973 32.1828 38.5338C32.1828 38.5582 32.1951 38.5947 32.1951 38.6313C32.1951 38.6678 32.2073 38.7044 32.2073 38.7409V38.8749C32.2196 39.0698 32.2073 39.2891 32.146 39.5327ZM42.6468 41.9082V41.8838V41.9082Z" fill="white"/>
<path d="M87.8584 29.8265V31.3999H90.3338V38.046H92.17V31.3999H94.6571V29.8265H87.8584ZM97.3675 32.8677V31.7287H95.5778V38.046H97.3675V35.0048C97.3675 33.9362 98.1578 33.2435 99.4362 33.3609V31.6583C98.5065 31.67 97.7975 32.0927 97.3675 32.8677ZM104.831 31.7287V34.8521C104.831 35.768 104.308 36.4491 103.448 36.4608C102.728 36.4608 102.274 35.9794 102.274 35.1809V31.7287H100.485V35.6976C100.485 37.1888 101.356 38.1164 102.739 38.1164C103.681 38.1164 104.401 37.7289 104.831 36.9305V38.046H106.609V31.7287H104.831ZM112.539 33.584L113.155 32.3511C112.458 31.9049 111.574 31.6465 110.714 31.6465C109.355 31.6465 108.251 32.3158 108.251 33.6192C108.251 35.8385 111.493 35.2983 111.493 36.3081C111.493 36.6487 111.156 36.8013 110.703 36.8013C110.017 36.8013 109.18 36.5195 108.53 36.0146L107.948 37.2358C108.657 37.8111 109.645 38.1164 110.656 38.1164C112.074 38.1164 113.201 37.4354 113.201 36.1438C113.213 33.9128 109.913 34.3942 109.913 33.4431C109.913 33.1143 110.215 32.9734 110.633 32.9734C111.156 32.9734 111.853 33.1965 112.539 33.584ZM118.155 36.3669C117.829 36.5195 117.551 36.6017 117.318 36.6017C116.935 36.6134 116.714 36.4021 116.714 35.8737V33.2669H118.411V32.0105H116.714V30.2727H114.936V32.0105H114.064V33.2552H114.936V36.179C114.936 37.4824 115.784 38.1282 116.9 38.1282C117.481 38.1282 118.062 37.9638 118.527 37.6937L118.155 36.3669ZM122.504 31.67C124.7 31.67 125.723 33.1378 125.572 35.4392H121.086C121.295 36.2377 121.9 36.7074 122.702 36.7074C123.294 36.7074 123.852 36.4725 124.282 36.0381L125.223 37.0009C124.596 37.7055 123.678 38.1164 122.55 38.1164C120.552 38.1164 119.285 36.8248 119.285 34.9108C119.285 32.9616 120.598 31.67 122.504 31.67ZM121.051 34.3707H123.899C123.875 33.537 123.341 32.9969 122.516 32.9969C121.725 32.9969 121.191 33.537 121.051 34.3707ZM131.409 29.3333H133.187V38.046H131.409V37.1184C130.967 37.7642 130.293 38.1164 129.433 38.1164C127.655 38.1164 126.481 36.8131 126.481 34.8639C126.481 32.9382 127.643 31.6583 129.387 31.6583C130.27 31.6583 130.956 32.0105 131.409 32.6563V29.3333ZM129.851 36.6604C130.77 36.6604 131.409 35.9441 131.409 34.9108C131.409 33.8775 130.77 33.1613 129.851 33.1613C128.922 33.1613 128.283 33.8893 128.271 34.9108C128.283 35.9441 128.91 36.6604 129.851 36.6604ZM142.466 29.8265C144.535 29.8265 145.72 30.8598 145.72 32.6798C145.72 34.5938 144.535 35.6976 142.466 35.6976H140.851V38.046H139.015V29.8265H142.466ZM142.373 34.1476C143.396 34.1476 143.977 33.6779 143.977 32.7385C143.977 31.8227 143.396 31.3647 142.373 31.3647H140.851V34.1476H142.373ZM152.498 38.046H150.743V37.3062C150.325 37.8346 149.651 38.1282 148.779 38.1282C147.443 38.1282 146.629 37.3062 146.629 36.1555C146.629 34.9695 147.478 34.265 149.012 34.2533H150.732V34.1359C150.732 33.4666 150.29 33.0791 149.43 33.0791C148.872 33.0791 148.221 33.2669 147.571 33.6309L147.013 32.3863C147.943 31.9166 148.744 31.6583 149.837 31.6583C151.51 31.6583 152.475 32.5037 152.487 33.9245L152.498 38.046ZM149.279 36.8365C150.034 36.8365 150.627 36.4256 150.732 35.8854V35.3218H149.326C148.64 35.3218 148.303 35.5332 148.303 36.0381C148.303 36.5195 148.675 36.8365 149.279 36.8365ZM156.092 32.8677V31.7287H154.302V38.046H156.092V35.0048C156.092 33.9362 156.882 33.2435 158.161 33.3609V31.6583C157.231 31.67 156.522 32.0927 156.092 32.8677ZM162.893 36.3669C162.568 36.5195 162.289 36.6017 162.056 36.6017C161.673 36.6134 161.452 36.4021 161.452 35.8737V33.2669H163.149V32.0105H161.452V30.2727H159.674V32.0105H158.802V33.2552H159.674V36.179C159.674 37.4824 160.522 38.1282 161.638 38.1282C162.219 38.1282 162.8 37.9638 163.265 37.6937L162.893 36.3669ZM168.556 31.6583C167.579 31.67 166.836 32.0458 166.394 32.8325V31.7287H164.604V38.046H166.394V34.9343C166.394 34.0067 166.929 33.3256 167.823 33.3139C168.59 33.3139 169.055 33.8071 169.055 34.6055V38.046H170.845V34.0771C170.845 32.5976 169.95 31.6583 168.556 31.6583ZM175.334 31.67C177.53 31.67 178.553 33.1378 178.402 35.4392H173.916C174.125 36.2377 174.729 36.7074 175.531 36.7074C176.124 36.7074 176.682 36.4725 177.112 36.0381L178.053 37.0009C177.426 37.7055 176.507 38.1164 175.38 38.1164C173.381 38.1164 172.114 36.8248 172.114 34.9108C172.114 32.9616 173.428 31.67 175.334 31.67ZM173.881 34.3707H176.728C176.705 33.537 176.17 32.9969 175.345 32.9969C174.555 32.9969 174.02 33.537 173.881 34.3707ZM181.635 32.8677V31.7287H179.845V38.046H181.635V35.0048C181.635 33.9362 182.425 33.2435 183.704 33.3609V31.6583C182.774 31.67 182.065 32.0927 181.635 32.8677ZM124.632 47.9824L121.622 51.1176V52.3975H127.735V50.8358H123.993L125.887 48.9453C126.782 48.0059 127.444 47.09 127.444 46.2094C127.444 44.9177 126.294 44.084 124.667 44.084C123.516 44.084 122.412 44.542 121.413 45.3052L122.133 46.6908C122.866 46.0567 123.702 45.6575 124.4 45.6575C125.109 45.6575 125.515 45.9628 125.515 46.4912C125.515 46.8904 125.155 47.454 124.632 47.9824ZM132.084 44.1075C134.106 44.1075 135.222 45.5988 135.222 48.276C135.222 50.9649 134.106 52.4444 132.084 52.4444C130.05 52.4444 128.935 50.9649 128.935 48.276C128.935 45.5988 130.05 44.1075 132.084 44.1075ZM132.084 45.4696C131.143 45.4696 130.713 46.315 130.713 48.276C130.713 50.2252 131.143 51.0823 132.084 51.0823C133.014 51.0823 133.444 50.2252 133.444 48.276C133.444 46.315 133.014 45.4696 132.084 45.4696ZM137.061 44.1662V45.7397H138.688V52.3975H140.524V44.1662H137.061Z" fill="#DD641C"/>
<path fill-rule="evenodd" clip-rule="evenodd" d="M144.144 50.4403C144.628 50.7832 145.265 50.9723 145.891 50.9723C147.295 50.9723 147.956 50.0029 147.933 48.4897C147.519 49.1281 146.835 49.4946 145.879 49.4946C144.274 49.4946 143.259 48.4306 143.259 46.8109C143.259 45.0731 144.439 43.9854 146.233 43.9854C148.381 43.9854 149.679 45.5223 149.679 48.0641C149.679 50.7123 148.251 52.4383 145.997 52.4383C145.135 52.4383 144.132 52.1782 143.447 51.7644L144.144 50.4403ZM146.316 45.4987C145.478 45.4987 144.946 45.9834 144.946 46.8227C144.946 47.6148 145.442 48.0995 146.268 48.0995C147.189 48.0995 147.708 47.5203 147.708 46.7873C147.708 46.1371 147.283 45.4987 146.316 45.4987Z" fill="#DD641C"/>
</g>
<defs>
<linearGradient id="paint0_linear" x1="13.82" y1="14.6006" x2="40.821" y2="77.1095" gradientUnits="userSpaceOnUse">
<stop stop-color="#FF9130"/>
<stop offset="0.403101" stop-color="#F27023"/>
<stop offset="1" stop-color="#E5671C"/>
</linearGradient>
<linearGradient id="paint1_linear" x1="10.8517" y1="12.4891" x2="39.8973" y2="79.7314" gradientUnits="userSpaceOnUse">
<stop stop-color="#FF9130"/>
<stop offset="0.403101" stop-color="#F27023"/>
<stop offset="1" stop-color="#E5671C"/>
</linearGradient>
<clipPath id="clip0">
<rect width="183.704" height="80" fill="white"/>
</clipPath>
</defs>
</svg>
