<svg width="58" height="68" viewBox="0 0 58 68" fill="none" xmlns="http://www.w3.org/2000/svg">
<path d="M57.0108 60.3918L48.029 38.7082C47.8003 38.1559 47.167 37.8934 46.6146 38.1223C46.0622 38.3512 45.7997 38.9845 46.0287 39.5367L54.1484 59.1393L46.742 56.9932C46.2559 56.8522 45.7367 57.0673 45.4926 57.5109L41.7729 64.2653L33.0605 43.2316C43.1162 41.2924 50.7354 32.4268 50.7354 21.8136C50.7356 9.7856 40.9501 7.62939e-06 28.9221 7.62939e-06C16.894 7.62939e-06 7.10845 9.7856 7.10845 21.8136C7.10845 26.6855 8.71417 31.1891 11.4239 34.8241L0.83338 60.3918C0.674165 60.7763 0.74937 61.218 1.02695 61.5281C1.30439 61.8381 1.73526 61.9617 2.13496 61.8459L10.8727 59.3139L15.2609 67.2829C15.452 67.6298 15.8162 67.8433 16.209 67.8433C16.2289 67.8433 16.249 67.8427 16.269 67.8417C16.6846 67.8186 17.0501 67.5595 17.2094 67.1749L25.6012 46.9153C25.83 46.3629 25.5677 45.7297 25.0153 45.5009C24.4629 45.2721 23.8296 45.5344 23.6009 46.0868L16.071 64.2653L12.3516 57.5109C12.1073 57.0673 11.5878 56.8522 11.102 56.9932L3.69579 59.1393L12.9913 36.6977C16.975 40.9589 22.6424 43.6271 28.9221 43.6271C29.5703 43.6271 30.2115 43.5969 30.8455 43.5414L40.6349 67.1749C40.7941 67.5595 41.1597 67.8186 41.5751 67.8415C41.5953 67.8427 41.6153 67.8433 41.6353 67.8433C42.0281 67.8433 42.3923 67.6298 42.5833 67.2829L46.9716 59.3139L55.7093 61.8459C56.1093 61.9618 56.5398 61.8381 56.8173 61.5281C57.0949 61.218 57.17 60.7763 57.0108 60.3918ZM9.27366 21.8136C9.27366 10.9795 18.0879 2.16522 28.9221 2.16522C39.7562 2.16522 48.5704 10.9795 48.5704 21.8136C48.5704 32.6478 39.7562 41.4619 28.9221 41.4619C18.0879 41.4619 9.27366 32.6478 9.27366 21.8136Z" fill="#A6C950"/>
<path d="M41.4309 17.749C41.3063 17.3653 40.9784 17.0827 40.5804 17.0159L33.2956 15.7934L29.8819 9.24305C29.6954 8.88521 29.3255 8.66075 28.9219 8.66075C28.5184 8.66075 28.1483 8.88521 27.9618 9.24305L24.548 15.7934L17.2634 17.0159C16.8654 17.0826 16.5376 17.3652 16.4129 17.749C16.2882 18.1328 16.3872 18.554 16.67 18.842L21.8448 24.1128L20.7565 31.4188C20.697 31.818 20.8644 32.2169 21.1909 32.4542C21.5172 32.6913 21.9486 32.7272 22.3098 32.5475L28.9219 29.2546L35.5339 32.5475C35.6867 32.6236 35.8519 32.6611 36.0164 32.6611C36.2412 32.6611 36.4645 32.5912 36.6528 32.4544C36.9794 32.2171 37.1468 31.8181 37.0873 31.419L35.9991 24.113L41.1739 18.842C41.4566 18.554 41.5556 18.1328 41.4309 17.749ZM34.0762 22.9807C33.8384 23.2231 33.7279 23.5629 33.778 23.8986L34.6398 29.6832L29.4046 27.0761C29.2524 27.0005 29.0873 26.9625 28.9219 26.9625C28.7566 26.9625 28.5912 27.0004 28.4393 27.0761L23.2042 29.6832L24.0659 23.8986C24.116 23.5629 24.0056 23.2229 23.7677 22.9807L19.6704 18.8074L25.4381 17.8394C25.773 17.7832 26.0621 17.5732 26.219 17.2721L28.9219 12.0858L31.6248 17.2722C31.7818 17.5733 32.0708 17.7834 32.4057 17.8395L38.1735 18.8075L34.0762 22.9807Z" fill="#A6C950"/>
<path d="M45.3218 22.9055C44.7289 22.8262 44.1847 23.2437 44.1063 23.8365C43.1021 31.4158 36.5743 37.1315 28.9222 37.1315C20.4758 37.1315 13.6042 30.26 13.6042 21.8135C13.6042 13.367 20.4758 6.49551 28.9222 6.49551C36.5745 6.49551 43.1021 12.2111 44.1063 19.7905C44.1847 20.3833 44.7299 20.8011 45.3218 20.7215C45.9143 20.643 46.3313 20.0988 46.2527 19.5061C45.1065 10.8545 37.656 4.3303 28.9222 4.3303C19.2819 4.3303 11.439 12.1731 11.439 21.8135C11.439 31.4539 19.2819 39.2966 28.9222 39.2966C37.656 39.2966 45.1065 32.7724 46.2528 24.1208C46.3313 23.5282 45.9144 22.984 45.3218 22.9055Z" fill="#A6C950"/>
</svg>
