<svg width="25" height="25" viewBox="0 0 25 25" fill="none" xmlns="http://www.w3.org/2000/svg">
<path d="M24.0677 11.1215L1.99073 0.964073C1.49796 0.737315 0.915539 0.84962 0.542492 1.24337C0.169445 1.63692 0.0883905 2.22443 0.34093 2.70431L5.4337 12.3783L0.33507 22.3072C0.0866326 22.791 0.174914 23.3797 0.554406 23.7692C0.798351 24.0197 1.12745 24.152 1.46183 24.152C1.64757 24.152 1.83487 24.1111 2.01007 24.027L24.0868 13.4131C24.5288 13.2006 24.8085 12.7518 24.8044 12.2611C24.8003 11.7705 24.5132 11.3266 24.0677 11.1215ZM4.31827 4.82267L18.9903 11.5733L7.90558 11.6369L4.31827 4.82267ZM7.93917 13.0438L19.1444 12.9793L4.30968 20.1113L7.93917 13.0438Z" fill="white"/>
</svg>
