<svg width="260" height="208" viewBox="0 0 260 208" fill="none" xmlns="http://www.w3.org/2000/svg">
<g clip-path="url(#clip0)">
<path d="M63.5239 140.538C64.2026 140.503 64.8871 140.433 65.5658 140.433H187.715C188.3 140.433 188.885 140.491 189.47 140.526C189.435 140.682 189.412 140.841 189.4 141H63.6117C63.5824 140.842 63.5532 140.69 63.5239 140.538Z" fill="#D4E5AD"/>
<path d="M189.394 141C189.406 140.841 189.429 140.682 189.464 140.526C193.261 140.164 195.093 137.321 197 134.566V141H189.394Z" fill="#FAFCF7"/>
<path d="M56 44.4906C58.3402 39.5774 62.3245 38.0566 67.6252 38.1034C106.848 38.2321 146.072 38.2321 185.299 38.1034C190.874 38.1034 194.888 39.7411 197 45.0755V134.566C195.093 137.321 193.261 140.164 189.464 140.526C188.879 140.491 188.294 140.433 187.709 140.433H65.554C64.8754 140.433 64.1909 140.503 63.5122 140.538C59.6391 140.263 57.878 137.338 55.9883 134.566L56 44.4906ZM63.9802 79.1696V82.4275C63.9802 96.9566 63.9802 111.482 63.9802 126.003C63.9802 131.197 65.1504 132.338 70.334 132.343H182.081C187.112 132.343 188.745 130.735 188.745 125.752C188.745 111.129 188.745 96.5062 188.745 81.8836C188.745 81.0296 188.669 80.1815 188.628 79.2807H141.132V87.4226C141.132 93.0202 141.132 93.0202 135.615 93.0202H111.774V79.1696H63.9802ZM139.734 91.6691C139.734 87.8672 139.88 84.2758 139.681 80.7021C139.553 78.3625 140.372 77.7775 142.659 77.7775C156.894 77.877 171.129 77.8243 185.369 77.8243H188.751C188.751 69.4953 188.751 61.523 188.751 53.5566C188.751 48.193 187.37 46.8243 182.017 46.8243H70.568C70.0824 46.8243 69.591 46.8243 69.1054 46.8243C65.6828 46.9238 64.0855 48.4562 63.9919 51.8136C63.9334 53.8549 63.9919 55.9079 63.9919 57.9492V77.8711H113.237V91.6807L139.734 91.6691ZM189.932 79.0877V82.5094C189.932 96.9371 189.932 111.365 189.932 125.792C189.932 131.87 188.236 133.548 182.081 133.548H70.3867C64.3722 133.548 62.5702 131.741 62.5644 125.711C62.5644 111.283 62.5644 96.8552 62.5644 82.4275V79.1755H59.5162V81.9245C59.5162 98.0991 59.5162 114.282 59.5162 130.472C59.5162 135.385 61.2714 137.11 66.2093 137.11H186.662C191.74 137.11 193.431 135.356 193.431 130.214C193.431 114.141 193.431 98.064 193.431 81.983V79.1404L189.932 79.0877ZM62.5702 77.6898V54.434C62.5702 47.1694 64.0914 45.6194 71.2292 45.6136H180.858C188.552 45.6136 189.927 46.9764 189.927 54.5451C189.927 61.2676 189.927 67.9901 189.927 74.7126C189.927 75.6602 190.014 76.6077 190.061 77.5962H193.449V49.6611C193.449 43.2681 191.898 41.7006 185.544 41.7006H67.4379C66.5621 41.6663 65.6851 41.682 64.811 41.7474C61.3475 42.1392 59.5455 44.0226 59.5455 47.5438C59.4928 57.2883 59.5455 67.027 59.5455 76.7891C59.5972 77.1038 59.6897 77.4105 59.8204 77.7015L62.5702 77.6898Z" fill="#ABCC5B"/>
<path d="M149.025 17C149.007 17.1734 149.025 17.3485 149.077 17.5147H103.917C103.963 17.3492 103.982 17.1775 103.975 17.0059L149.025 17Z" fill="#D4E5AD"/>
<path d="M63.5239 140.538C63.5239 140.69 63.5824 140.842 63.6058 141H56V134.566C57.8898 137.338 59.6508 140.263 63.5239 140.538Z" fill="#FAFCF7"/>
<path d="M103.917 17.5089H149.078C153.94 18.8366 156.058 21.5447 156.099 26.5339C156.099 28.5753 156.099 30.6283 156.099 33.0089L152.553 33.1785C152.553 30.8389 152.588 28.7156 152.553 26.6041C152.477 22.9485 150.617 20.9832 146.972 20.9715C133.32 20.9169 119.669 20.9169 106.017 20.9715C102.325 20.9715 100.459 22.89 100.371 26.5281C100.319 28.5694 100.371 30.6224 100.371 32.5994C97.0482 33.6932 96.6153 33.43 96.627 30.2598C96.5824 28.411 96.6763 26.5614 96.9078 24.7266C97.5397 20.7375 99.9384 18.3219 103.917 17.5089Z" fill="#ABCC5B"/>
<path d="M189.932 79.0877H193.443V81.9245C193.443 98.0055 193.443 114.083 193.443 130.156C193.443 135.315 191.752 137.052 186.674 137.052H66.2092C61.2479 137.052 59.522 135.326 59.5161 130.413C59.5161 114.235 59.5161 98.0523 59.5161 81.866V79.1755H62.5643V82.4393C62.5643 96.8669 62.5643 111.295 62.5643 125.722C62.5643 131.753 64.3721 133.56 70.3866 133.56H182.081C188.236 133.56 189.932 131.881 189.932 125.804C189.932 111.376 189.932 96.9488 189.932 82.5211V79.0877Z" fill="#FAFCF7"/>
<path d="M62.5705 77.6898H59.8207C59.6899 77.3988 59.5975 77.0921 59.5457 76.7773C59.5457 67.0328 59.4813 57.2941 59.5457 47.5321C59.5457 44.0226 61.3594 42.1275 64.8113 41.7356C65.6853 41.6703 66.5624 41.6546 67.4382 41.6889H185.551C191.904 41.6889 193.455 43.2564 193.455 49.6494V77.5904H190.067C190.02 76.6019 189.939 75.6543 189.933 74.7068C189.933 67.9843 189.933 61.2617 189.933 54.5392C189.933 46.9705 188.558 45.6136 180.864 45.6077H71.2294C64.0916 45.6077 62.5705 47.1636 62.5705 54.4281V77.6781V77.6898Z" fill="#F9FBF4"/>
</g>
<path d="M51.3705 161.216C52.3625 161.584 53.1305 162.12 53.6745 162.824C54.2185 163.528 54.4905 164.376 54.4905 165.368C54.4905 166.84 53.8825 167.984 52.6665 168.8C51.4505 169.6 49.6905 170 47.3865 170H37.9305V153.2H46.9065C49.1465 153.2 50.8345 153.6 51.9705 154.4C53.1225 155.2 53.6985 156.264 53.6985 157.592C53.6985 158.376 53.4985 159.08 53.0985 159.704C52.7145 160.328 52.1385 160.832 51.3705 161.216ZM43.4985 157.16V159.656H46.1385C47.3705 159.656 47.9865 159.24 47.9865 158.408C47.9865 157.576 47.3705 157.16 46.1385 157.16H43.4985ZM46.9065 166.04C48.1545 166.04 48.7785 165.6 48.7785 164.72C48.7785 163.84 48.1545 163.4 46.9065 163.4H43.4985V166.04H46.9065ZM67.941 167.072H61.557L60.429 170H54.669L62.013 153.2H67.581L74.925 170H69.069L67.941 167.072ZM66.381 162.992L64.749 158.768L63.117 162.992H66.381ZM84.2826 170.384C82.5066 170.384 80.9066 170.016 79.4826 169.28C78.0586 168.528 76.9386 167.488 76.1226 166.16C75.3226 164.816 74.9226 163.296 74.9226 161.6C74.9226 159.904 75.3226 158.392 76.1226 157.064C76.9386 155.72 78.0586 154.68 79.4826 153.944C80.9066 153.192 82.5066 152.816 84.2826 152.816C85.9146 152.816 87.3706 153.104 88.6506 153.68C89.9306 154.256 90.9866 155.088 91.8186 156.176L88.2426 159.368C87.2026 158.056 85.9786 157.4 84.5706 157.4C83.3866 157.4 82.4346 157.784 81.7146 158.552C80.9946 159.304 80.6346 160.32 80.6346 161.6C80.6346 162.88 80.9946 163.904 81.7146 164.672C82.4346 165.424 83.3866 165.8 84.5706 165.8C85.9786 165.8 87.2026 165.144 88.2426 163.832L91.8186 167.024C90.9866 168.112 89.9306 168.944 88.6506 169.52C87.3706 170.096 85.9146 170.384 84.2826 170.384ZM100.294 164.432L99.0219 165.848V170H93.4539V153.2H99.0219V159.296L104.542 153.2H110.71L103.99 160.592L111.046 170H104.494L100.294 164.432ZM122.308 161.144H127.228V168.248C126.236 168.936 125.084 169.464 123.772 169.832C122.46 170.2 121.172 170.384 119.908 170.384C118.116 170.384 116.508 170.016 115.084 169.28C113.66 168.528 112.54 167.488 111.724 166.16C110.924 164.816 110.524 163.296 110.524 161.6C110.524 159.904 110.924 158.392 111.724 157.064C112.54 155.72 113.668 154.68 115.108 153.944C116.564 153.192 118.204 152.816 120.028 152.816C121.676 152.816 123.148 153.096 124.444 153.656C125.756 154.2 126.844 155 127.708 156.056L124.084 159.248C123.028 158.016 121.772 157.4 120.316 157.4C119.068 157.4 118.076 157.776 117.34 158.528C116.604 159.28 116.236 160.304 116.236 161.6C116.236 162.864 116.596 163.88 117.316 164.648C118.052 165.416 119.028 165.8 120.244 165.8C120.964 165.8 121.652 165.664 122.308 165.392V161.144ZM136.841 165.776H135.305V170H129.641V153.2H137.729C139.281 153.2 140.633 153.456 141.785 153.968C142.937 154.48 143.825 155.216 144.449 156.176C145.073 157.136 145.385 158.256 145.385 159.536C145.385 160.736 145.113 161.784 144.569 162.68C144.025 163.576 143.241 164.288 142.217 164.816L145.745 170H139.697L136.841 165.776ZM139.673 159.536C139.673 158.912 139.481 158.432 139.097 158.096C138.713 157.744 138.137 157.568 137.369 157.568H135.305V161.504H137.369C138.137 161.504 138.713 161.336 139.097 161C139.481 160.648 139.673 160.16 139.673 159.536ZM156.332 170.384C154.524 170.384 152.9 170.008 151.46 169.256C150.02 168.504 148.892 167.464 148.076 166.136C147.26 164.792 146.852 163.28 146.852 161.6C146.852 159.92 147.26 158.416 148.076 157.088C148.892 155.744 150.02 154.696 151.46 153.944C152.9 153.192 154.524 152.816 156.332 152.816C158.14 152.816 159.764 153.192 161.204 153.944C162.644 154.696 163.772 155.744 164.588 157.088C165.404 158.416 165.812 159.92 165.812 161.6C165.812 163.28 165.404 164.792 164.588 166.136C163.772 167.464 162.644 168.504 161.204 169.256C159.764 170.008 158.14 170.384 156.332 170.384ZM156.332 165.8C157.036 165.8 157.668 165.632 158.228 165.296C158.804 164.944 159.26 164.456 159.596 163.832C159.932 163.192 160.1 162.448 160.1 161.6C160.1 160.752 159.932 160.016 159.596 159.392C159.26 158.752 158.804 158.264 158.228 157.928C157.668 157.576 157.036 157.4 156.332 157.4C155.628 157.4 154.988 157.576 154.412 157.928C153.852 158.264 153.404 158.752 153.068 159.392C152.732 160.016 152.564 160.752 152.564 161.6C152.564 162.448 152.732 163.192 153.068 163.832C153.404 164.456 153.852 164.944 154.412 165.296C154.988 165.632 155.628 165.8 156.332 165.8ZM175.908 170.384C173.332 170.384 171.324 169.688 169.884 168.296C168.444 166.904 167.724 164.952 167.724 162.44V153.2H173.388V162.272C173.388 163.504 173.604 164.4 174.036 164.96C174.484 165.52 175.124 165.8 175.956 165.8C176.788 165.8 177.42 165.52 177.852 164.96C178.3 164.4 178.524 163.504 178.524 162.272V153.2H184.092V162.44C184.092 164.952 183.372 166.904 181.932 168.296C180.492 169.688 178.484 170.384 175.908 170.384ZM203.248 153.2V170H198.592L192.208 162.368V170H186.688V153.2H191.344L197.728 160.832V153.2H203.248ZM205.977 153.2H214.257C216.129 153.2 217.777 153.544 219.201 154.232C220.641 154.904 221.753 155.872 222.537 157.136C223.337 158.4 223.737 159.888 223.737 161.6C223.737 163.312 223.337 164.8 222.537 166.064C221.753 167.328 220.641 168.304 219.201 168.992C217.777 169.664 216.129 170 214.257 170H205.977V153.2ZM214.017 165.584C215.233 165.584 216.201 165.24 216.921 164.552C217.657 163.848 218.025 162.864 218.025 161.6C218.025 160.336 217.657 159.36 216.921 158.672C216.201 157.968 215.233 157.616 214.017 157.616H211.641V165.584H214.017Z" fill="#A6C950"/>
<path d="M82.5677 72.384C80.7917 72.384 79.1917 72.016 77.7677 71.28C76.3437 70.528 75.2237 69.488 74.4077 68.16C73.6077 66.816 73.2077 65.296 73.2077 63.6C73.2077 61.904 73.6077 60.392 74.4077 59.064C75.2237 57.72 76.3437 56.68 77.7677 55.944C79.1917 55.192 80.7917 54.816 82.5677 54.816C84.1997 54.816 85.6557 55.104 86.9357 55.68C88.2157 56.256 89.2717 57.088 90.1037 58.176L86.5277 61.368C85.4877 60.056 84.2637 59.4 82.8557 59.4C81.6717 59.4 80.7197 59.784 79.9997 60.552C79.2797 61.304 78.9197 62.32 78.9197 63.6C78.9197 64.88 79.2797 65.904 79.9997 66.672C80.7197 67.424 81.6717 67.8 82.8557 67.8C84.2637 67.8 85.4877 67.144 86.5277 65.832L90.1037 69.024C89.2717 70.112 88.2157 70.944 86.9357 71.52C85.6557 72.096 84.1997 72.384 82.5677 72.384ZM91.7391 55.2H97.4031V67.608H104.987V72H91.7391V55.2ZM106.552 55.2H112.216V72H106.552V55.2ZM128.91 67.728V72H114.942V55.2H128.598V59.472H120.51V61.44H127.614V65.52H120.51V67.728H128.91ZM147.651 55.2V72H142.995L136.611 64.368V72H131.091V55.2H135.747L142.131 62.832V55.2H147.651ZM154.028 59.592H149.108V55.2H164.612V59.592H159.692V72H154.028V59.592ZM172.347 72.384C170.955 72.384 169.595 72.232 168.267 71.928C166.955 71.608 165.875 71.184 165.027 70.656L166.851 66.528C167.651 66.992 168.547 67.368 169.539 67.656C170.531 67.928 171.483 68.064 172.395 68.064C173.179 68.064 173.739 67.992 174.075 67.848C174.411 67.688 174.579 67.456 174.579 67.152C174.579 66.8 174.355 66.536 173.907 66.36C173.475 66.184 172.755 65.992 171.747 65.784C170.451 65.512 169.371 65.224 168.507 64.92C167.643 64.6 166.891 64.088 166.251 63.384C165.611 62.664 165.291 61.696 165.291 60.48C165.291 59.424 165.587 58.464 166.179 57.6C166.771 56.736 167.651 56.056 168.819 55.56C170.003 55.064 171.435 54.816 173.115 54.816C174.267 54.816 175.395 54.944 176.499 55.2C177.619 55.44 178.603 55.8 179.451 56.28L177.747 60.384C176.099 59.552 174.539 59.136 173.067 59.136C171.611 59.136 170.883 59.488 170.883 60.192C170.883 60.528 171.099 60.784 171.531 60.96C171.963 61.12 172.675 61.296 173.667 61.488C174.947 61.728 176.027 62.008 176.907 62.328C177.787 62.632 178.547 63.136 179.187 63.84C179.843 64.544 180.171 65.504 180.171 66.72C180.171 67.776 179.875 68.736 179.283 69.6C178.691 70.448 177.803 71.128 176.619 71.64C175.451 72.136 174.027 72.384 172.347 72.384Z" fill="#A6C950"/>
<defs>
<clipPath id="clip0">
<rect width="141" height="124" fill="white" transform="translate(56 17)"/>
</clipPath>
</defs>
</svg>
