<svg width="260" height="208" viewBox="0 0 260 208" fill="none" xmlns="http://www.w3.org/2000/svg">
<path d="M71.5695 187.384C70.1775 187.384 68.8175 187.232 67.4895 186.928C66.1775 186.608 65.0975 186.184 64.2495 185.656L66.0735 181.528C66.8735 181.992 67.7695 182.368 68.7615 182.656C69.7535 182.928 70.7055 183.064 71.6175 183.064C72.4015 183.064 72.9615 182.992 73.2975 182.848C73.6335 182.688 73.8015 182.456 73.8015 182.152C73.8015 181.8 73.5775 181.536 73.1295 181.36C72.6975 181.184 71.9775 180.992 70.9695 180.784C69.6735 180.512 68.5935 180.224 67.7295 179.92C66.8655 179.6 66.1135 179.088 65.4735 178.384C64.8335 177.664 64.5135 176.696 64.5135 175.48C64.5135 174.424 64.8095 173.464 65.4015 172.6C65.9935 171.736 66.8735 171.056 68.0415 170.56C69.2255 170.064 70.6575 169.816 72.3375 169.816C73.4895 169.816 74.6175 169.944 75.7215 170.2C76.8415 170.44 77.8255 170.8 78.6735 171.28L76.9695 175.384C75.3215 174.552 73.7615 174.136 72.2895 174.136C70.8335 174.136 70.1055 174.488 70.1055 175.192C70.1055 175.528 70.3215 175.784 70.7535 175.96C71.1855 176.12 71.8975 176.296 72.8895 176.488C74.1695 176.728 75.2495 177.008 76.1295 177.328C77.0095 177.632 77.7695 178.136 78.4095 178.84C79.0655 179.544 79.3935 180.504 79.3935 181.72C79.3935 182.776 79.0975 183.736 78.5055 184.6C77.9135 185.448 77.0255 186.128 75.8415 186.64C74.6735 187.136 73.2495 187.384 71.5695 187.384ZM89.8869 187.384C88.0789 187.384 86.4549 187.008 85.0149 186.256C83.5749 185.504 82.4469 184.464 81.6309 183.136C80.8149 181.792 80.4069 180.28 80.4069 178.6C80.4069 176.92 80.8149 175.416 81.6309 174.088C82.4469 172.744 83.5749 171.696 85.0149 170.944C86.4549 170.192 88.0789 169.816 89.8869 169.816C91.6949 169.816 93.3189 170.192 94.7589 170.944C96.1989 171.696 97.3269 172.744 98.1429 174.088C98.9589 175.416 99.3669 176.92 99.3669 178.6C99.3669 180.28 98.9589 181.792 98.1429 183.136C97.3269 184.464 96.1989 185.504 94.7589 186.256C93.3189 187.008 91.6949 187.384 89.8869 187.384ZM89.8869 182.8C90.5909 182.8 91.2229 182.632 91.7829 182.296C92.3589 181.944 92.8149 181.456 93.1509 180.832C93.4869 180.192 93.6549 179.448 93.6549 178.6C93.6549 177.752 93.4869 177.016 93.1509 176.392C92.8149 175.752 92.3589 175.264 91.7829 174.928C91.2229 174.576 90.5909 174.4 89.8869 174.4C89.1829 174.4 88.5429 174.576 87.9669 174.928C87.4069 175.264 86.9589 175.752 86.6229 176.392C86.2869 177.016 86.1189 177.752 86.1189 178.6C86.1189 179.448 86.2869 180.192 86.6229 180.832C86.9589 181.456 87.4069 181.944 87.9669 182.296C88.5429 182.632 89.1829 182.8 89.8869 182.8ZM101.423 170.2H107.087V182.608H114.671V187H101.423V170.2ZM124.158 187.384C121.582 187.384 119.574 186.688 118.134 185.296C116.694 183.904 115.974 181.952 115.974 179.44V170.2H121.638V179.272C121.638 180.504 121.854 181.4 122.286 181.96C122.734 182.52 123.374 182.8 124.206 182.8C125.038 182.8 125.67 182.52 126.102 181.96C126.55 181.4 126.774 180.504 126.774 179.272V170.2H132.342V179.44C132.342 181.952 131.622 183.904 130.182 185.296C128.742 186.688 126.734 187.384 124.158 187.384ZM138.352 174.592H133.432V170.2H148.936V174.592H144.016V187H138.352V174.592ZM150.407 170.2H156.071V187H150.407V170.2ZM167.606 187.384C165.798 187.384 164.174 187.008 162.734 186.256C161.294 185.504 160.166 184.464 159.35 183.136C158.534 181.792 158.126 180.28 158.126 178.6C158.126 176.92 158.534 175.416 159.35 174.088C160.166 172.744 161.294 171.696 162.734 170.944C164.174 170.192 165.798 169.816 167.606 169.816C169.414 169.816 171.038 170.192 172.478 170.944C173.918 171.696 175.046 172.744 175.862 174.088C176.678 175.416 177.086 176.92 177.086 178.6C177.086 180.28 176.678 181.792 175.862 183.136C175.046 184.464 173.918 185.504 172.478 186.256C171.038 187.008 169.414 187.384 167.606 187.384ZM167.606 182.8C168.31 182.8 168.942 182.632 169.502 182.296C170.078 181.944 170.534 181.456 170.87 180.832C171.206 180.192 171.374 179.448 171.374 178.6C171.374 177.752 171.206 177.016 170.87 176.392C170.534 175.752 170.078 175.264 169.502 174.928C168.942 174.576 168.31 174.4 167.606 174.4C166.902 174.4 166.262 174.576 165.686 174.928C165.126 175.264 164.678 175.752 164.342 176.392C164.006 177.016 163.838 177.752 163.838 178.6C163.838 179.448 164.006 180.192 164.342 180.832C164.678 181.456 165.126 181.944 165.686 182.296C166.262 182.632 166.902 182.8 167.606 182.8ZM195.701 170.2V187H191.045L184.661 179.368V187H179.141V170.2H183.797L190.181 177.832V170.2H195.701Z" fill="#A6C950"/>
<g clip-path="url(#clip0)">
<path d="M124.532 140C124.354 139.057 124.17 138.108 123.942 136.911L135.21 134.831L135.929 137.567L126.01 140H124.532Z" fill="#AACB59"/>
<path d="M66.9998 74.4526H84.7554V75.8132L66.9849 75.9423L66.9998 74.4526Z" fill="#B4D16D"/>
<path d="M190 75.9423H172.244V74.7655L190.015 74.4526L190 75.9423Z" fill="#B4D16D"/>
<path d="M128.336 41.9967C142.427 42.4188 153.631 50.935 156.537 63.384C158.402 71.2994 156.78 78.8075 153.601 86.0625C152.312 89.0071 150.625 91.7681 149.291 94.7028C147.575 98.5314 145.958 102.42 144.495 106.352C143.999 107.748 143.414 108.532 141.861 108.835C133.43 110.36 124.999 111.998 116.567 113.602C114.96 113.91 113.854 113.602 113.591 111.676C112.718 105.017 110.12 98.9733 106.901 93.1535C103.766 87.5025 101.177 81.6579 100.081 75.1975C97.2393 58.3885 109.192 43.1686 126.124 42.1705C126.977 42.101 127.801 42.0315 128.336 41.9967ZM128.336 44.9364C126.462 45.1847 124.562 45.3188 122.712 45.7011C109.544 48.4025 101.162 60.5238 103.017 73.8021C104.009 80.9229 107.347 87.0506 110.387 93.3819C112.689 98.1788 114.355 103.313 116.056 108.359C116.607 110.022 117.202 110.419 118.799 110.106C124.944 108.895 131.084 107.624 137.274 106.68C140.349 106.223 142.233 105.086 142.729 101.873C142.942 100.904 143.301 99.9726 143.796 99.1123C146.062 94.524 148.527 90.0301 150.62 85.3673C153.675 78.5444 155.461 71.4632 153.556 63.9402C150.67 52.6482 140.508 45.1003 128.327 44.9364H128.336Z" fill="#A9CA56"/>
<path d="M142.268 115.931C142.526 117.034 142.705 117.808 142.953 118.861C138.191 119.78 133.609 120.664 129.026 121.537C125.629 122.183 122.206 122.749 118.824 123.479C116.602 123.976 115.962 123.062 116.27 120.882C117.262 120.654 118.303 120.385 119.34 120.197C126.868 118.801 134.402 117.391 142.268 115.931Z" fill="#A9CB58"/>
<path d="M119.855 131.787C119.602 130.64 119.434 129.86 119.206 128.807L140.701 124.785C140.939 125.838 141.127 126.687 141.37 127.764L119.855 131.787Z" fill="#A9CB57"/>
<path d="M84.7656 32.0355L97.3681 44.5491L98.0724 43.8489L85.3558 31.4346L84.7656 32.0355Z" fill="#B2D068"/>
<path d="M171.704 31.4992L158.958 43.8886L159.022 43.973L171.56 31.3651L171.704 31.4992Z" fill="#B2D069"/>
<path d="M85.3855 119.099L98.0277 106.606L97.001 105.568L84.458 118.156L85.3855 119.099Z" fill="#B5D26E"/>
<path d="M159.146 106.422L171.649 119.05L172.493 118.21L159.9 105.662L159.146 106.422Z" fill="#B5D26E"/>
<path d="M128.183 31.1367V14.0248H128.634V31.1516L128.183 31.1367Z" fill="#A5C850"/>
<path d="M114.117 71.0064C112.877 65.4795 119.473 58.0558 125.524 58.2445C119.394 60.4642 115.248 64.3821 114.117 71.0064Z" fill="#B2D068"/>
</g>
<defs>
<clipPath id="clip0">
<rect width="123" height="126" fill="white" transform="translate(67 14)"/>
</clipPath>
</defs>
</svg>
