<svg width="260" height="208" viewBox="0 0 260 208" fill="none" xmlns="http://www.w3.org/2000/svg">
<path d="M47.016 56.592H42.096V52.2H57.6V56.592H52.68V69H47.016V56.592ZM73.0391 64.728V69H59.0711V52.2H72.7271V56.472H64.6391V58.44H71.7431V62.52H64.6391V64.728H73.0391ZM83.9076 69.384C82.1316 69.384 80.5316 69.016 79.1076 68.28C77.6836 67.528 76.5636 66.488 75.7476 65.16C74.9476 63.816 74.5476 62.296 74.5476 60.6C74.5476 58.904 74.9476 57.392 75.7476 56.064C76.5636 54.72 77.6836 53.68 79.1076 52.944C80.5316 52.192 82.1316 51.816 83.9076 51.816C85.5396 51.816 86.9956 52.104 88.2756 52.68C89.5556 53.256 90.6116 54.088 91.4436 55.176L87.8676 58.368C86.8276 57.056 85.6036 56.4 84.1956 56.4C83.0116 56.4 82.0596 56.784 81.3396 57.552C80.6196 58.304 80.2596 59.32 80.2596 60.6C80.2596 61.88 80.6196 62.904 81.3396 63.672C82.0596 64.424 83.0116 64.8 84.1956 64.8C85.6036 64.8 86.8276 64.144 87.8676 62.832L91.4436 66.024C90.6116 67.112 89.5556 67.944 88.2756 68.52C86.9956 69.096 85.5396 69.384 83.9076 69.384ZM109.639 52.2V69H103.975V62.808H98.7429V69H93.0789V52.2H98.7429V58.152H103.975V52.2H109.639ZM128.928 52.2V69H124.272L117.888 61.368V69H112.368V52.2H117.024L123.408 59.832V52.2H128.928ZM140.465 69.384C138.657 69.384 137.033 69.008 135.593 68.256C134.153 67.504 133.025 66.464 132.209 65.136C131.393 63.792 130.985 62.28 130.985 60.6C130.985 58.92 131.393 57.416 132.209 56.088C133.025 54.744 134.153 53.696 135.593 52.944C137.033 52.192 138.657 51.816 140.465 51.816C142.273 51.816 143.897 52.192 145.337 52.944C146.777 53.696 147.905 54.744 148.721 56.088C149.537 57.416 149.945 58.92 149.945 60.6C149.945 62.28 149.537 63.792 148.721 65.136C147.905 66.464 146.777 67.504 145.337 68.256C143.897 69.008 142.273 69.384 140.465 69.384ZM140.465 64.8C141.169 64.8 141.801 64.632 142.361 64.296C142.937 63.944 143.393 63.456 143.729 62.832C144.065 62.192 144.233 61.448 144.233 60.6C144.233 59.752 144.065 59.016 143.729 58.392C143.393 57.752 142.937 57.264 142.361 56.928C141.801 56.576 141.169 56.4 140.465 56.4C139.761 56.4 139.121 56.576 138.545 56.928C137.985 57.264 137.537 57.752 137.201 58.392C136.865 59.016 136.697 59.752 136.697 60.6C136.697 61.448 136.865 62.192 137.201 62.832C137.537 63.456 137.985 63.944 138.545 64.296C139.121 64.632 139.761 64.8 140.465 64.8ZM152.001 52.2H157.665V64.608H165.249V69H152.001V52.2ZM175.387 69.384C173.579 69.384 171.955 69.008 170.515 68.256C169.075 67.504 167.947 66.464 167.131 65.136C166.315 63.792 165.907 62.28 165.907 60.6C165.907 58.92 166.315 57.416 167.131 56.088C167.947 54.744 169.075 53.696 170.515 52.944C171.955 52.192 173.579 51.816 175.387 51.816C177.195 51.816 178.819 52.192 180.259 52.944C181.699 53.696 182.827 54.744 183.643 56.088C184.459 57.416 184.867 58.92 184.867 60.6C184.867 62.28 184.459 63.792 183.643 65.136C182.827 66.464 181.699 67.504 180.259 68.256C178.819 69.008 177.195 69.384 175.387 69.384ZM175.387 64.8C176.091 64.8 176.723 64.632 177.283 64.296C177.859 63.944 178.315 63.456 178.651 62.832C178.987 62.192 179.155 61.448 179.155 60.6C179.155 59.752 178.987 59.016 178.651 58.392C178.315 57.752 177.859 57.264 177.283 56.928C176.723 56.576 176.091 56.4 175.387 56.4C174.683 56.4 174.043 56.576 173.467 56.928C172.907 57.264 172.459 57.752 172.123 58.392C171.787 59.016 171.619 59.752 171.619 60.6C171.619 61.448 171.787 62.192 172.123 62.832C172.459 63.456 172.907 63.944 173.467 64.296C174.043 64.632 174.683 64.8 175.387 64.8ZM198.035 60.144H202.955V67.248C201.963 67.936 200.811 68.464 199.499 68.832C198.187 69.2 196.899 69.384 195.635 69.384C193.843 69.384 192.235 69.016 190.811 68.28C189.387 67.528 188.267 66.488 187.451 65.16C186.651 63.816 186.251 62.296 186.251 60.6C186.251 58.904 186.651 57.392 187.451 56.064C188.267 54.72 189.395 53.68 190.835 52.944C192.291 52.192 193.931 51.816 195.755 51.816C197.403 51.816 198.875 52.096 200.171 52.656C201.483 53.2 202.571 54 203.435 55.056L199.811 58.248C198.755 57.016 197.499 56.4 196.043 56.4C194.795 56.4 193.803 56.776 193.067 57.528C192.331 58.28 191.963 59.304 191.963 60.6C191.963 61.864 192.323 62.88 193.043 63.648C193.779 64.416 194.755 64.8 195.971 64.8C196.691 64.8 197.379 64.664 198.035 64.392V60.144ZM215.352 62.904V69H209.688V62.832L203.352 52.2H209.328L212.76 58.008L216.216 52.2H221.688L215.352 62.904ZM49.632 101.384C48.24 101.384 46.88 101.232 45.552 100.928C44.24 100.608 43.16 100.184 42.312 99.656L44.136 95.528C44.936 95.992 45.832 96.368 46.824 96.656C47.816 96.928 48.768 97.064 49.68 97.064C50.464 97.064 51.024 96.992 51.36 96.848C51.696 96.688 51.864 96.456 51.864 96.152C51.864 95.8 51.64 95.536 51.192 95.36C50.76 95.184 50.04 94.992 49.032 94.784C47.736 94.512 46.656 94.224 45.792 93.92C44.928 93.6 44.176 93.088 43.536 92.384C42.896 91.664 42.576 90.696 42.576 89.48C42.576 88.424 42.872 87.464 43.464 86.6C44.056 85.736 44.936 85.056 46.104 84.56C47.288 84.064 48.72 83.816 50.4 83.816C51.552 83.816 52.68 83.944 53.784 84.2C54.904 84.44 55.888 84.8 56.736 85.28L55.032 89.384C53.384 88.552 51.824 88.136 50.352 88.136C48.896 88.136 48.168 88.488 48.168 89.192C48.168 89.528 48.384 89.784 48.816 89.96C49.248 90.12 49.96 90.296 50.952 90.488C52.232 90.728 53.312 91.008 54.192 91.328C55.072 91.632 55.832 92.136 56.472 92.84C57.128 93.544 57.456 94.504 57.456 95.72C57.456 96.776 57.16 97.736 56.568 98.6C55.976 99.448 55.088 100.128 53.904 100.64C52.736 101.136 51.312 101.384 49.632 101.384ZM73.1094 96.728V101H59.1414V84.2H72.7974V88.472H64.7094V90.44H71.8134V94.52H64.7094V96.728H73.1094ZM78.9379 88.592H74.0179V84.2H89.5219V88.592H84.6019V101H78.9379V88.592Z" fill="#A6C950"/>
<g clip-path="url(#clip0)">
<path d="M222.562 107.522C222.562 107.522 222.562 107.522 222.562 107.522L222.558 107.518L216.039 106.588C215.123 106.458 214.486 105.609 214.616 104.693C214.679 104.252 214.914 103.855 215.27 103.588L220.539 99.6366C221.279 99.0813 221.429 98.0309 220.874 97.2904L214.841 89.2461C214.285 88.5055 213.235 88.3556 212.495 88.9109L207.227 92.8627C206.49 93.4222 205.439 93.2781 204.879 92.5407C204.607 92.1827 204.491 91.7304 204.556 91.2857L205.488 84.7664C205.619 83.8501 204.983 83.0011 204.067 82.8695C204.066 82.8695 204.065 82.8693 204.065 82.8693L194.117 81.4481C193.201 81.3166 192.351 81.9526 192.22 82.8689C192.22 82.8691 192.22 82.8691 192.22 82.8693L191.288 89.3885C191.157 90.3048 190.309 90.9419 189.392 90.8114C188.952 90.7487 188.555 90.5135 188.288 90.1578L184.338 84.8888C183.782 84.1482 182.732 83.9982 181.992 84.5536L176.955 88.3327C174.677 88.0906 172.379 88.0906 170.101 88.3327C155.18 90.0382 143.479 101.937 142.025 116.885C141.98 117.359 141.963 117.83 141.939 118.301H141.437C140.641 118.303 139.957 118.863 139.798 119.642L138.639 125.149L134.001 121.95C133.335 121.49 132.436 121.572 131.864 122.144L126.836 127.172C126.265 127.743 126.183 128.641 126.642 129.307L129.826 133.937L124.317 135.095C123.547 135.264 122.998 135.947 123 136.736V143.44C123 144.232 123.555 144.917 124.331 145.08L129.839 146.238L126.655 150.869C126.197 151.534 126.278 152.432 126.85 153.004L131.877 158.032C132.449 158.603 133.348 158.685 134.014 158.226L138.644 155.033L139.803 160.542C139.962 161.321 140.646 161.881 141.442 161.883H148.145C148.938 161.883 149.622 161.328 149.786 160.552L150.944 155.043L155.574 158.228C156.24 158.686 157.138 158.604 157.709 158.033L160.312 155.422V160.199C160.32 162.583 161.597 164.782 163.664 165.97V175.282C163.664 178.984 166.665 181.985 170.368 181.985H177.071C180.773 181.985 183.775 178.984 183.775 175.282V165.97C185.842 164.782 187.119 162.583 187.127 160.199V153.565C187.172 150.774 188.632 148.198 191.003 146.724C192.394 145.822 193.713 144.813 194.948 143.708L192.712 141.211C191.607 142.201 190.427 143.104 189.181 143.91C185.853 145.999 183.816 149.637 183.775 153.565V160.199C183.775 162.05 182.274 163.55 180.423 163.55H167.016C165.165 163.55 163.664 162.05 163.664 160.199V153.426C163.625 149.572 161.62 146.005 158.348 143.967C145.065 135.621 141.063 118.087 149.409 104.804C154.588 96.5628 163.626 91.5467 173.359 91.5119C173.334 91.5716 173.312 91.6326 173.294 91.6946C173.231 92.1345 173.347 92.5813 173.614 92.9364L177.564 98.2038C177.98 98.7428 178.02 99.4831 177.664 100.064C177.322 100.648 176.659 100.967 175.988 100.87L169.469 99.9383C168.553 99.807 167.704 100.443 167.572 101.359C167.572 101.36 167.572 101.361 167.572 101.361L166.149 111.314C166.018 112.23 166.654 113.08 167.57 113.211C167.571 113.211 167.572 113.211 167.572 113.211L174.091 114.143C175.008 114.274 175.645 115.122 175.514 116.039C175.452 116.479 175.216 116.876 174.861 117.143L169.593 121.093C168.853 121.648 168.703 122.699 169.258 123.439L175.291 131.484C175.847 132.224 176.897 132.374 177.638 131.819L182.907 127.869C183.648 127.314 184.698 127.466 185.252 128.207C185.518 128.562 185.632 129.007 185.57 129.446L184.639 135.965C184.508 136.881 185.144 137.731 186.06 137.862C186.06 137.862 186.06 137.862 186.061 137.862L196.015 139.285C196.094 139.295 196.173 139.3 196.252 139.3C197.086 139.301 197.794 138.688 197.913 137.862L198.843 131.343C198.973 130.427 199.822 129.79 200.738 129.92C201.178 129.983 201.576 130.218 201.843 130.574L205.794 135.841C206.35 136.582 207.4 136.732 208.141 136.176L216.185 130.143C216.925 129.588 217.075 128.537 216.52 127.797L212.57 122.529C212.155 121.99 212.115 121.25 212.469 120.669C212.805 120.077 213.473 119.756 214.145 119.865L220.665 120.795C221.581 120.926 222.43 120.29 222.562 119.374C222.562 119.374 222.562 119.374 222.562 119.374L223.983 109.419C224.114 108.503 223.478 107.653 222.562 107.522ZM167.016 166.902H180.423V170.254H167.016V166.902V166.902ZM167.016 173.606H180.423V175.282C180.423 177.133 178.922 178.633 177.071 178.633H170.368C168.516 178.633 167.016 177.133 167.016 175.282V173.606V173.606ZM153.674 144.705C154.589 145.453 155.545 146.15 156.538 146.791C158.122 147.792 159.314 149.306 159.915 151.08L156.32 154.668L152.839 152.268C151.315 151.218 149.228 151.602 148.177 153.126C147.926 153.492 147.749 153.904 147.657 154.338L146.779 158.523H142.796L141.918 154.345C141.536 152.533 139.759 151.374 137.947 151.755C137.513 151.846 137.101 152.023 136.736 152.275L133.253 154.668L130.2 151.621L132.598 148.142C133.649 146.619 133.266 144.531 131.743 143.48C131.377 143.227 130.965 143.05 130.53 142.959L126.352 142.079V138.097L130.53 137.217C132.341 136.833 133.497 135.054 133.113 133.243C133.022 132.813 132.848 132.406 132.6 132.043L130.2 128.554L133.253 125.507L136.737 127.907C138.262 128.957 140.349 128.571 141.399 127.046C141.65 126.681 141.826 126.27 141.918 125.836L142.211 124.442C142.479 126.373 142.924 128.275 143.54 130.125C138.025 130.782 134.088 135.785 134.746 141.3C135.403 146.814 140.406 150.751 145.921 150.094C149.24 149.698 152.146 147.678 153.674 144.705ZM151.071 142.344C149.82 145.822 145.986 147.627 142.507 146.376C139.028 145.125 137.223 141.29 138.474 137.812C139.432 135.151 141.958 133.378 144.786 133.384C144.808 133.384 144.828 133.384 144.85 133.384C146.391 136.707 148.496 139.738 151.071 142.344ZM219.471 117.235L214.611 116.541C211.862 116.149 209.316 118.059 208.923 120.808C208.735 122.128 209.078 123.469 209.878 124.535L212.823 128.462L207.46 132.484L204.514 128.559C202.848 126.338 199.697 125.887 197.475 127.553C196.409 128.353 195.703 129.544 195.514 130.864L194.836 135.73L188.201 134.782L188.895 129.922C189.288 127.173 187.379 124.626 184.63 124.232C183.309 124.043 181.968 124.387 180.901 125.187L176.974 128.132L172.952 122.769L176.877 119.823C179.098 118.157 179.549 115.006 177.883 112.784C177.083 111.718 175.892 111.012 174.572 110.823L169.712 110.129L170.661 103.495L175.521 104.188C178.27 104.582 180.817 102.673 181.21 99.9241C181.4 98.6032 181.056 97.2617 180.255 96.1944L177.301 92.2644L182.664 88.2422L185.61 92.1688C187.276 94.3905 190.427 94.8411 192.648 93.1752C193.715 92.3754 194.42 91.1845 194.609 89.8645L195.303 85.0044L201.938 85.9513L201.244 90.8114C200.852 93.5603 202.762 96.1068 205.511 96.4994C206.831 96.6879 208.172 96.3443 209.238 95.5441L213.165 92.5996L217.187 97.9624L213.26 100.909C211.039 102.574 210.588 105.726 212.254 107.947C213.054 109.014 214.245 109.719 215.565 109.908L220.425 110.602L219.471 117.235Z" fill="#A5C850"/>
<path d="M195.063 96.9568C187.659 96.9568 181.656 102.959 181.656 110.364C181.656 117.768 187.659 123.771 195.063 123.771C202.468 123.771 208.471 117.768 208.471 110.364C208.462 102.963 202.465 96.965 195.063 96.9568ZM195.063 120.419C189.51 120.419 185.008 115.917 185.008 110.364C185.008 104.81 189.51 100.309 195.063 100.309C200.617 100.309 205.119 104.81 205.119 110.364C205.112 115.915 200.614 120.413 195.063 120.419Z" fill="#A5C850"/>
<path d="M175.395 155.171H172.043V160.198H175.395V155.171Z" fill="#A5C850"/>
<path d="M166.389 138.712C156.044 134.67 150.933 123.007 154.975 112.662C156.541 108.653 159.352 105.253 162.994 102.96L161.202 100.124C150.238 107.031 146.95 121.518 153.857 132.482C156.532 136.728 160.498 140.005 165.172 141.831C169.31 143.416 172.042 147.388 172.044 151.819H175.395C175.401 146.005 171.818 140.791 166.389 138.712Z" fill="#A5C850"/>
<path d="M217.293 143.44H205.562V146.791H217.293V143.44Z" fill="#A5C850"/>
<path d="M204.959 152.206L202.813 154.781L212.87 163.159L215.015 160.584L204.959 152.206Z" fill="#A5C850"/>
<path d="M198.858 156.847H195.506V168.578H198.858V156.847Z" fill="#A5C850"/>
<path d="M138.117 106.618L124.711 109.969L125.523 113.219L138.929 109.868L138.117 106.618Z" fill="#A5C850"/>
<path d="M129.442 90.1254L127.495 92.8512L139.224 101.229L141.171 98.5036L129.442 90.1254Z" fill="#A5C850"/>
<path d="M145.101 81.0142L141.854 81.8444L145.282 95.2501L148.529 94.4199L145.101 81.0142Z" fill="#A5C850"/>
</g>
<defs>
<clipPath id="clip0">
<rect width="101" height="101" fill="white" transform="translate(123 81)"/>
</clipPath>
</defs>
</svg>
