<svg width="97" height="97" viewBox="0 0 97 97" fill="none" xmlns="http://www.w3.org/2000/svg">
<path d="M48.5 65.7095C44.1866 65.7095 40.6774 69.2187 40.6774 73.5321C40.6774 75.9774 41.8571 78.2897 43.8065 79.7573V90.7417H53.1936V79.7573C55.1429 78.2882 56.3226 75.9774 56.3226 73.5321C56.3226 69.2187 52.8134 65.7095 48.5 65.7095ZM50.8421 77.5701L50.0645 78.0222V87.6127H46.9355V78.0222L46.1579 77.5701C44.6857 76.7127 43.8065 75.203 43.8065 73.5321C43.8065 70.9443 45.9123 68.8385 48.5 68.8385C51.0877 68.8385 53.1936 70.9443 53.1936 73.5321C53.1936 75.203 52.3143 76.7127 50.8421 77.5701Z" fill="#555555"/>
<path d="M20.3387 20.3389C16.0253 20.3389 12.5161 23.8481 12.5161 28.1614C12.5161 32.4748 16.0253 35.984 20.3387 35.984C24.6521 35.984 28.1613 32.4748 28.1613 28.1614C28.1613 23.8481 24.6521 20.3389 20.3387 20.3389ZM20.3387 32.855C17.751 32.855 15.6451 30.7492 15.6451 28.1614C15.6451 25.5737 17.751 23.4679 20.3387 23.4679C22.9264 23.4679 25.0322 25.5737 25.0322 28.1614C25.0322 30.7492 22.9264 32.855 20.3387 32.855Z" fill="#555555"/>
<path d="M76.6613 35.984C80.9747 35.984 84.4839 32.4748 84.4839 28.1614C84.4839 23.8481 80.9747 20.3389 76.6613 20.3389C72.348 20.3389 68.8387 23.8481 68.8387 28.1614C68.8387 32.4748 72.348 35.984 76.6613 35.984ZM76.6613 23.4679C79.249 23.4679 81.3549 25.5737 81.3549 28.1614C81.3549 30.7492 79.249 32.855 76.6613 32.855C74.0736 32.855 71.9678 30.7492 71.9678 28.1614C71.9678 25.5737 74.0736 23.4679 76.6613 23.4679Z" fill="#555555"/>
<path d="M48.5 20.3389C44.1866 20.3389 40.6774 23.8481 40.6774 28.1614C40.6774 32.4748 44.1866 35.984 48.5 35.984C52.8134 35.984 56.3226 32.4748 56.3226 28.1614C56.3226 23.8481 52.8134 20.3389 48.5 20.3389ZM48.5 32.855C45.9123 32.855 43.8065 30.7492 43.8065 28.1614C43.8065 25.5737 45.9123 23.4679 48.5 23.4679C51.0877 23.4679 53.1936 25.5737 53.1936 28.1614C53.1936 30.7492 51.0877 32.855 48.5 32.855Z" fill="#555555"/>
<path d="M68.8387 56.3226C84.3665 56.3226 97 43.6891 97 28.1613C97 12.6335 84.3665 0 68.8387 0H28.1613C12.6335 0 0 12.6335 0 28.1613C0 34.5883 2.21848 40.8448 6.25806 45.845V65.5798C6.25806 68.2395 8.42336 70.4032 11.083 70.4032C12.4316 70.4032 13.7271 69.8322 14.6376 68.8387L26.1775 56.2491C26.8549 56.2976 27.5198 56.3226 28.1613 56.3226H31.2903V60.115C28.5321 61.3259 26.5968 64.0748 26.5968 67.2742V89.1774C26.5968 93.4908 30.106 97 34.4194 97H62.5806C66.894 97 70.4032 93.4908 70.4032 89.1774V67.2742C70.4032 64.0748 68.4679 61.3259 65.7097 60.115V56.3226H68.8387ZM67.2742 67.2742V89.1774C67.2742 91.7651 65.1684 93.871 62.5806 93.871H34.4194C31.8316 93.871 29.7258 91.7651 29.7258 89.1774V67.2742C29.7258 64.6865 31.8316 62.5806 34.4194 62.5806H62.5806C65.1684 62.5806 67.2742 64.6865 67.2742 67.2742ZM48.5 43.8065C42.4625 43.8065 37.5484 48.719 37.5484 54.7581V59.4516H34.4194V54.7581C34.4194 46.9949 40.7353 40.6774 48.5 40.6774C56.2647 40.6774 62.5806 46.9949 62.5806 54.7581V59.4516H59.4516V54.7581C59.4516 48.719 54.5375 43.8065 48.5 43.8065ZM56.3226 56.3226V59.4516H40.6774V56.3226H56.3226ZM40.8354 53.1936C41.5629 49.628 44.7217 46.9355 48.5 46.9355C52.2783 46.9355 55.4371 49.628 56.1646 53.1936H40.8354ZM65.6299 53.1936C64.8367 44.4354 57.4616 37.5484 48.5 37.5484C39.5385 37.5484 32.1633 44.4354 31.3701 53.1936H28.1613C27.3634 53.1936 26.5577 53.1529 25.6956 53.0684L24.9196 52.9917L12.3315 66.7235C12.0124 67.0739 11.5571 67.2742 11.083 67.2742C10.1475 67.2742 9.3871 66.5138 9.3871 65.5798V44.7107L9.01944 44.2742C5.22079 39.7669 3.12903 34.0439 3.12903 28.1613C3.12903 14.3591 14.3591 3.12903 28.1613 3.12903H68.8387C82.6409 3.12903 93.871 14.3591 93.871 28.1613C93.871 41.9635 82.6409 53.1936 68.8387 53.1936H65.6299Z" fill="#555555"/>
</svg>
