<svg width="103" height="103" viewBox="0 0 103 103" fill="none" xmlns="http://www.w3.org/2000/svg">
<path d="M13.5334 44.6978H9.44716C8.75623 44.6978 8.302 45.132 8.302 45.6256V58.1803C8.302 58.8123 9.07203 59.1279 9.84165 59.1279C10.6115 59.1279 11.3815 58.8125 11.3815 58.1803V53.9165H13.3356C16.0606 53.9165 18.1925 52.6529 18.1925 49.3367V49.238C18.1925 45.9214 16.1393 44.6978 13.5334 44.6978ZM15.1124 49.5734C15.1124 50.9159 14.4412 51.5475 13.3356 51.5475H11.3815V47.3821H13.3356C14.4412 47.3821 15.1124 48.0139 15.1124 49.3562V49.5734Z" fill="#666666"/>
<path d="M81.0838 44.6978H72.5558C71.9044 44.6978 71.6282 45.4082 71.6282 46.0598C71.6282 46.8097 71.9637 47.4612 72.5558 47.4612H75.2801V58.1804C75.2801 58.8124 76.05 59.128 76.82 59.128C77.59 59.128 78.3596 58.8126 78.3596 58.1804V47.4612H81.084C81.6762 47.4612 82.0118 46.8097 82.0118 46.0598C82.0114 45.4082 81.7353 44.6978 81.0838 44.6978Z" fill="#666666"/>
<path d="M92.9602 44.6978C92.467 44.6978 92.2693 44.8949 92.0719 45.2698L89.3282 50.3434L86.5643 45.2698C86.3474 44.8949 86.1696 44.6978 85.676 44.6978C84.8267 44.6978 83.5835 45.2307 83.5835 45.9607C83.5835 46.0205 83.5835 46.0992 83.6226 46.1783L87.7091 52.9491C87.7486 53.0088 87.7886 53.1071 87.7886 53.2257V58.1804C87.7886 58.8124 88.5584 59.128 89.3284 59.128C90.0976 59.128 90.8681 58.8126 90.8681 58.1804V53.2257C90.8681 53.1071 90.9072 53.0086 90.947 52.9491L95.0136 46.1783C95.0527 46.0992 95.0527 46.0207 95.0527 45.9607C95.0527 45.2305 93.8089 44.6978 92.9602 44.6978Z" fill="#666666"/>
<path d="M28.3715 52.9291C29.753 52.3961 30.7601 51.1332 30.7601 48.9222C30.7601 45.7044 28.6082 44.6975 25.9037 44.6975H21.8174C21.2448 44.6975 20.8696 45.1318 20.8696 45.6253V58.18C20.8696 58.812 21.6397 59.1276 22.4095 59.1276C23.1793 59.1276 23.9493 58.8122 23.9493 58.18V53.4224H25.2525L27.9567 58.6734C28.174 59.0881 28.5487 59.2454 28.9436 59.2454C29.8521 59.2454 30.8784 58.4167 30.8784 57.6467C30.8784 57.5478 30.8586 57.4098 30.7797 57.2913L28.3715 52.9291ZM25.9039 51.0538H23.9495V47.3821H25.9039C27.0093 47.3821 27.6806 47.8359 27.6806 49.2182C27.6806 50.6002 27.0093 51.0538 25.9039 51.0538Z" fill="#666666"/>
<path d="M35.2739 44.6978C34.5041 44.6978 33.7336 44.974 33.7336 45.6256V58.1803C33.7336 58.8123 34.5039 59.1279 35.2739 59.1279C36.0431 59.1279 36.8131 58.8125 36.8131 58.1803V45.6256C36.8131 44.9738 36.0431 44.6978 35.2739 44.6978Z" fill="#666666"/>
<path d="M60.6266 52.9291C62.0083 52.3961 63.0152 51.1332 63.0152 48.9222C63.0152 45.7044 60.8637 44.6975 58.1585 44.6975H54.0721C53.4998 44.6975 53.1245 45.1318 53.1245 45.6253V58.18C53.1245 58.812 53.8947 59.1276 54.6648 59.1276C55.4344 59.1276 56.204 58.8122 56.204 58.18V53.4224H57.507L60.2115 58.6734C60.4287 59.0881 60.8034 59.2454 61.1983 59.2454C62.1065 59.2454 63.133 58.4167 63.133 57.6467C63.133 57.5478 63.1133 57.4098 63.0346 57.2913L60.6266 52.9291ZM58.1587 51.0538H56.2044V47.3821H58.1587C59.2646 47.3821 59.9359 47.8359 59.9359 49.2182C59.9359 50.6002 59.2646 51.0538 58.1587 51.0538Z" fill="#666666"/>
<path d="M67.5288 44.6978C66.759 44.6978 65.9888 44.974 65.9888 45.6256V58.1803C65.9888 58.8123 66.7588 59.1279 67.5288 59.1279C68.2986 59.1279 69.0685 58.8125 69.0685 58.1803V45.6256C69.0685 44.9738 68.2986 44.6978 67.5288 44.6978Z" fill="#666666"/>
<path d="M44.9593 44.6978C42.2354 44.6978 40.123 45.9607 40.123 49.3562V54.5876C40.123 57.9829 42.2354 59.2461 44.9593 59.2461C47.6834 59.2461 49.8158 57.9831 49.8158 54.5876V49.3562C49.8158 45.9605 47.6832 44.6978 44.9593 44.6978ZM46.7361 54.5876C46.7361 55.9497 46.0645 56.5617 44.9593 56.5617C43.8537 56.5617 43.2027 55.9497 43.2027 54.5876V49.3562C43.2027 47.9942 43.8537 47.3821 44.9593 47.3821C46.0645 47.3821 46.7361 47.9942 46.7361 49.3562V54.5876Z" fill="#666666"/>
<path d="M97.9448 32.8144H94.741C91.1779 24.7674 85.4696 17.9029 78.1628 12.9035C70.2921 7.51822 61.0722 4.67151 51.5002 4.67151C41.9278 4.67151 32.7081 7.51802 24.8372 12.9035C17.5304 17.9029 11.8219 24.7676 8.25916 32.8144H5.05503C2.26765 32.8144 0 35.082 0 37.8694V66.0344C0 68.8218 2.26765 71.0894 5.05503 71.0894H97.9448C100.732 71.0894 103 68.8215 103 66.0344V37.8694C103 35.082 100.732 32.8144 97.9448 32.8144ZM51.5002 8.69489C68.1279 8.69489 83.0437 18.0667 90.3024 32.8144H76.1217C70.2316 25.2511 61.1056 20.7651 51.5002 20.7651C41.8948 20.7651 32.769 25.2511 26.8779 32.8144H21.946C28.3971 22.823 39.4346 16.7417 51.4998 16.7417C55.8058 16.7417 60.029 17.5201 64.052 19.0553C65.09 19.4516 66.2529 18.931 66.6486 17.893C67.045 16.855 66.5244 15.6923 65.4864 15.2964C61.0036 13.5855 56.2977 12.7183 51.4996 12.7183C44.3073 12.7183 37.2576 14.6936 31.1128 18.4307C25.3213 21.9531 20.551 26.9096 17.2517 32.8146H12.6976C19.9562 18.0667 34.8725 8.69489 51.5002 8.69489ZM70.7672 32.8144H32.2328C37.2965 27.7316 44.2412 24.7884 51.5002 24.7884C58.7592 24.7884 65.7039 27.7316 70.7672 32.8144ZM98.9768 66.0346C98.9766 66.5939 98.5041 67.0662 97.9448 67.0662H93.399C93.3946 67.0662 93.3901 67.066 93.386 67.0662H84.6252C84.5714 67.0642 84.5181 67.0637 84.4645 67.0662H9.61361C9.60928 67.066 9.60516 67.0662 9.60084 67.0662H5.05503C4.49595 67.0662 4.02339 66.5937 4.02339 66.0346V37.8694C4.02339 37.3101 4.49595 36.8378 5.05503 36.8378H9.59424C9.60248 36.8376 9.61052 36.838 9.61855 36.8378H18.3793C18.402 36.8386 18.4251 36.8419 18.4481 36.8419C18.4681 36.8419 18.4873 36.8384 18.5075 36.8378H27.8751C27.8761 36.8378 27.877 36.838 27.878 36.838C27.8784 36.838 27.8792 36.8378 27.8796 36.8378H93.4076C93.4099 36.8378 93.4119 36.8382 93.4142 36.8382C93.4177 36.8382 93.421 36.8378 93.4245 36.8378H97.9448C98.5041 36.8378 98.9766 37.3103 98.9766 37.8694V66.0346H98.9768Z" fill="#666666"/>
<path d="M100.806 70.1987V67.6434H2.19336V70.1987H13.7804V76.7653L8.79998 81.7458C8.20238 81.2878 7.46407 81.0048 6.65491 81.0048C4.69791 81.0048 3.10573 82.5963 3.10573 84.5529C3.10573 86.5097 4.6977 88.1013 6.65491 88.1013C8.6117 88.1013 10.2033 86.5097 10.2033 84.5529C10.2033 83.7128 9.89755 82.9507 9.4081 82.3421L14.6323 77.118V70.1987H22.2977V78.9654L9.26513 91.9982C8.66217 91.5252 7.91274 91.2312 7.08833 91.2312C5.13112 91.2312 3.53916 92.8232 3.53916 94.7804C3.53916 96.737 5.13112 98.3287 7.08833 98.3287C9.04554 98.3287 10.6375 96.7372 10.6375 94.7804C10.6375 93.9543 10.3423 93.2033 9.86768 92.5999L23.1495 79.3181V70.1987H30.8566V81.7334L20.5412 92.0488C19.9287 91.546 19.1556 91.2312 18.303 91.2312C16.3458 91.2312 14.7538 92.8232 14.7538 94.7804C14.7538 96.737 16.3458 98.3287 18.303 98.3287C20.2596 98.3287 21.8513 96.7372 21.8513 94.7804C21.8513 93.9836 21.5777 93.2548 21.1328 92.6619L31.7084 82.0863V70.1987H39.3739V84.4658L31.7181 92.1224C31.0929 91.5746 30.2845 91.2312 29.3905 91.2312C27.4337 91.2312 25.8421 92.8232 25.8421 94.7804C25.8421 96.737 27.4337 98.3287 29.3905 98.3287C31.3475 98.3287 32.9397 96.7372 32.9397 94.7804C32.9397 94.0246 32.6984 93.3269 32.2943 92.7509L40.2259 84.8187V70.1989H47.8914V91.2745C46.1364 91.4875 44.7674 92.9692 44.7674 94.7804C44.7674 96.737 46.3597 98.3287 48.3172 98.3287C50.2735 98.3287 51.8655 96.7372 51.8655 94.7804C51.8655 92.9692 50.4973 91.4873 48.743 91.2745V70.1987H56.4084V84.8184L64.34 92.7505C63.9359 93.3264 63.6946 94.0246 63.6946 94.7804C63.6946 96.737 65.2866 98.3287 67.243 98.3287C69.1994 98.3287 70.7913 96.7372 70.7913 94.7804C70.7913 92.8232 69.1994 91.2312 67.243 91.2312C66.3498 91.2312 65.5412 91.5746 64.9166 92.122L57.2604 84.4656V70.1987H64.9259V82.0861L75.5017 92.6615C75.0559 93.2548 74.7822 93.9832 74.7822 94.7804C74.7822 96.737 76.375 98.3287 78.3322 98.3287C80.2885 98.3287 81.8803 96.7372 81.8803 94.7804C81.8803 92.8232 80.2883 91.2312 78.3322 91.2312C77.4795 91.2312 76.706 91.546 76.0932 92.0488L65.7777 81.7334V70.1987H73.4848V79.3181L86.767 92.6007C86.2922 93.2041 85.9976 93.9547 85.9976 94.7804C85.9976 96.737 87.5896 98.3287 89.5458 98.3287C91.5022 98.3287 93.0941 96.7372 93.0941 94.7804C93.0941 92.8232 91.5022 91.2312 89.5458 91.2312C88.7216 91.2312 87.9721 91.5252 87.3692 91.999L74.3366 78.9654V70.1987H82.0021V77.118L87.2254 82.3421C86.7363 82.9507 86.4302 83.7128 86.4302 84.5529C86.4302 86.5097 88.023 88.1013 89.9802 88.1013C91.9364 88.1013 93.5286 86.5097 93.5286 84.5529C93.5286 82.5963 91.9366 81.0048 89.9802 81.0048C89.17 81.0048 88.4315 81.288 87.8335 81.7464L82.8539 76.7655V70.1987H100.806ZM6.65491 86.3979C5.63727 86.3979 4.80915 85.5701 4.80915 84.5529C4.80915 83.5357 5.63727 82.7082 6.65491 82.7082C7.67213 82.7082 8.49964 83.5357 8.49964 84.5529C8.49964 85.5701 7.67213 86.3979 6.65491 86.3979ZM7.08812 96.6251C6.07048 96.6251 5.24236 95.7974 5.24236 94.7804C5.24236 93.7628 6.07048 92.9346 7.08812 92.9346C8.10576 92.9346 8.93388 93.7625 8.93388 94.7804C8.93388 95.7974 8.10576 96.6251 7.08812 96.6251ZM18.3028 96.6251C17.2851 96.6251 16.457 95.7974 16.457 94.7804C16.457 93.7628 17.2851 92.9346 18.3028 92.9346C19.32 92.9346 20.1475 93.7625 20.1475 94.7804C20.1475 95.7974 19.32 96.6251 18.3028 96.6251ZM29.3901 96.6251C28.3729 96.6251 27.5452 95.7974 27.5452 94.7804C27.5452 93.7628 28.3729 92.9346 29.3901 92.9346C30.4077 92.9346 31.2358 93.7625 31.2358 94.7804C31.2356 95.7974 30.4075 96.6251 29.3901 96.6251ZM50.1613 94.7802C50.1613 95.7974 49.3338 96.6249 48.3163 96.6249C47.2983 96.6249 46.47 95.7972 46.47 94.7802C46.47 93.7625 47.2983 92.9344 48.3163 92.9344C49.3338 92.9346 50.1613 93.7625 50.1613 94.7802ZM67.2422 92.9346C68.2594 92.9346 69.0871 93.7625 69.0871 94.7804C69.0871 95.7976 68.2596 96.6251 67.2422 96.6251C66.2249 96.6251 65.3974 95.7974 65.3974 94.7804C65.3974 93.7625 66.2249 92.9346 67.2422 92.9346ZM78.3311 92.9346C79.3484 92.9346 80.1759 93.7625 80.1759 94.7804C80.1759 95.7976 79.3484 96.6251 78.3311 96.6251C77.3131 96.6251 76.4846 95.7974 76.4846 94.7804C76.4846 93.7625 77.3131 92.9346 78.3311 92.9346ZM89.5447 92.9346C90.562 92.9346 91.3895 93.7625 91.3895 94.7804C91.3895 95.7976 90.562 96.6251 89.5447 96.6251C88.5275 96.6251 87.7 95.7974 87.7 94.7804C87.7 93.7625 88.5275 92.9346 89.5447 92.9346ZM89.979 82.7082C90.9962 82.7082 91.8237 83.5357 91.8237 84.5529C91.8237 85.5701 90.996 86.3979 89.979 86.3979C88.9609 86.3979 88.1324 85.5701 88.1324 84.5529C88.1324 83.5357 88.9609 82.7082 89.979 82.7082Z" fill="#666666"/>
</svg>
