<svg width="720" height="200" viewBox="0 0 720 200" fill="none" xmlns="http://www.w3.org/2000/svg">
<path d="M237.574 115.606C251.415 134.592 265.878 153.074 283.595 168.685C301.942 184.852 322.665 196.181 347.367 199.057C381.746 203.059 410.426 190.691 435.584 168.265C455.804 150.241 471.492 128.386 487.484 106.791C490.198 103.313 493.021 99.9153 495.605 96.3442C512.077 73.5774 528.604 50.843 550.306 32.5883C573.693 12.9175 599.998 1.75171 631.259 5.61045C687.557 12.5604 725.162 65.7809 712.794 120.985C701.928 169.489 654.148 201.723 605.05 193.934C576.521 189.407 554.13 174.141 535.125 153.608C523.197 140.721 512.74 126.473 501.494 112.943C500.624 111.897 498.74 111.694 497.327 111.1C497.455 112.624 497.026 114.551 497.793 115.611C512.519 135.95 527.991 155.678 547.504 171.751C573.423 193.099 602.544 203.964 636.573 198.27C695.79 188.363 733.07 128.55 715.731 71.2166C698.385 13.8593 634.507 -15.5907 579.577 8.38261C556.14 18.6113 537.774 35.2681 521.788 54.6265C509.785 69.1616 498.734 84.4813 487.259 99.4515C482.702 105.493 478.098 111.499 473.597 117.582C458.947 137.384 443.6 156.561 423.931 171.734C396.822 192.647 366.711 200.363 333.176 191.413C310.568 185.379 292.115 172.194 276.557 155.313C264.125 141.822 253.109 127.03 241.336 112.923C240.473 111.888 238.577 111.712 237.161 111.138C237.27 112.648 236.817 114.567 237.574 115.606Z" fill="url(#paint0_linear)"/>
<path d="M482.426 84.1964C468.585 65.2112 454.121 46.7289 436.405 31.1178C418.058 14.9505 397.335 3.62185 372.633 0.745893C338.254 -3.25664 309.574 9.11189 284.416 31.5377C264.196 49.562 248.507 71.4164 232.515 93.0119C229.802 96.4897 226.979 99.8875 224.395 103.459C207.923 126.225 191.396 148.96 169.694 167.215C146.307 186.885 120.001 198.051 88.7411 194.192C32.4437 187.241 -5.16096 134.021 7.20567 78.8168C18.0715 30.3131 65.8515 -1.92151 114.949 5.86834C143.479 10.3946 165.87 25.661 184.874 46.1937C196.803 59.0812 207.26 73.3287 218.506 86.859C219.375 87.9046 221.26 88.1075 222.672 88.7017C222.545 87.178 222.974 85.2506 222.207 84.1907C207.481 63.8523 192.009 44.1243 172.495 28.0513C146.576 6.70256 117.456 -4.16229 83.4263 1.53154C24.21 11.4384 -13.0689 71.2507 4.26877 128.584C21.615 185.943 85.4918 215.394 140.423 191.42C163.86 181.191 182.226 164.535 198.211 145.176C210.214 130.641 221.266 115.322 232.741 100.351C237.298 94.3099 241.902 88.3037 246.403 82.2203C261.053 62.4191 276.399 43.2415 296.068 28.0685C323.178 7.15586 353.289 -0.56067 386.824 8.39004C409.432 14.4238 427.884 27.6085 443.442 44.49C455.875 57.9804 466.891 72.7725 478.663 86.88C479.527 87.9151 481.423 88.0903 482.839 88.6646C482.73 87.1552 483.183 85.2353 482.426 84.1964Z" fill="url(#paint1_linear)"/>
<defs>
<linearGradient id="paint0_linear" x1="695.89" y1="170.484" x2="283.699" y2="29.6871" gradientUnits="userSpaceOnUse">
<stop offset="0.265" stop-color="#D3D3D3"/>
<stop offset="0.3515" stop-color="#CBD1BB"/>
<stop offset="0.5342" stop-color="#B6CD7D"/>
<stop offset="0.7227" stop-color="#9EC838"/>
</linearGradient>
<linearGradient id="paint1_linear" x1="24.1099" y1="29.3183" x2="436.3" y2="170.116" gradientUnits="userSpaceOnUse">
<stop offset="0.265" stop-color="#D3D3D3"/>
<stop offset="0.3515" stop-color="#CBD1BB"/>
<stop offset="0.5342" stop-color="#B6CD7D"/>
<stop offset="0.7227" stop-color="#9EC838"/>
</linearGradient>
</defs>
</svg>
