<svg width="100" height="100" viewBox="0 0 100 100" fill="none" xmlns="http://www.w3.org/2000/svg">
<g clip-path="url(#clip0)">
<path d="M86.4471 63.1047L83.2615 56.7342C83.9371 55.363 84.5159 53.9778 84.9917 52.5988L91.7355 50.3504V31.8948L84.9917 29.6464C84.5175 28.2674 83.9371 26.882 83.2615 25.511L86.4503 19.1344L73.4013 6.08545L67.0245 9.27405C65.6533 8.59845 64.2681 8.01805 62.8891 7.54385L60.6407 0.800049H42.1851L39.9367 7.54385C38.5577 8.01805 37.1723 8.59845 35.8013 9.27405L29.4247 6.08525L16.3755 19.1342L19.5643 25.5108C18.8887 26.882 18.3083 28.2673 17.8341 29.6462L11.0903 31.8947V50.3486L17.8341 52.5962C18.3051 53.9658 18.8777 55.3387 19.5471 56.6987L17.4727 60.4772H7.86475V92.7353H19.1551V87.8964H31.3905L36.2293 92.7353H44.9615V94.348C44.9615 97.9061 47.8551 100.8 51.4131 100.8C54.9711 100.8 57.8647 97.9061 57.8647 94.348V92.7353H69.1567C71.8241 92.7353 73.9955 90.5639 73.9955 87.8964C73.9955 86.6528 73.5105 85.5291 72.7379 84.6706C73.5119 83.8122 73.9955 82.6884 73.9955 81.4448C73.9955 80.2012 73.5105 79.0775 72.7379 78.219C73.3537 77.5355 73.7741 76.6816 73.9215 75.7302L86.4471 63.1047ZM22.8019 55.9837C21.9143 54.2794 21.1907 52.5468 20.6495 50.837L20.4015 50.0534L14.3161 48.0238V34.2198L20.4015 32.1918L20.6479 31.4068C21.1867 29.6986 21.9113 27.9658 22.7995 26.2616L23.1791 25.5308L20.2999 19.7715L30.0599 10.0114L35.8191 12.8906L36.5499 12.5118C38.2557 11.6226 39.9867 10.899 41.6951 10.3594L42.4801 10.1128L44.5113 4.02605H58.3153L60.3433 10.1114L61.1283 10.3578C62.8365 10.8966 64.5693 11.6212 66.2735 12.5094L67.0043 12.889L72.7635 10.0098L82.5235 19.7698L79.6443 25.529L80.0231 26.2598C80.9123 27.9656 81.6359 29.6966 82.1755 31.405L82.4221 32.19L88.5089 34.2212V48.0252L82.4235 50.0532L82.1755 50.8368C81.6343 52.5465 80.9105 54.2792 80.0231 55.9834L79.6443 56.7143L82.5267 62.4776L72.9959 72.0818C72.9139 71.9738 72.8265 71.8675 72.7369 71.7674C73.5109 70.909 73.9945 69.7852 73.9945 68.5416C73.9945 66.0255 72.0571 63.9769 69.6007 63.7479C76.4429 58.2641 80.4445 50.0348 80.4445 41.1222C80.4445 25.1146 67.4199 12.09 51.4123 12.09C35.4047 12.09 22.3801 25.1146 22.3801 41.1222C22.3801 49.927 26.3831 58.2097 33.1783 63.7029H19.3823L23.1995 56.748L22.8019 55.9837ZM70.7693 81.4453C70.7693 82.3353 70.0447 83.0583 69.1563 83.0583H56.2515C55.3633 83.0583 54.6387 82.3353 54.6387 81.4453C54.6387 80.5553 55.3633 79.8325 56.2515 79.8325H69.1563C70.0447 79.8322 70.7693 80.5553 70.7693 81.4453ZM47.5193 41.1227H55.3065L57.8645 38.5646V31.4452C59.6435 31.4452 61.0903 32.892 61.0903 34.671V42.0679L55.5839 47.5742H47.2419L41.7355 42.0679V34.671C41.7355 32.892 43.1823 31.4452 44.9613 31.4452V38.5646L47.5193 41.1227ZM48.1871 50.8H54.6387V57.2516H48.1871V50.8ZM57.8645 49.8549L64.3161 43.4033V34.671C64.3161 31.113 61.4225 28.2194 57.8645 28.2194H54.6387V37.229L53.9709 37.8968H48.8547L48.1869 37.229V28.2194H44.9611C41.4031 28.2194 38.5095 31.113 38.5095 34.671V43.4033L44.9611 49.8549V57.2516H41.0675L40.9659 57.3532C35.4593 53.7998 32.0579 47.708 32.0579 41.1227C32.0579 30.4496 40.7397 21.7678 51.4127 21.7678C62.0857 21.7678 70.7675 30.4496 70.7675 41.1227C70.7675 47.66 67.5015 53.647 62.0353 57.2516H57.8643V49.8549H57.8645ZM73.9935 41.1227C73.9935 28.6707 63.8649 18.542 51.4129 18.542C38.9609 18.542 28.8323 28.6707 28.8323 41.1227C28.8323 48.5728 32.5385 55.5094 38.6175 59.7016L36.2951 62.0243C29.5969 57.1729 25.6063 49.4085 25.6063 41.1227C25.6063 26.8941 37.1841 15.3162 51.4127 15.3162C65.6413 15.3162 77.2191 26.8941 77.2191 41.1227C77.2191 49.0935 73.6161 56.4484 67.4645 61.324C67.2803 60.1805 66.6967 59.1802 65.8579 58.4534C70.9985 54.1856 73.9935 47.9019 73.9935 41.1227ZM69.1563 66.929C70.0447 66.929 70.7693 67.652 70.7693 68.542C70.7693 69.432 70.0447 70.1551 69.1563 70.1551H56.2515C55.3633 70.1551 54.6387 69.432 54.6387 68.542C54.6387 67.652 55.3633 66.929 56.2515 66.929H69.1563ZM56.2515 76.6065C55.3633 76.6065 54.6387 75.8834 54.6387 74.9936C54.6387 74.1036 55.3633 73.3807 56.2515 73.3807H69.1563C70.0447 73.3807 70.7693 74.1036 70.7693 74.9936C70.7693 75.8836 70.0447 76.6065 69.1563 76.6065H56.2515ZM15.9289 89.5097H11.0903V63.7032H15.9291V89.5097H15.9289ZM37.5645 89.5097L32.7257 84.6709H19.1547V66.9289H35.9515L42.4031 60.4772H62.7031C63.5915 60.4772 64.3161 61.2002 64.3161 62.0902C64.3161 62.9802 63.5915 63.7032 62.7031 63.7032H45.9063L38.9821 70.6274L41.2627 72.9081L44.9611 69.2096V89.5097H37.5645ZM51.4129 97.5742C49.6339 97.5742 48.1871 96.1274 48.1871 94.3484V66.929H51.7099C51.5287 67.4354 51.4129 67.9743 51.4129 68.542C51.4129 69.7856 51.8979 70.9094 52.6705 71.7678C51.8963 72.6263 51.4129 73.75 51.4129 74.9936C51.4129 76.2372 51.8979 77.361 52.6705 78.2194C51.8963 79.0779 51.4129 80.2017 51.4129 81.4453C51.4129 82.6889 51.8979 83.8127 52.6705 84.6711C51.8963 85.5294 51.4129 86.6533 51.4129 87.8969C51.4129 89.9965 52.7659 91.7709 54.6387 92.4387V94.3484C54.6387 96.1274 53.1919 97.5742 51.4129 97.5742ZM69.1563 89.5097H56.2515C55.3633 89.5097 54.6387 88.7867 54.6387 87.8967C54.6387 87.0067 55.3633 86.2837 56.2515 86.2837H69.1563C70.0447 86.2837 70.7693 87.0067 70.7693 87.8967C70.7693 88.7867 70.0447 89.5097 69.1563 89.5097Z" fill="#666666"/>
</g>
<defs>
<clipPath id="clip0">
<rect width="100" height="100" fill="white"/>
</clipPath>
</defs>
</svg>
