<svg width="105" height="102" viewBox="0 0 105 102" fill="none" xmlns="http://www.w3.org/2000/svg">
<path d="M97.0198 74.4804V72.0697H9.99611V74.4804H18.0514V80.676L13.3526 85.375C12.7887 84.9429 12.0922 84.6759 11.3287 84.6759C9.48218 84.6759 7.98019 86.1774 7.98019 88.0236C7.98019 89.8697 9.48218 91.3712 11.3287 91.3712C13.1748 91.3712 14.6764 89.8697 14.6764 88.0236C14.6764 87.2309 14.3881 86.5117 13.9262 85.9377L18.8551 81.0089V74.4806H26.0872V82.7518L13.7911 95.0479C13.2222 94.6016 12.5151 94.3244 11.7374 94.3244C9.8909 94.3244 8.38891 95.8264 8.38891 97.6729C8.38891 99.519 9.8909 101.021 11.7374 101.021C13.584 101.021 15.0859 99.519 15.0859 97.6729C15.0859 96.8936 14.8074 96.185 14.3598 95.6157L26.8909 83.0847V74.4808H34.1623V85.3635L24.4299 95.0959C23.852 94.6215 23.1225 94.3246 22.3182 94.3246C20.4717 94.3246 18.9697 95.8266 18.9697 97.6731C18.9697 99.5192 20.4717 101.021 22.3182 101.021C24.1643 101.021 25.6659 99.5192 25.6659 97.6731C25.6659 96.9213 25.4077 96.2338 24.9879 95.6742L34.9658 85.6963V74.4808H42.1979V87.9415L34.9748 95.1654C34.385 94.6486 33.6223 94.3246 32.7786 94.3246C30.9325 94.3246 29.431 95.8266 29.431 97.6731C29.431 99.5192 30.9325 101.021 32.7786 101.021C34.6252 101.021 36.1272 99.5192 36.1272 97.6731C36.1272 96.96 35.8995 96.3017 35.5181 95.7583L43.0014 88.2744V74.481H50.2335V94.3654C48.5777 94.5664 47.2861 95.9644 47.2861 97.6731C47.2861 99.5192 48.7885 101.021 50.6352 101.021C52.4809 101.021 53.9829 99.5192 53.9829 97.6731C53.9829 95.9642 52.6919 94.5661 51.037 94.3654V74.481H58.269V88.2744L65.7523 95.7581C65.3709 96.3015 65.1435 96.9602 65.1435 97.6733C65.1435 99.5194 66.6455 101.021 68.4912 101.021C70.3369 101.021 71.8389 99.5194 71.8389 97.6733C71.8389 95.8268 70.3369 94.3248 68.4912 94.3248C67.6483 94.3248 66.8856 94.6488 66.2962 95.1652L59.0727 87.9417V74.481H66.3048V85.6965L76.2827 95.674C75.8621 96.2339 75.6039 96.9209 75.6039 97.6731C75.6039 99.5192 77.1067 101.021 78.9532 101.021C80.7989 101.021 82.3009 99.5192 82.3009 97.6731C82.3009 95.8266 80.7989 94.3246 78.9532 94.3246C78.1489 94.3246 77.419 94.6215 76.8407 95.0959L67.1083 85.3635V74.4808H74.3798V83.0847L86.9113 95.6166C86.4632 96.1859 86.1855 96.894 86.1855 97.6729C86.1855 99.519 87.6875 101.021 89.5332 101.021C91.3789 101.021 92.8809 99.519 92.8809 97.6729C92.8809 95.8264 91.3789 94.3244 89.5332 94.3244C88.7555 94.3244 88.0484 94.6016 87.4795 95.0487L75.1835 82.7518V74.4806H82.4156V81.0089L87.3438 85.9377C86.8824 86.5117 86.5936 87.2309 86.5936 88.0236C86.5936 89.8697 88.0964 91.3712 89.9429 91.3712C91.7886 91.3712 93.2906 89.8697 93.2906 88.0236C93.2906 86.1774 91.7886 84.6759 89.9429 84.6759C89.1786 84.6759 88.4818 84.9431 87.9176 85.3754L83.2195 80.676V74.4804H97.0198ZM11.3287 89.764C10.3685 89.764 9.58739 88.9831 9.58739 88.0233C9.58739 87.0636 10.3687 86.2828 11.3287 86.2828C12.2885 86.2828 13.0692 87.0636 13.0692 88.0233C13.0692 88.9831 12.2885 89.764 11.3287 89.764ZM11.7374 99.4132C10.7773 99.4132 9.99611 98.6322 9.99611 97.6727C9.99611 96.7125 10.7775 95.9314 11.7374 95.9314C12.6976 95.9314 13.4787 96.7125 13.4787 97.6727C13.479 98.6322 12.6976 99.4132 11.7374 99.4132ZM22.3182 99.4132C21.3581 99.4132 20.5769 98.6322 20.5769 97.6727C20.5769 96.7125 21.3583 95.9314 22.3182 95.9314C23.278 95.9314 24.0587 96.7125 24.0587 97.6727C24.0587 98.6322 23.2778 99.4132 22.3182 99.4132ZM32.7789 99.4132C31.8191 99.4132 31.0381 98.6322 31.0381 97.6727C31.0381 96.7125 31.8191 95.9314 32.7789 95.9314C33.739 95.9314 34.5202 96.7125 34.5202 97.6727C34.5202 98.6322 33.7388 99.4132 32.7789 99.4132ZM52.3761 97.6727C52.3761 98.6324 51.5954 99.4132 50.6356 99.4132C49.675 99.4132 48.8935 98.6322 48.8935 97.6727C48.8935 96.7125 49.675 95.9314 50.6356 95.9314C51.5952 95.9314 52.3761 96.7125 52.3761 97.6727ZM68.4914 95.9314C69.4511 95.9314 70.2319 96.7125 70.2319 97.6727C70.2319 98.6324 69.4511 99.4132 68.4914 99.4132C67.5316 99.4132 66.7509 98.6322 66.7509 97.6727C66.7509 96.7125 67.5316 95.9314 68.4914 95.9314ZM78.9536 95.9314C79.9134 95.9314 80.6941 96.7125 80.6941 97.6727C80.6941 98.6324 79.9134 99.4132 78.9536 99.4132C77.993 99.4132 77.2115 98.6322 77.2115 97.6727C77.2115 96.7125 77.993 95.9314 78.9536 95.9314ZM89.5334 95.9314C90.4932 95.9314 91.2739 96.7125 91.2739 97.6727C91.2739 98.6324 90.4932 99.4132 89.5334 99.4132C88.5736 99.4132 87.7929 98.6322 87.7929 97.6727C87.7929 96.7125 88.5736 95.9314 89.5334 95.9314ZM89.9431 86.2828C90.9029 86.2828 91.6836 87.0636 91.6836 88.0233C91.6836 88.9831 90.9027 89.764 89.9431 89.764C88.9826 89.764 88.201 88.9831 88.201 88.0233C88.2008 87.0638 88.9826 86.2828 89.9431 86.2828Z" fill="#666666"/>
<path d="M75.9736 44.7656H29.0265C28.3166 44.7656 27.7389 45.3433 27.7389 46.0533C27.7389 46.7633 28.3164 47.341 29.0265 47.341H75.9736C76.6834 47.341 77.2611 46.7633 77.2611 46.0533C77.2611 45.3433 76.6834 44.7656 75.9736 44.7656Z" fill="#666666"/>
<path d="M75.9734 51.0251H58.7596C58.0496 51.0251 57.4719 51.6028 57.4719 52.3128C57.4719 53.0228 58.0496 53.6005 58.7596 53.6005H75.9734C76.6834 53.6005 77.2611 53.0228 77.2611 52.3128C77.2611 51.6028 76.6834 51.0251 75.9734 51.0251Z" fill="#666666"/>
<path d="M46.2404 51.0251H29.0265C28.3166 51.0251 27.7389 51.6028 27.7389 52.3128C27.7389 53.0228 28.3164 53.6005 29.0265 53.6005H46.2404C46.9504 53.6005 47.5281 53.0228 47.5281 52.3128C47.5281 51.6028 46.9506 51.0251 46.2404 51.0251Z" fill="#666666"/>
<path d="M75.9734 38.506H58.7596C58.0496 38.506 57.4719 39.0837 57.4719 39.7937C57.4719 40.5036 58.0496 41.0814 58.7596 41.0814H75.9734C76.6834 41.0814 77.2611 40.5036 77.2611 39.7937C77.2611 39.0837 76.6834 38.506 75.9734 38.506Z" fill="#666666"/>
<path d="M29.0265 41.0814H46.2404C46.9504 41.0814 47.5281 40.5036 47.5281 39.7937C47.5281 39.0837 46.9506 38.506 46.2404 38.506H29.0265C28.3166 38.506 27.7389 39.0837 27.7389 39.7937C27.7389 40.5036 28.3166 41.0814 29.0265 41.0814Z" fill="#666666"/>
<path d="M75.9736 32.2465H29.0265C28.3166 32.2465 27.7389 32.8242 27.7389 33.5341C27.7389 34.2441 28.3164 34.8218 29.0265 34.8218H75.9736C76.6834 34.8218 77.2611 34.2441 77.2611 33.5341C77.2611 32.8242 76.6834 32.2465 75.9736 32.2465Z" fill="#666666"/>
<path d="M89.403 41.4263C87.628 39.6512 86.6504 37.2905 86.6504 34.7795V26.6876C86.6504 21.9714 83.1136 18.0724 78.4235 17.6182L77.8155 17.5593V20.138L78.3054 20.1954C81.5946 20.5814 84.0751 23.3725 84.0751 26.6876V34.7795C84.0751 37.4948 84.9554 40.0486 86.6213 42.165L86.7564 42.3365L86.6213 42.5079C84.9554 44.6243 84.0751 47.1781 84.0751 49.8934V57.9854C84.0751 61.3004 81.5948 64.0916 78.3054 64.4775L77.8155 64.5349V67.1136L78.4235 67.0547C83.1136 66.6005 86.6504 62.7013 86.6504 57.9854V49.8938C86.6504 47.3828 87.6278 45.0222 89.4028 43.2472L90.3135 42.3369L89.403 41.4263Z" fill="#666666"/>
<path d="M18.3496 26.6883V34.7803C18.3496 37.2913 17.372 39.6519 15.597 41.4269L14.6865 42.3372L15.597 43.2476C17.372 45.0227 18.3496 47.3834 18.3496 49.8944V57.9863C18.3496 62.7025 21.8863 66.6013 26.5765 67.0557L27.1843 67.1146V64.5359L26.6946 64.4785C23.4054 64.0925 20.9247 61.3014 20.9247 57.9863V49.8944C20.9247 47.1789 20.0443 44.6249 18.3787 42.5089L18.2437 42.3374L18.3787 42.166C20.0443 40.05 20.9247 37.496 20.9247 34.7805V26.6885C20.9247 23.3734 23.4051 20.5823 26.6946 20.1964L27.1843 20.139V17.5603L26.5765 17.6192C21.8863 18.0732 18.3496 21.9721 18.3496 26.6883Z" fill="#666666"/>
<path d="M4.81994 74.3678H100.18V3.21413C100.18 1.08419 98.4471 -0.648926 96.317 -0.648926H8.68279C6.55265 -0.648926 4.81974 1.08398 4.81974 3.21413V74.3678H4.81994ZM7.11805 3.21413C7.11805 2.35219 7.82106 1.64918 8.683 1.64918H96.3174C97.1793 1.64918 97.8823 2.35219 97.8823 3.21413V11.0387H7.11805V3.21413ZM7.11805 14.1686H97.8821V72.0697H7.11805V14.1686Z" fill="#666666"/>
<path d="M11.8127 7.63177C12.5239 7.63177 13.1004 7.05525 13.1004 6.34408C13.1004 5.63291 12.5239 5.0564 11.8127 5.0564C11.1015 5.0564 10.525 5.63291 10.525 6.34408C10.525 7.05525 11.1015 7.63177 11.8127 7.63177Z" fill="#666666"/>
<path d="M18.1513 5.0564H17.9935C17.327 5.0564 16.7848 5.59862 16.7848 6.26513V6.42283C16.7848 7.08934 17.327 7.63156 17.9935 7.63156H18.1513C18.8178 7.63156 19.36 7.08934 19.36 6.42283V6.26513C19.36 5.59862 18.8178 5.0564 18.1513 5.0564Z" fill="#666666"/>
<path d="M24.6063 5.0564H24.0573C23.4987 5.0564 23.0442 5.51106 23.0442 6.06969V6.61868C23.0442 7.17731 23.4987 7.63197 24.0573 7.63197H24.3128C25.0333 7.63197 25.6194 7.04566 25.6194 6.32542V6.06989C25.6196 5.51106 25.1651 5.0564 24.6063 5.0564Z" fill="#666666"/>
</svg>
