<svg width="143" height="57" viewBox="0 0 143 57" fill="none" xmlns="http://www.w3.org/2000/svg">
<g filter="url(#filter0_d)">
<path fill-rule="evenodd" clip-rule="evenodd" d="M138.296 35L139 35L139 2.00001L4 2L4 35L89.71 35C91.4608 34.8116 92.8919 33.3853 93.1575 31.6251C94.7057 21.3652 103.154 13.5222 113.343 13.5222C123.526 13.5222 131.97 21.3559 133.525 31.6068C133.806 33.4553 135.377 34.9406 137.247 34.9707C137.609 34.9765 137.958 34.9863 138.296 35Z" fill="white"/>
</g>
<g filter="url(#filter1_d)">
<rect width="34.0222" height="33.0222" rx="16.5111" transform="matrix(-1 8.74228e-08 8.74228e-08 1 131 18.5222)" fill="#888888"/>
</g>
<path d="M108.13 32.3037L108.781 31.6525C108.868 31.5656 108.968 31.5222 109.081 31.5222C109.194 31.5222 109.294 31.5656 109.38 31.6525L114.5 36.7718L119.619 31.6527C119.706 31.5657 119.806 31.5224 119.919 31.5224C120.032 31.5224 120.132 31.5657 120.219 31.6527L120.87 32.3039C120.957 32.3907 121 32.4906 121 32.6035C121 32.7164 120.957 32.8163 120.87 32.9031L114.8 38.9734C114.713 39.0602 114.613 39.1036 114.5 39.1036C114.387 39.1036 114.287 39.0602 114.201 38.9734L108.13 32.9031C108.043 32.8162 108 32.7163 108 32.6035C108 32.4906 108.043 32.3907 108.13 32.3037Z" fill="white"/>
<defs>
<filter id="filter0_d" x="0.711111" y="0.355556" width="141.578" height="39.5778" filterUnits="userSpaceOnUse" color-interpolation-filters="sRGB">
<feFlood flood-opacity="0" result="BackgroundImageFix"/>
<feColorMatrix in="SourceAlpha" type="matrix" values="0 0 0 0 0 0 0 0 0 0 0 0 0 0 0 0 0 0 127 0"/>
<feOffset dy="1.64444"/>
<feGaussianBlur stdDeviation="1.64444"/>
<feColorMatrix type="matrix" values="0 0 0 0 0 0 0 0 0 0 0 0 0 0 0 0 0 0 0.24 0"/>
<feBlend mode="multiply" in2="BackgroundImageFix" result="effect1_dropShadow"/>
<feBlend mode="normal" in="SourceGraphic" in2="effect1_dropShadow" result="shape"/>
</filter>
<filter id="filter1_d" x="93.6889" y="16.8778" width="40.6" height="39.6" filterUnits="userSpaceOnUse" color-interpolation-filters="sRGB">
<feFlood flood-opacity="0" result="BackgroundImageFix"/>
<feColorMatrix in="SourceAlpha" type="matrix" values="0 0 0 0 0 0 0 0 0 0 0 0 0 0 0 0 0 0 127 0"/>
<feOffset dy="1.64444"/>
<feGaussianBlur stdDeviation="1.64444"/>
<feColorMatrix type="matrix" values="0 0 0 0 0.329412 0 0 0 0 0.431373 0 0 0 0 0.478431 0 0 0 0.24 0"/>
<feBlend mode="multiply" in2="BackgroundImageFix" result="effect1_dropShadow"/>
<feBlend mode="normal" in="SourceGraphic" in2="effect1_dropShadow" result="shape"/>
</filter>
</defs>
</svg>
