<svg id="Layer_1" data-name="Layer 1" xmlns="http://www.w3.org/2000/svg" viewBox="0 0 774.45 107.61"><defs><style>.cls-1{fill:#fff;}</style></defs><title>lines</title><path class="cls-1" d="M213.5,97.53c-31.84,0-44.73-23.13-56.1-43.54-9.71-17.42-18.08-32.46-35.9-32.46-10.1,0-22.44,11.89-33.33,22.37C79.1,52.64,71.94,59.53,66.5,59.53c-5.92,0-10.94-2.64-15.79-5.19s-9.13-4.81-14.21-4.81c-5.5,0-10.46,4.14-14.83,7.79-3.83,3.19-7.45,6.21-11.17,6.21C2.44,63.53,0,57.71-.08,57.47l3.15-1.28c.07.16,1.74,3.94,7.43,3.94,2.49,0,5.65-2.63,9-5.43,4.82-4,10.27-8.57,17-8.57,5.92,0,10.94,2.64,15.79,5.2s9.13,4.8,14.21,4.8c4.07,0,11.82-7.46,19.31-14.68C97.16,30.52,110,18.13,121.5,18.13c19.81,0,29.07,16.61,38.87,34.2,11.45,20.55,23.29,41.8,53.13,41.8,23.26,0,37.66-20,49.22-36.07,7.91-11,14.74-20.48,22.69-20.92H762.5v3.4h-477c-6.23.35-12.62,9.23-20,19.52C253.46,76.75,238.51,97.53,213.5,97.53Z"/></svg>