<svg id="Layer_1" data-name="Layer 1" xmlns="http://www.w3.org/2000/svg" viewBox="0 0 684 124"><defs><style>.cls-1{fill:#fff;}</style></defs><title>lines</title><path class="cls-1" d="M553.55,104.21c-23.92,0-39.07-22.36-51.27-40.39-7.49-11.06-14-20.62-19.78-20.62H9.5V39.8h473c7.63,0,14.24,9.76,22.6,22.12,11.75,17.35,26.33,38.89,48.48,38.89h.88c19.75-.51,33.8-21.68,47.39-42.16C614.26,40,626,22.3,641.45,21.8c31.63-1,42.06,15.11,42.49,15.8l-2.88,1.8c-.1-.14-10-15.16-39.51-14.2-13.71.44-25,17.39-36.86,35.33-14.07,21.2-28.62,43.12-50.15,43.67Z"/></svg>