<svg width="29" height="29" viewBox="0 0 29 29" fill="none" xmlns="http://www.w3.org/2000/svg">
<path d="M26.3767 0H2.62329C1.1745 0 0 1.1745 0 2.62329V26.3766C0 27.8255 1.1745 29 2.62329 29H26.3766C27.8255 29 29 27.8255 29 26.3766V2.62329C29 1.1745 27.8255 0 26.3767 0ZM8.97383 25.0405C8.97383 25.4622 8.63206 25.8039 8.21042 25.8039H4.96075C4.53911 25.8039 4.19733 25.4622 4.19733 25.0405V11.418C4.19733 10.9964 4.53911 10.6546 4.96075 10.6546H8.21042C8.63206 10.6546 8.97383 10.9964 8.97383 11.418V25.0405ZM6.58558 9.37049C4.88058 9.37049 3.49837 7.98829 3.49837 6.28328C3.49837 4.57828 4.88058 3.19607 6.58558 3.19607C8.29058 3.19607 9.67279 4.57828 9.67279 6.28328C9.67279 7.98829 8.29066 9.37049 6.58558 9.37049ZM25.9565 25.102C25.9565 25.4896 25.6422 25.8039 25.2546 25.8039H21.7675C21.3798 25.8039 21.0655 25.4896 21.0655 25.102V18.7123C21.0655 17.7591 21.3451 14.5353 18.5745 14.5353C16.4254 14.5353 15.9895 16.7419 15.9019 17.7321V25.102C15.9019 25.4896 15.5877 25.8039 15.2 25.8039H11.8274C11.4397 25.8039 11.1254 25.4896 11.1254 25.102V11.3565C11.1254 10.9689 11.4397 10.6546 11.8274 10.6546H15.2C15.5877 10.6546 15.9019 10.9689 15.9019 11.3565V12.545C16.6988 11.3491 17.8831 10.426 20.4047 10.426C25.9885 10.426 25.9565 15.6427 25.9565 18.509V25.102Z" fill="#0077B7"/>
</svg>
