<svg width="25" height="42" viewBox="0 0 25 42" fill="none" xmlns="http://www.w3.org/2000/svg">
<path d="M11.5128 13.8882C9.80727 13.8912 8.68935 14.1562 7.75708 14.6855C10.3476 15.5412 12.2394 18.2302 12.2394 21.4215C12.2394 24.5589 10.4102 27.2142 7.88684 28.1148C8.7153 28.6074 9.61496 28.9862 11.226 28.951C14.4493 28.8806 23.7647 22.6387 24.9418 20.7163C24.0847 19.4654 16.7171 13.8785 11.5128 13.8882Z" fill="#D1DE84"/>
<path fill-rule="evenodd" clip-rule="evenodd" d="M10.6751 27.5593C10.4083 27.4028 10.1142 27.2082 9.79874 26.9844C8.74536 27.8969 7.42914 28.4449 5.99713 28.4449C4.59707 28.4449 3.31013 27.9209 2.26807 27.0458C3.39131 29.636 5.70368 32.3017 7.97945 34.0565C12.3746 37.4454 19.7795 33.224 19.7795 33.224C17.3614 33.001 12.5729 28.6695 10.6751 27.5593Z" fill="#F9CB74"/>
<path fill-rule="evenodd" clip-rule="evenodd" d="M9.8125 26.9717C8.75646 27.8917 7.43557 28.4449 5.99691 28.4449C3.87352 28.4449 1.99968 27.2501 0.872437 25.428C1.17188 27.4074 2.30577 29.9848 4.52499 33.1679C9.90633 40.8891 9.41258 42 9.41258 42C10.8433 39.1119 10.7461 31.78 10.3508 29.225C10.261 28.6441 10.0813 27.8468 9.8125 26.9717Z" fill="#F9CB74"/>
<path fill-rule="evenodd" clip-rule="evenodd" d="M0.911183 17.3558C0.949112 17.2966 0.988365 17.239 1.02762 17.1806C1.14807 17.0032 1.27517 16.8317 1.40959 16.667C1.44752 16.6221 1.48212 16.5742 1.52072 16.5293C1.69306 16.3302 1.87472 16.1415 2.06637 15.9663C2.09964 15.9357 2.13557 15.9095 2.16818 15.8803C2.33121 15.738 2.50023 15.6048 2.6759 15.4805C2.73579 15.4386 2.79568 15.3974 2.85623 15.3577C3.0359 15.2394 3.22222 15.1301 3.4132 15.0321C3.45179 15.0126 3.48706 14.9894 3.52632 14.9707C3.75456 14.8599 3.99012 14.7663 4.23168 14.687C4.2929 14.6668 4.35612 14.651 4.41734 14.6331C4.60698 14.5777 4.79929 14.5313 4.9956 14.4961C5.06813 14.4826 5.14066 14.4691 5.21452 14.4579C5.47138 14.422 5.7309 14.3973 5.9964 14.3973C6.2659 14.3973 6.53007 14.4227 6.79026 14.4601C6.85281 14.4699 6.91403 14.4804 6.97525 14.4923C7.20416 14.5328 7.42907 14.5859 7.64933 14.654C7.67462 14.6623 7.70123 14.669 7.72652 14.6765C8.26219 14.8502 8.76525 15.1032 9.23106 15.4221C9.63231 14.294 9.89117 13.2332 10.0043 12.5123C10.3996 10.0097 10.4974 2.82825 9.0667 0C9.0667 0 9.56044 1.08698 4.17844 8.65018C1.17668 12.8671 0.158582 16.0008 0.51126 18.0617C0.631703 17.8162 0.76745 17.5826 0.911183 17.3558Z" fill="#F9CB74"/>
<path fill-rule="evenodd" clip-rule="evenodd" d="M5.9971 14.3973C7.01587 14.3973 7.97476 14.6772 8.82452 15.1638C9.38015 14.7446 9.89253 14.395 10.3304 14.145C12.2275 13.0565 17.0166 8.81264 19.4355 8.59554C19.4355 8.59554 12.0299 4.46172 7.63672 7.77881C4.69219 10.0029 1.68644 13.7168 1.27454 16.8347C2.41908 15.3443 4.10794 14.3973 5.9971 14.3973Z" fill="#F9CB74"/>
<path fill-rule="evenodd" clip-rule="evenodd" d="M5.99678 14.3973C7.01556 14.3973 7.97445 14.6772 8.8242 15.1638C9.04912 14.9947 9.26338 14.8419 9.47299 14.6967C9.73717 13.8485 9.91683 13.076 10.0053 12.5123C10.1957 11.3078 10.3148 9.01551 10.2296 6.64915C9.30864 6.83182 8.42361 7.18441 7.63574 7.77881C4.6912 10.0029 1.68546 13.7168 1.27356 16.8347C2.41877 15.3443 4.10762 14.3973 5.99678 14.3973Z" fill="#F6B131"/>
<path fill-rule="evenodd" clip-rule="evenodd" d="M10.7456 12.1859C8.45718 12.3064 6.77897 13.2085 5.57654 14.4212C5.71628 14.41 5.85535 14.3973 5.99708 14.3973C9.44535 14.3973 12.2402 17.5414 12.2402 21.4215C12.2402 21.4492 12.2368 21.4754 12.2362 21.5031C12.2661 21.4799 12.2961 21.4574 12.326 21.4334C17.3121 17.5175 21.3612 14.4706 23.6816 14.2528C20.6432 13.6509 17.9542 11.8056 10.7456 12.1859Z" fill="#C9C4C0"/>
<path fill-rule="evenodd" clip-rule="evenodd" d="M12.6707 20.1159C12.4537 19.9415 12.2388 19.7805 12.0265 19.6286C12.1609 20.202 12.2395 20.8001 12.2395 21.4222C12.2395 24.8479 10.0588 27.6963 7.17419 28.3169C8.21826 29.0056 9.50853 29.4728 11.0909 29.5581C18.2989 29.9474 20.9885 28.0639 24.0262 27.4485C21.7059 27.2254 17.6567 24.1157 12.6707 20.1159Z" fill="#C9C4C0"/>
<path d="M2.9853 22.242H3.87232C4.01872 22.772 4.2596 23.1889 4.59764 23.4891C4.93634 23.7871 5.33294 23.9383 5.79208 23.9383C6.06757 23.9383 6.29116 23.8709 6.45686 23.7399C6.62388 23.6067 6.70705 23.433 6.70705 23.2211C6.70705 22.8895 6.34573 22.6118 5.62241 22.3872C5.38551 22.3161 5.20052 22.2584 5.06677 22.2098C4.63424 22.063 4.2982 21.9365 4.0633 21.834C3.82641 21.7307 3.65939 21.6326 3.55292 21.5442C3.30604 21.3339 3.12237 21.1033 3.00526 20.8518C2.89014 20.598 2.82959 20.3113 2.82959 19.9894C2.82959 19.2969 3.0585 18.7377 3.51631 18.3103C3.9708 17.8873 4.57368 17.6747 5.32495 17.6747C5.70691 17.6747 6.06225 17.7159 6.39231 17.7975C6.72236 17.882 7.0431 18.0116 7.35119 18.1867L7.51955 17.8379H8.39791V20.2349H7.36516C7.26601 19.7453 7.0737 19.3823 6.79289 19.1435C6.51607 18.9054 6.14144 18.7856 5.67364 18.7856C5.40015 18.7856 5.1739 18.8552 4.99623 18.996C4.81923 19.1367 4.73072 19.3081 4.73072 19.5118C4.73072 19.8209 5.07209 20.0515 5.75016 20.211C5.91785 20.2506 6.04562 20.2836 6.14077 20.306C7.08502 20.5508 7.74779 20.854 8.12708 21.2186C8.50771 21.5809 8.70002 22.0765 8.70002 22.7031C8.70002 23.3978 8.46513 23.9533 7.99733 24.3688C7.52753 24.7805 6.89604 24.9879 6.10351 24.9879C5.74018 24.9879 5.38883 24.9399 5.05213 24.8479C4.71808 24.758 4.38337 24.6173 4.05531 24.4309L3.82508 24.8112H2.98397V22.242H2.9853Z" fill="#7B7672"/>
<path d="M18.5663 16.0966C16.3797 14.7948 13.7639 13.9803 11.5121 13.8882C9.80728 13.8179 8.68935 14.1562 7.75708 14.6855C10.3469 15.5412 12.2388 18.2302 12.2388 21.4215C12.2388 21.4492 12.2354 21.4754 12.2348 21.5031C12.2647 21.4799 12.2947 21.4574 12.3246 21.4335C14.8379 19.4586 17.1643 17.6725 19.1007 16.3916C18.9137 16.2786 18.7553 16.2089 18.5663 16.0966Z" fill="#A7AD6E"/>
<path fill-rule="evenodd" clip-rule="evenodd" d="M5.99703 14.3973C6.23659 14.3973 6.47348 14.416 6.70572 14.4459C6.76428 14.4542 6.82017 14.4661 6.87807 14.4759C7.0584 14.5043 7.23673 14.5402 7.4124 14.5859C7.46231 14.6001 7.51222 14.6151 7.56213 14.6301C7.75045 14.6847 7.93477 14.7484 8.11577 14.8225C8.14638 14.8352 8.17698 14.8464 8.20693 14.8599C8.41587 14.949 8.61949 15.0493 8.81646 15.1616C8.81912 15.1631 8.82179 15.1638 8.82445 15.1653C9.38009 14.7461 9.89247 14.3965 10.3303 14.1465C10.9964 13.7639 12.0218 12.9914 13.173 12.1417C12.4238 12.1282 11.6199 12.141 10.7462 12.1866C8.4578 12.3071 6.77958 13.2092 5.57715 14.422C5.71622 14.4107 5.8553 14.3973 5.99703 14.3973Z" fill="#C8A05E"/>
<path fill-rule="evenodd" clip-rule="evenodd" d="M5.99703 14.3973C7.01581 14.3973 7.9747 14.6772 8.82445 15.1638C9.04937 14.9947 9.26363 14.8419 9.47324 14.6967C9.73742 13.8485 9.91708 13.076 10.0056 12.5123C10.0182 12.4344 10.0289 12.3408 10.0409 12.2547C8.10978 12.5063 6.65182 13.3365 5.57715 14.4212C5.71622 14.4107 5.85463 14.3973 5.99703 14.3973Z" fill="#C09038"/>
<path d="M9.23174 15.4229C9.40874 14.925 9.55447 14.4452 9.67557 13.9975C8.91831 14.133 8.30546 14.3763 7.75781 14.6862C8.28217 14.8592 8.77525 15.1099 9.23174 15.4229Z" fill="#B5943C"/>
<path fill-rule="evenodd" clip-rule="evenodd" d="M8.82421 15.1646C9.37985 14.7454 9.89223 14.3958 10.3301 14.1457C10.4505 14.0761 10.5956 13.9818 10.7373 13.889C9.45704 13.9361 8.5414 14.2431 7.75952 14.6862C8.13017 14.809 8.48551 14.9707 8.82421 15.1646Z" fill="#B5943C"/>
<path d="M8.82463 15.1646C9.04955 14.9954 9.26381 14.8427 9.47342 14.6975C9.54861 14.4564 9.61515 14.2236 9.67704 13.9975C8.91978 14.1323 8.30626 14.3763 7.75928 14.6862C8.12992 14.8083 8.48526 14.9707 8.82463 15.1646Z" fill="#B7882A"/>
<path fill-rule="evenodd" clip-rule="evenodd" d="M12.6707 20.1159C12.4537 19.9415 12.2388 19.7805 12.0265 19.6286C12.161 20.202 12.2395 20.8001 12.2395 21.4222C12.2395 24.5596 10.4102 27.215 7.88623 28.1155C8.71536 28.6081 9.61502 28.9517 11.226 28.9517C13.191 28.9517 16.5608 26.8833 18.7474 25.5815C18.9863 25.4393 19.1247 25.3524 19.3596 25.2057C17.4312 23.9001 15.1687 22.1199 12.6707 20.1159Z" fill="#A7AD6E"/>
<path d="M12.6705 20.1159C12.4536 19.9415 12.2386 19.7805 12.0264 19.6286C12.1608 20.202 12.2393 20.8001 12.2393 21.4222C12.2393 21.4499 12.236 21.4761 12.2353 21.5038C12.2653 21.4806 12.2952 21.4582 12.3251 21.4342C12.6659 21.1662 13.0012 20.9042 13.3326 20.6452C13.113 20.4707 12.8941 20.2948 12.6705 20.1159Z" fill="#8C8C67"/>
<path fill-rule="evenodd" clip-rule="evenodd" d="M9.8207 26.9994C9.81271 26.9941 9.80606 26.9889 9.79808 26.9836C8.7447 27.8962 7.42914 28.4442 5.99713 28.4442C4.59707 28.4442 3.31013 27.9201 2.26807 27.045C3.39131 29.6352 5.70368 32.301 7.97945 34.0558C8.76799 34.6636 9.65367 35.0237 10.5746 35.2101C10.6598 32.7928 10.5407 30.4534 10.3504 29.2235C10.2619 28.65 10.0849 27.864 9.8207 26.9994Z" fill="#F6B131"/>
<path fill-rule="evenodd" clip-rule="evenodd" d="M10.675 27.5593C10.4081 27.4028 10.114 27.2082 9.79859 26.9844C9.04133 27.6402 8.15033 28.1065 7.1748 28.3162C8.21886 29.0049 9.50914 29.472 11.0915 29.5573C11.9652 29.6045 12.7691 29.6165 13.5177 29.6038C12.3665 28.7376 11.3411 27.9486 10.675 27.5593Z" fill="#C8A05E"/>
<path fill-rule="evenodd" clip-rule="evenodd" d="M9.82056 26.9994C9.81257 26.9941 9.80592 26.9889 9.79793 26.9836C9.04067 27.6394 8.149 28.1058 7.1748 28.3154C8.05584 28.8956 9.12518 29.3043 10.3842 29.4735C10.3729 29.3904 10.3629 29.2991 10.3509 29.2235C10.2617 28.65 10.0847 27.864 9.82056 26.9994Z" fill="#C09038"/>
<path fill-rule="evenodd" clip-rule="evenodd" d="M10.6751 27.5593C10.4083 27.4028 10.1142 27.2082 9.79874 26.9844C9.22979 27.477 8.587 27.8662 7.88696 28.1163C8.71609 28.6081 9.61575 28.9517 11.2268 28.9517C11.5821 28.9517 11.9814 28.8843 12.4079 28.7691C11.7185 28.254 11.117 27.8168 10.6751 27.5593Z" fill="#B5943C"/>
<path fill-rule="evenodd" clip-rule="evenodd" d="M9.7979 26.9844C9.22963 27.4762 8.58682 27.8655 7.88745 28.1155C8.5409 28.5026 9.2416 28.796 10.2936 28.9038C10.1958 28.3708 10.0395 27.7165 9.82053 27.0001C9.81254 26.9949 9.80522 26.9896 9.7979 26.9844Z" fill="#B7882A"/>
</svg>
