<svg width="382" height="400" viewBox="0 0 382 400" fill="none" xmlns="http://www.w3.org/2000/svg">
<g opacity="0.2">
<path opacity="0.58" fill-rule="evenodd" clip-rule="evenodd" d="M36.1644 623.132C37.6887 621.005 39.2887 618.935 40.8634 616.833C45.7222 610.455 50.8669 604.313 56.3039 598.407C57.826 596.78 59.2431 595.073 60.7905 593.471C67.7475 586.333 75.1019 579.535 82.8474 573.26C84.1867 572.155 85.6311 571.213 86.9682 570.162C93.5573 565.044 100.384 560.268 107.473 555.803C109.887 554.309 112.305 552.812 114.773 551.395C122.046 547.143 129.556 543.231 137.274 539.714C138.821 539.004 140.266 538.193 141.842 537.509C151.06 533.545 160.59 530.184 170.331 527.325C172.799 526.59 175.345 526.037 177.841 525.381C185.506 523.386 193.279 521.734 201.207 520.473C204.149 520 207.063 519.502 210.055 519.106C220.424 517.822 230.928 516.927 241.64 516.927C252.537 516.927 263.196 517.845 273.725 519.184C276.244 519.525 278.712 519.92 281.208 520.34C290.448 521.784 299.533 523.699 308.435 526.142C309.459 526.432 310.535 526.669 311.559 526.955C333.194 533.202 353.541 542.285 372.339 553.731C388.541 513.229 399.015 475.141 403.582 449.259C419.544 359.407 423.509 101.558 365.693 0C365.693 0 385.648 39.0342 168.203 310.584C46.929 461.989 5.78807 574.519 20.0448 648.518C24.8763 639.673 30.3637 631.297 36.1644 623.132Z" fill="#C9C9C9"/>
<path opacity="0.58" fill-rule="evenodd" clip-rule="evenodd" d="M241.638 516.927C282.806 516.927 321.533 526.983 355.873 544.465C378.323 529.423 399.036 516.849 416.705 507.871C493.344 468.787 686.844 316.41 784.564 308.612C784.564 308.612 485.361 160.173 307.853 279.291C188.891 359.144 67.4343 492.491 50.8143 604.443C97.0789 550.922 165.314 516.927 241.638 516.927Z" fill="#C9C9C9"/>
<path opacity="0.58" fill-rule="evenodd" clip-rule="evenodd" d="M241.638 516.927C282.806 516.927 321.533 526.983 355.873 544.465C364.957 538.401 373.622 532.914 382.076 527.689C392.762 497.239 400.008 469.495 403.578 449.257C411.273 405.998 416.077 323.706 412.637 238.735C375.434 245.3 339.673 257.952 307.853 279.291C188.891 359.144 67.4343 492.491 50.8143 604.444C97.0789 550.922 165.314 516.927 241.638 516.927Z" fill="#B1B1B1"/>
</g>
</svg>
