<svg width="208" height="51" viewBox="0 0 208 51" fill="none" xmlns="http://www.w3.org/2000/svg">
<path d="M189.703 16.9162C187.408 16.9198 185.904 17.2368 184.649 17.8698C188.135 18.8931 190.68 22.1091 190.68 25.9259C190.68 29.6782 188.219 32.8539 184.824 33.931C185.939 34.5201 187.149 34.9732 189.317 34.9311C193.654 34.8469 206.187 27.3817 207.771 25.0825C206.618 23.5864 196.705 16.9046 189.703 16.9162Z" fill="#D1DE84"/>
<path fill-rule="evenodd" clip-rule="evenodd" d="M188.575 33.2667C188.216 33.0795 187.821 32.8468 187.396 32.579C185.979 33.6705 184.208 34.3258 182.281 34.3258C180.398 34.3258 178.666 33.6991 177.264 32.6525C178.775 35.7503 181.886 38.9386 184.948 41.0372C190.862 45.0903 200.825 40.0416 200.825 40.0416C197.572 39.7748 191.129 34.5944 188.575 33.2667Z" fill="#F9CB74"/>
<path fill-rule="evenodd" clip-rule="evenodd" d="M187.415 32.5639C185.994 33.6642 184.217 34.3259 182.281 34.3259C179.424 34.3259 176.903 32.8969 175.386 30.7177C175.789 33.0849 177.315 36.1675 180.301 39.9745C187.541 49.2089 186.877 50.5375 186.877 50.5375C188.802 47.0834 188.671 38.3145 188.139 35.2588C188.018 34.564 187.777 33.6105 187.415 32.5639Z" fill="#F9CB74"/>
<path fill-rule="evenodd" clip-rule="evenodd" d="M175.438 21.0634C175.489 20.9926 175.542 20.9237 175.595 20.8539C175.757 20.6417 175.928 20.4366 176.109 20.2397C176.16 20.186 176.206 20.1287 176.258 20.0749C176.49 19.8368 176.735 19.6112 176.992 19.4016C177.037 19.3649 177.086 19.3336 177.129 19.2987C177.349 19.1286 177.576 18.9692 177.813 18.8206C177.893 18.7704 177.974 18.7212 178.055 18.6737C178.297 18.5323 178.548 18.4016 178.805 18.2843C178.857 18.261 178.904 18.2332 178.957 18.2109C179.264 18.0784 179.581 17.9664 179.906 17.8715C179.988 17.8474 180.073 17.8286 180.156 17.8071C180.411 17.7408 180.67 17.6853 180.934 17.6432C181.031 17.6271 181.129 17.611 181.228 17.5976C181.574 17.5546 181.923 17.525 182.28 17.525C182.643 17.525 182.998 17.5555 183.348 17.6003C183.433 17.6119 183.515 17.6244 183.597 17.6388C183.905 17.6871 184.208 17.7507 184.504 17.8321C184.538 17.842 184.574 17.85 184.608 17.859C185.329 18.0667 186.006 18.3693 186.632 18.7507C187.172 17.4015 187.521 16.1328 187.673 15.2706C188.205 12.2775 188.336 3.68867 186.411 0.306129C186.411 0.306129 187.076 1.60614 179.834 10.6516C175.795 15.695 174.426 19.4428 174.9 21.9077C175.062 21.614 175.245 21.3347 175.438 21.0634Z" fill="#F9CB74"/>
<path fill-rule="evenodd" clip-rule="evenodd" d="M182.281 17.5251C183.652 17.5251 184.942 17.8599 186.086 18.4419C186.833 17.9405 187.523 17.5224 188.112 17.2233C190.664 15.9215 197.108 10.8459 200.362 10.5863C200.362 10.5863 190.398 5.64229 184.487 9.60948C180.526 12.2695 176.481 16.7112 175.927 20.4402C177.467 18.6576 179.739 17.5251 182.281 17.5251Z" fill="#F9CB74"/>
<path fill-rule="evenodd" clip-rule="evenodd" d="M182.281 17.5251C183.652 17.5251 184.942 17.8599 186.085 18.4419C186.388 18.2395 186.676 18.0569 186.958 17.8832C187.314 16.8688 187.555 15.9448 187.675 15.2706C187.931 13.83 188.091 11.0885 187.976 8.25842C186.737 8.47688 185.546 8.89858 184.486 9.60947C180.524 12.2695 176.48 16.7112 175.926 20.4402C177.467 18.6576 179.739 17.5251 182.281 17.5251Z" fill="#F6B131"/>
<path fill-rule="evenodd" clip-rule="evenodd" d="M188.67 14.8803C185.591 15.0244 183.333 16.1033 181.715 17.5537C181.903 17.5403 182.091 17.5251 182.281 17.5251C186.921 17.5251 190.681 21.2854 190.681 25.9259C190.681 25.959 190.677 25.9904 190.676 26.0235C190.716 25.9957 190.756 25.9689 190.797 25.9402C197.505 21.2568 202.953 17.6128 206.076 17.3523C201.987 16.6324 198.369 14.4254 188.67 14.8803Z" fill="#C9C4C0"/>
<path fill-rule="evenodd" clip-rule="evenodd" d="M191.261 24.3644C190.969 24.1558 190.679 23.9633 190.394 23.7816C190.575 24.4674 190.68 25.1828 190.68 25.9268C190.68 30.0238 187.746 33.4305 183.865 34.1727C185.27 34.9964 187.006 35.5551 189.135 35.6572C198.833 36.1228 202.452 33.8701 206.539 33.1342C203.417 32.8674 197.969 29.1482 191.261 24.3644Z" fill="#C9C4C0"/>
<path d="M80.4989 19.8278C78.4495 19.8278 76.8424 20.3596 75.6793 21.4242C74.5154 22.4878 73.9344 23.9562 73.9344 25.8274C73.9344 27.6843 74.5154 29.1482 75.6749 30.2127C76.837 31.2772 78.4343 31.8073 80.4675 31.8073C82.525 31.8073 84.1366 31.2772 85.2987 30.219C86.4618 29.1598 87.0437 27.6968 87.0437 25.8274C87.0437 23.9562 86.4618 22.4869 85.3005 21.4242C84.142 20.3587 82.5429 19.8278 80.4989 19.8278ZM80.4899 30.0891C79.7307 30.0891 79.1801 29.7516 78.8345 29.0783C78.4871 28.4015 78.3143 27.3065 78.3143 25.7943C78.3143 24.308 78.4871 23.2274 78.8372 22.5559C79.1854 21.8844 79.7414 21.5468 80.5034 21.5468C81.2626 21.5468 81.8132 21.888 82.1588 22.5666C82.5062 23.2506 82.679 24.3403 82.679 25.8435C82.679 27.3351 82.5062 28.4158 82.1588 29.0837C81.8141 29.7552 81.2581 30.0891 80.4899 30.0891ZM66.735 19.8278C65.3535 19.8278 64.2398 20.1779 63.4008 20.8736C62.5574 21.571 62.1375 22.4878 62.1375 23.6222C62.1375 24.1504 62.2477 24.6187 62.4634 25.0323C62.6783 25.446 63.0158 25.8238 63.4707 26.1667C63.6623 26.3136 63.9738 26.4729 64.4108 26.6439C64.8414 26.8123 65.4601 27.0164 66.2587 27.2581C66.5067 27.3369 66.8443 27.4327 67.2821 27.5482C68.6152 27.9153 69.2813 28.3701 69.2813 28.9136C69.2813 29.2637 69.1264 29.5484 68.8202 29.7633C68.514 29.9799 68.1049 30.0883 67.5945 30.0883C66.7502 30.0883 66.0188 29.8456 65.3947 29.3523C64.7716 28.8608 64.3275 28.1794 64.058 27.3101H62.4231V31.5217H63.9729L64.3937 30.8949C65.0044 31.2011 65.6168 31.4321 66.2363 31.5808C66.855 31.733 67.5005 31.8082 68.1693 31.8082C69.6341 31.8082 70.7953 31.4688 71.6602 30.792C72.5206 30.1133 72.954 29.2064 72.954 28.0639C72.954 27.037 72.6012 26.2276 71.9002 25.6331C71.1982 25.0368 69.9761 24.5399 68.2356 24.137C68.0637 24.0994 67.8255 24.0484 67.5184 23.9803C66.2677 23.7243 65.6418 23.3438 65.6418 22.8388C65.6418 22.5048 65.803 22.2228 66.1298 21.9945C66.4548 21.7635 66.8711 21.648 67.3761 21.648C68.2383 21.648 68.9259 21.8459 69.4407 22.2362C69.9564 22.6284 70.3083 23.2229 70.4936 24.0224H72.398V20.0964H70.7756L70.4685 20.6676C69.9 20.382 69.3091 20.1716 68.7039 20.0311C68.0941 19.8959 67.4379 19.8278 66.735 19.8278ZM165.908 20.1654H154.044V21.7653H154.596C154.995 21.7653 155.25 21.8181 155.36 21.9175C155.469 22.0187 155.525 22.2882 155.525 22.7269V28.9798C155.525 29.3953 155.468 29.6513 155.35 29.7373C155.23 29.825 154.985 29.8698 154.61 29.8698H154.045V31.4697H165.972V26.8024H164.119C164.086 27.3897 164.019 27.8777 163.916 28.2663C163.815 28.6548 163.676 28.9816 163.501 29.2529C163.342 29.4767 163.113 29.6379 162.822 29.7301C162.527 29.8232 161.993 29.8698 161.219 29.8698H159.215V26.3476H159.668C160.191 26.3476 160.545 26.4667 160.727 26.7012C160.912 26.9349 161.013 27.4461 161.038 28.2349H162.453V23.0814H161.038V23.1772C161.038 23.8084 160.931 24.2462 160.727 24.4943C160.522 24.7423 160.161 24.8649 159.651 24.8649H159.216V21.7644H161.003C161.691 21.7644 162.188 21.8101 162.496 21.9005C162.803 21.99 163.063 22.1422 163.28 22.3571C163.465 22.5424 163.621 22.7887 163.752 23.0966C163.882 23.4029 164.004 23.829 164.119 24.377H165.909V20.1654H165.908ZM148.031 20.1654H140.247V21.7599H140.815C141.216 21.7599 141.472 21.811 141.58 21.9121C141.69 22.0133 141.747 22.2828 141.747 22.7233V28.8966C141.747 29.3371 141.691 29.6101 141.578 29.7131C141.466 29.8161 141.211 29.8707 140.815 29.8707H140.719V31.4706H147.055V29.8707H146.411C146.021 29.8707 145.767 29.8161 145.654 29.7131C145.543 29.6101 145.486 29.3371 145.486 28.8966V26.3664H146.501C147.132 26.3664 147.548 26.4693 147.749 26.6744C147.947 26.8794 148.048 27.3602 148.048 28.115V29.064C148.048 29.996 148.285 30.6738 148.754 31.1C149.22 31.5288 149.968 31.7419 150.994 31.7419C151.959 31.7419 152.66 31.5038 153.094 31.0319C153.527 30.5565 153.744 29.7919 153.744 28.7399C153.744 28.6889 153.742 28.6163 153.736 28.5143C153.73 28.4113 153.727 28.3379 153.727 28.2886H152.582C152.582 28.3325 152.584 28.397 152.589 28.4847C152.595 28.5743 152.599 28.6351 152.599 28.6754C152.599 29.0649 152.563 29.3577 152.489 29.5502C152.414 29.7427 152.301 29.8385 152.149 29.8385C151.99 29.8385 151.876 29.7597 151.807 29.6021C151.74 29.4463 151.705 29.167 151.705 28.7596C151.705 27.4166 151.572 26.5562 151.299 26.1784C151.026 25.8059 150.507 25.5695 149.737 25.4773C150.498 25.3162 151.084 25.0225 151.503 24.5865C151.919 24.154 152.128 23.6186 152.128 22.9838C152.128 22.0375 151.788 21.3329 151.111 20.8664C150.432 20.399 149.406 20.1654 148.031 20.1654ZM145.452 24.8327V21.8333H146.566C147.224 21.8333 147.683 21.9488 147.944 22.1798C148.206 22.409 148.334 22.811 148.334 23.3832C148.334 23.9024 148.194 24.2767 147.909 24.4987C147.629 24.719 147.137 24.8327 146.445 24.8327H145.452ZM136.266 20.1654H132.178L129.204 28.7077C129.061 29.1204 128.892 29.4159 128.697 29.5976C128.504 29.7812 128.264 29.8707 127.978 29.8707H127.558V31.4706H132.612V29.8707H132.054C131.802 29.8707 131.607 29.8429 131.472 29.7883C131.334 29.7346 131.265 29.6567 131.265 29.5555C131.265 29.4785 131.276 29.3953 131.3 29.3004C131.318 29.2073 131.361 29.0783 131.422 28.9136L131.774 27.832H134.818L135.222 29.0443C135.245 29.1231 135.261 29.1983 135.275 29.2807C135.29 29.3595 135.294 29.4418 135.294 29.5323C135.294 29.663 135.248 29.7507 135.152 29.8C135.056 29.8474 134.795 29.8698 134.367 29.8698H133.858V31.4697H140.247V29.8707H140.126C139.798 29.8707 139.557 29.8116 139.409 29.6934C139.258 29.5752 139.097 29.2359 138.915 28.6745L136.266 20.1654ZM132.294 26.2142L133.257 22.7904L134.285 26.2142H132.294ZM129.117 20.1654H124.804V21.7653C125.196 21.7653 125.45 21.7966 125.565 21.8566C125.682 21.9175 125.743 22.0312 125.743 22.1942L125.725 22.3858C125.713 22.4547 125.7 22.5299 125.678 22.6141L124.231 28.3549L122.836 22.6293C122.808 22.5245 122.791 22.444 122.781 22.3795L122.767 22.1942C122.767 22.0366 122.822 21.9247 122.936 21.862C123.048 21.7975 123.272 21.7662 123.606 21.7662H123.979V20.1654H118.4V21.7653C118.866 21.7778 119.196 21.8665 119.39 22.033C119.581 22.2013 119.719 22.5263 119.8 23.0161L118.491 28.3549L116.884 22.6293L116.832 22.4189L116.817 22.1942C116.817 22.042 116.871 21.9318 116.977 21.8656C117.084 21.8011 117.265 21.7662 117.523 21.7662V20.1654H112.283V21.7653C112.646 21.7778 112.936 21.8915 113.158 22.1028C113.376 22.3159 113.556 22.6714 113.699 23.1647L116.028 31.4706H119.649L120.792 26.8749L121.904 31.4706H125.494L127.849 22.8621C127.965 22.4547 128.112 22.17 128.301 22.007C128.486 21.8477 128.76 21.7662 129.115 21.7662V20.1654H129.117ZM111.98 20.1654H100.084V24.4459H101.751V24.3958C101.751 23.5936 101.917 22.9838 102.247 22.5639C102.576 22.1458 103.049 21.9336 103.669 21.9336H104.161V28.8975C104.161 29.3648 104.102 29.6424 103.982 29.7346C103.861 29.8241 103.614 29.8689 103.236 29.8689H102.359V31.4688H109.789V29.8707H108.845C108.446 29.8707 108.188 29.8161 108.072 29.7095C107.959 29.6048 107.903 29.3317 107.903 28.8984V21.9345H108.395C109.02 21.9345 109.5 22.1467 109.832 22.5693C110.163 22.9919 110.329 23.5998 110.329 24.3967V24.4468H111.982V20.1654H111.98ZM99.3562 20.1654H87.8656V21.7653H88.4189C88.8174 21.7653 89.0743 21.8181 89.1835 21.9175C89.2937 22.0187 89.3492 22.2882 89.3492 22.7269V28.9798C89.3492 29.3953 89.2901 29.6513 89.1719 29.7373C89.0555 29.825 88.8075 29.8698 88.4351 29.8698H87.8665V31.4697H94.5895V29.8707H93.9655C93.5859 29.8707 93.3325 29.825 93.217 29.7355C93.0997 29.6433 93.0406 29.3657 93.0406 28.8966V26.3485H93.4963C94.0138 26.3485 94.3702 26.4676 94.5519 26.7021C94.7364 26.9358 94.8384 27.447 94.8599 28.2358H96.2763V23.0823H94.8599V23.1781C94.8599 23.8093 94.757 24.2471 94.5519 24.4951C94.346 24.7432 93.987 24.8658 93.4802 24.8658H93.0415V21.7653H94.4928C95.3515 21.7653 95.9334 21.8253 96.2378 21.9435C96.5404 22.0608 96.7893 22.2631 96.9809 22.5469C97.1403 22.7887 97.2612 23.0859 97.3453 23.4405C97.4304 23.7905 97.4886 24.2445 97.5226 24.7996H99.358V20.1654H99.3562Z" fill="#7B7672"/>
<path d="M4.59661 19.8278C3.21512 19.8278 2.10402 20.1779 1.26331 20.8736C0.421699 21.571 0 22.4869 0 23.6222C0 24.1505 0.10923 24.6187 0.325003 25.0324C0.541672 25.446 0.87921 25.8238 1.33404 26.1667C1.52474 26.3136 1.83631 26.4729 2.27144 26.6439C2.70299 26.8123 3.32166 27.0164 4.12119 27.2581C4.3683 27.3369 4.70852 27.4327 5.14455 27.5482C6.47679 27.9153 7.14291 28.3701 7.14291 28.9136C7.14291 29.2637 6.98892 29.5484 6.68272 29.7633C6.37651 29.9799 5.96645 30.0883 5.45881 30.0883C4.61272 30.0883 3.87945 29.8456 3.2572 29.3523C2.63315 28.8608 2.18907 28.1794 1.91958 27.3101H0.286504V31.5217H1.83631L2.25801 30.895C2.86773 31.2012 3.48013 31.4322 4.10059 31.5808C4.71837 31.733 5.3639 31.8082 6.03181 31.8082C7.49567 31.8082 8.65781 31.4689 9.52359 30.792C10.384 30.1133 10.8164 29.2064 10.8164 28.0639C10.8164 27.037 10.4655 26.2276 9.76264 25.6331C9.06249 25.0368 7.83948 24.5399 6.09896 24.137C5.92796 24.0994 5.68801 24.0484 5.3836 23.9804C4.13014 23.7243 3.50341 23.3438 3.50341 22.8388C3.50341 22.5049 3.66636 22.2228 3.99226 21.9945C4.31816 21.7635 4.73359 21.648 5.23855 21.648C6.10075 21.648 6.78926 21.8459 7.30318 22.2363C7.81978 22.6284 8.17164 23.2229 8.35698 24.0224H10.2604V20.0964H8.63632L8.33191 20.6676C7.76069 20.382 7.17067 20.1716 6.56453 20.0311C5.95571 19.8959 5.29854 19.8278 4.59661 19.8278ZM53.2755 20.1654H48.3055V21.7653H48.9457C49.3289 21.7653 49.5778 21.8146 49.6951 21.9068C49.8133 21.9999 49.8733 22.2739 49.8733 22.7287V27.781L45.7136 20.1654H40.116V21.7653H40.6693C41.0731 21.7653 41.3345 21.819 41.4473 21.9265C41.5593 22.033 41.6157 22.2989 41.6157 22.7287V28.8984C41.6157 29.3335 41.5566 29.6048 41.4411 29.7095C41.3256 29.8161 41.0677 29.8707 40.6693 29.8707H40.116V31.4707H45.103V29.8707H44.5989C44.2067 29.8707 43.9507 29.8161 43.8388 29.7131C43.7259 29.6102 43.6704 29.3371 43.6704 28.8984V23.3706L48.0647 31.4707H51.9433V22.7287C51.9433 22.2918 51.9997 22.0187 52.1116 21.9175C52.2244 21.8181 52.4769 21.7653 52.8735 21.7653H53.2737V20.1654H53.2755ZM39.5099 20.1654H32.7877V21.7653H33.3491C33.7475 21.7653 34.0063 21.819 34.1182 21.9265C34.2301 22.033 34.2865 22.2989 34.2865 22.7287V28.8984C34.2865 29.3335 34.2292 29.6048 34.1137 29.7095C33.9982 29.8161 33.7431 29.8707 33.3491 29.8707H32.7877V31.4707H39.5099V29.8707H38.9574C38.559 29.8707 38.3003 29.8161 38.1848 29.7095C38.0693 29.6048 38.012 29.3335 38.012 28.8984V22.7287C38.012 22.2989 38.0684 22.033 38.1803 21.9265C38.2922 21.8199 38.5545 21.7653 38.9583 21.7653H39.5108V20.1654H39.5099ZM26.7076 20.1654H18.9245V21.7599H19.4913C19.8924 21.7599 20.1475 21.811 20.2586 21.9121C20.3687 22.0133 20.4251 22.2828 20.4251 22.7233V28.8966C20.4251 29.3371 20.3687 29.6102 20.2559 29.7131C20.1439 29.8161 19.8879 29.8707 19.4913 29.8707H18.9245V31.4707H25.7308V29.8707H25.0888C24.6985 29.8707 24.4442 29.8161 24.3323 29.7131C24.2204 29.6102 24.1631 29.3371 24.1631 28.8966V26.3664H25.1775C25.8096 26.3664 26.225 26.4694 26.4247 26.6744C26.6243 26.8794 26.7255 27.3602 26.7255 28.115V29.064C26.7255 29.996 26.9619 30.6738 27.4301 31.1C27.8984 31.5288 28.6451 31.7419 29.6702 31.7419C30.6363 31.7419 31.3355 31.5038 31.7689 31.0319C32.2031 30.5565 32.4207 29.7919 32.4207 28.7399C32.4207 28.6889 32.4171 28.6164 32.4126 28.5143C32.4054 28.4113 32.4037 28.3379 32.4037 28.2887H31.2576C31.2576 28.3325 31.2612 28.397 31.2666 28.4847C31.272 28.5743 31.2746 28.6352 31.2746 28.6754C31.2746 29.0649 31.2397 29.3577 31.1663 29.5502C31.0911 29.7427 30.9774 29.8385 30.8252 29.8385C30.6658 29.8385 30.553 29.7597 30.4832 29.6021C30.416 29.4463 30.3829 29.167 30.3829 28.7596C30.3829 27.4166 30.2477 26.5562 29.9755 26.1784C29.7025 25.8059 29.1823 25.5696 28.4141 25.4773C29.176 25.3162 29.7624 25.0225 30.1806 24.5865C30.596 24.154 30.8028 23.6186 30.8028 22.9839C30.8028 22.0375 30.4635 21.3329 29.7884 20.8664C29.1089 20.399 28.0837 20.1654 26.7076 20.1654ZM24.1299 24.8327V21.8334H25.2437C25.9027 21.8334 26.3593 21.9489 26.6198 22.1799C26.8804 22.4091 27.0111 22.8111 27.0111 23.3832C27.0111 23.9025 26.8723 24.2767 26.5867 24.4987C26.3065 24.719 25.8149 24.8327 25.1211 24.8327H24.1299ZM18.3175 20.1654H11.5945V21.7653H12.1558C12.5534 21.7653 12.8121 21.819 12.9258 21.9265C13.0377 22.033 13.0941 22.2989 13.0941 22.7287V28.8984C13.0941 29.3335 13.0351 29.6048 12.9214 29.7095C12.805 29.8161 12.5507 29.8707 12.1567 29.8707H11.5945V31.4707H18.3175V29.8707H17.7642C17.3649 29.8707 17.1079 29.8161 16.9924 29.7095C16.8769 29.6048 16.8187 29.3335 16.8187 28.8984V22.7287C16.8187 22.2989 16.8742 22.033 16.987 21.9265C17.0989 21.8199 17.3595 21.7653 17.7642 21.7653H18.3175V20.1654Z" fill="#7B7672"/>
<path d="M178.229 26.9072H179.422C179.619 27.5411 179.944 28.0398 180.398 28.3988C180.854 28.7551 181.388 28.936 182.005 28.936C182.376 28.936 182.677 28.8554 182.9 28.6987C183.125 28.5394 183.237 28.3317 183.237 28.0783C183.237 27.6816 182.75 27.3495 181.777 27.0809C181.458 26.9958 181.21 26.9269 181.03 26.8687C180.448 26.6932 179.995 26.5419 179.679 26.4192C179.361 26.2957 179.136 26.1784 178.993 26.0727C178.661 25.8212 178.413 25.5454 178.256 25.2446C178.101 24.9411 178.019 24.5981 178.019 24.2132C178.019 23.385 178.327 22.7162 178.943 22.2049C179.555 21.6991 180.366 21.4448 181.377 21.4448C181.891 21.4448 182.369 21.494 182.813 21.5916C183.257 21.6928 183.689 21.8477 184.103 22.0572L184.33 21.64H185.512V24.5068H184.122C183.989 23.9213 183.73 23.487 183.352 23.2014C182.98 22.9167 182.476 22.7735 181.846 22.7735C181.478 22.7735 181.174 22.8567 180.935 23.0251C180.697 23.1934 180.577 23.3984 180.577 23.6419C180.577 24.0117 181.037 24.2875 181.949 24.4782C182.175 24.5256 182.347 24.565 182.475 24.5919C183.745 24.8846 184.637 25.2473 185.147 25.6833C185.659 26.1166 185.918 26.7093 185.918 27.4587C185.918 28.2896 185.602 28.9539 184.973 29.4508C184.34 29.9432 183.491 30.1912 182.424 30.1912C181.936 30.1912 181.463 30.1339 181.01 30.0238C180.56 29.9164 180.11 29.7481 179.669 29.5251L179.359 29.9799H178.227V26.9072H178.229Z" fill="#7B7672"/>
<path d="M199.193 19.5575C196.251 18.0005 192.731 17.0264 189.702 16.9162C187.408 16.8321 185.904 17.2368 184.649 17.8698C188.134 18.8931 190.679 22.1091 190.679 25.9259C190.679 25.959 190.675 25.9904 190.674 26.0235C190.714 25.9957 190.755 25.9689 190.795 25.9402C194.177 23.5784 197.307 21.4421 199.912 19.9102C199.66 19.775 199.447 19.6918 199.193 19.5575Z" fill="#A7AD6E"/>
<path fill-rule="evenodd" clip-rule="evenodd" d="M182.281 17.525C182.604 17.525 182.922 17.5474 183.235 17.5832C183.314 17.5931 183.389 17.6074 183.467 17.6191C183.709 17.6531 183.949 17.6961 184.186 17.7507C184.253 17.7677 184.32 17.7856 184.387 17.8035C184.64 17.8689 184.888 17.945 185.132 18.0336C185.173 18.0488 185.214 18.0622 185.255 18.0784C185.536 18.1849 185.81 18.3049 186.075 18.4392C186.078 18.441 186.082 18.4419 186.085 18.4437C186.833 17.9423 187.522 17.5242 188.112 17.2251C189.008 16.7676 190.388 15.8436 191.936 14.8274C190.928 14.8113 189.847 14.8265 188.671 14.8811C185.592 15.0253 183.334 16.1042 181.716 17.5546C181.903 17.5412 182.091 17.525 182.281 17.525Z" fill="#C8A05E"/>
<path fill-rule="evenodd" clip-rule="evenodd" d="M182.281 17.525C183.652 17.525 184.942 17.8599 186.085 18.4419C186.388 18.2395 186.676 18.0569 186.958 17.8832C187.314 16.8688 187.556 15.9448 187.675 15.2706C187.692 15.1775 187.706 15.0656 187.722 14.9626C185.124 15.2635 183.162 16.2564 181.716 17.5537C181.903 17.5412 182.09 17.525 182.281 17.525Z" fill="#C09038"/>
<path d="M186.633 18.7516C186.872 18.1562 187.068 17.5823 187.231 17.0469C186.212 17.209 185.387 17.5 184.65 17.8706C185.356 18.0775 186.019 18.3774 186.633 18.7516Z" fill="#B5943C"/>
<path fill-rule="evenodd" clip-rule="evenodd" d="M186.085 18.4428C186.833 17.9414 187.522 17.5233 188.112 17.2242C188.274 17.141 188.469 17.0281 188.66 16.9171C186.937 16.9735 185.705 17.3406 184.653 17.8707C185.152 18.0175 185.63 18.2109 186.085 18.4428Z" fill="#B5943C"/>
<path d="M186.086 18.4427C186.388 18.2404 186.677 18.0578 186.959 17.8841C187.06 17.5958 187.149 17.3173 187.233 17.0469C186.214 17.2081 185.388 17.5 184.652 17.8706C185.151 18.0166 185.629 18.2109 186.086 18.4427Z" fill="#B7882A"/>
<path fill-rule="evenodd" clip-rule="evenodd" d="M191.261 24.3644C190.969 24.1558 190.679 23.9633 190.394 23.7816C190.575 24.4674 190.68 25.1828 190.68 25.9268C190.68 29.6791 188.219 32.8548 184.823 33.9319C185.939 34.521 187.149 34.932 189.317 34.932C191.961 34.932 196.495 32.4582 199.437 30.9012C199.758 30.7311 199.944 30.6272 200.26 30.4518C197.666 28.8903 194.622 26.7612 191.261 24.3644Z" fill="#A7AD6E"/>
<path d="M191.26 24.3644C190.969 24.1558 190.679 23.9633 190.394 23.7816C190.575 24.4674 190.68 25.1828 190.68 25.9268C190.68 25.9599 190.676 25.9913 190.675 26.0244C190.715 25.9966 190.756 25.9698 190.796 25.9411C191.254 25.6206 191.705 25.3072 192.151 24.9974C191.856 24.7888 191.561 24.5784 191.26 24.3644Z" fill="#8C8C67"/>
<path fill-rule="evenodd" clip-rule="evenodd" d="M187.426 32.597C187.415 32.5907 187.406 32.5844 187.395 32.5782C185.978 33.6696 184.208 34.3249 182.281 34.3249C180.398 34.3249 178.666 33.6982 177.264 32.6516C178.775 35.7494 181.886 38.9377 184.948 41.0363C186.009 41.7633 187.201 42.194 188.44 42.4169C188.555 39.5259 188.395 36.728 188.139 35.257C188.019 34.5712 187.781 33.6311 187.426 32.597Z" fill="#F6B131"/>
<path fill-rule="evenodd" clip-rule="evenodd" d="M188.575 33.2667C188.216 33.0795 187.821 32.8468 187.396 32.579C186.377 33.3634 185.178 33.9211 183.866 34.1718C185.271 34.9955 187.007 35.5542 189.136 35.6563C190.311 35.7127 191.393 35.727 192.4 35.7118C190.851 34.6759 189.472 33.7322 188.575 33.2667Z" fill="#C8A05E"/>
<path fill-rule="evenodd" clip-rule="evenodd" d="M187.426 32.597C187.415 32.5907 187.406 32.5844 187.395 32.5782C186.376 33.3625 185.177 33.9203 183.866 34.171C185.051 34.8648 186.49 35.3537 188.184 35.556C188.169 35.4566 188.155 35.3474 188.139 35.257C188.019 34.5712 187.781 33.6311 187.426 32.597Z" fill="#C09038"/>
<path fill-rule="evenodd" clip-rule="evenodd" d="M188.576 33.2667C188.217 33.0795 187.821 32.8468 187.396 32.579C186.631 33.1682 185.766 33.6337 184.824 33.9328C185.94 34.521 187.15 34.932 189.318 34.932C189.796 34.932 190.333 34.8514 190.907 34.7135C189.979 34.0975 189.17 33.5747 188.576 33.2667Z" fill="#B5943C"/>
<path fill-rule="evenodd" clip-rule="evenodd" d="M187.395 32.579C186.631 33.1673 185.766 33.6328 184.825 33.9319C185.704 34.3948 186.647 34.7457 188.062 34.8747C187.931 34.2372 187.72 33.4547 187.426 32.5979C187.415 32.5916 187.405 32.5853 187.395 32.579Z" fill="#B7882A"/>
</svg>
