<svg width="102" height="102" viewBox="0 0 102 102" fill="none" xmlns="http://www.w3.org/2000/svg">
<path d="M35.6362 4.97589C35.6362 2.63388 33.7305 0.728149 31.3885 0.728149C29.0465 0.728149 27.1407 2.63388 27.1407 4.97589C27.1407 6.75531 28.2795 8.35643 29.974 8.96086L30.4091 9.11606V15.7608H32.3676V9.11606L32.8027 8.96086C34.4975 8.35643 35.6362 6.75531 35.6362 4.97589ZM31.3887 7.26531C30.1262 7.26531 29.0991 6.23834 29.0991 4.97569C29.0991 3.71324 30.126 2.68607 31.3887 2.68607C32.6513 2.68607 33.6783 3.71304 33.6783 4.97569C33.6781 6.23834 32.6511 7.26531 31.3887 7.26531Z" fill="#666666"/>
<path d="M48.7108 4.97589C48.7108 2.63388 46.805 0.728149 44.463 0.728149C42.121 0.728149 40.2153 2.63388 40.2153 4.97589C40.2153 6.75531 41.354 8.35683 43.0486 8.96086L43.4837 9.11606V15.7608H45.4418V9.11606L45.8769 8.96086C47.5718 8.35683 48.7108 6.75531 48.7108 4.97589ZM44.463 7.26531C43.2006 7.26531 42.1734 6.23834 42.1734 4.97569C42.1734 3.71324 43.2004 2.68607 44.463 2.68607C45.7251 2.68607 46.752 3.71304 46.752 4.97569C46.752 6.23834 45.7251 7.26531 44.463 7.26531Z" fill="#666666"/>
<path d="M61.7847 4.97589C61.7847 2.63388 59.8789 0.728149 57.5369 0.728149C55.1949 0.728149 53.2892 2.63388 53.2892 4.97589C53.2892 6.75531 54.4279 8.35683 56.1229 8.96086L56.558 9.11606V15.7608H58.5161V9.11606L58.9512 8.96086C60.6457 8.35683 61.7847 6.75531 61.7847 4.97589ZM57.5369 7.26531C56.2749 7.26531 55.2479 6.23834 55.2479 4.97569C55.2479 3.71324 56.2749 2.68607 57.5369 2.68607C58.7994 2.68607 59.8265 3.71304 59.8265 4.97569C59.8265 6.23834 58.7994 7.26531 57.5369 7.26531Z" fill="#666666"/>
<path d="M74.859 4.97589C74.859 2.63388 72.9533 0.728149 70.6113 0.728149C68.2693 0.728149 66.3635 2.63388 66.3635 4.97589C66.3635 6.75531 67.5023 8.35643 69.1968 8.96086L69.6319 9.11606V15.7608H71.5904V9.11606L72.0255 8.96086C73.7203 8.35643 74.859 6.75531 74.859 4.97589ZM70.6113 7.26531C69.3488 7.26531 68.3216 6.23834 68.3216 4.97569C68.3216 3.71324 69.3486 2.68607 70.6113 2.68607C71.8737 2.68607 72.9009 3.71304 72.9009 4.97569C72.9009 6.23834 71.8737 7.26531 70.6113 7.26531Z" fill="#666666"/>
<path d="M9.22521 68.9329C8.62078 67.238 7.01926 66.0992 5.24024 66.0992C2.89822 66.0992 0.992493 68.005 0.992493 70.347C0.992493 72.6894 2.89822 74.5951 5.24024 74.5951C7.01926 74.5951 8.62078 73.4564 9.22521 71.7614L9.3804 71.3263H16.0251V69.368H9.3804L9.22521 68.9329ZM5.24024 72.6364C3.97779 72.6364 2.95061 71.6094 2.95061 70.3468C2.95061 69.0847 3.97759 68.0578 5.24024 68.0578C6.50229 68.0578 7.52926 69.0847 7.52926 70.3468C7.52946 71.6094 6.50229 72.6364 5.24024 72.6364Z" fill="#666666"/>
<path d="M9.22521 55.8586C8.62078 54.164 7.01926 53.0253 5.24024 53.0253C2.89822 53.0253 0.992493 54.931 0.992493 57.273C0.992493 59.615 2.89822 61.5208 5.24024 61.5208C7.01926 61.5208 8.62078 60.382 9.22521 58.6875L9.3804 58.2524H16.0251V56.2939H9.3804L9.22521 55.8586ZM5.24024 59.5624C3.97779 59.5624 2.95061 58.5355 2.95061 57.2728C2.95061 56.0104 3.97759 54.9832 5.24024 54.9832C6.50229 54.9832 7.52926 56.0102 7.52926 57.2728C7.52946 58.5355 6.50229 59.5624 5.24024 59.5624Z" fill="#666666"/>
<path d="M9.22521 42.7842C8.62078 41.0897 7.01926 39.9509 5.24024 39.9509C2.89822 39.9509 0.992493 41.8567 0.992493 44.1987C0.992493 46.5407 2.89822 48.4464 5.24024 48.4464C7.01926 48.4464 8.62078 47.3077 9.22521 45.6131L9.3804 45.178H16.0251V43.2195H9.3804L9.22521 42.7842ZM5.24024 46.4881C3.97779 46.4881 2.95061 45.4611 2.95061 44.1985C2.95061 42.936 3.97759 41.9089 5.24024 41.9089C6.50229 41.9089 7.52926 42.9358 7.52926 44.1985C7.52946 45.4611 6.50229 46.4881 5.24024 46.4881Z" fill="#666666"/>
<path d="M9.22521 29.7103C8.62078 28.0153 7.01926 26.8766 5.24024 26.8766C2.89822 26.8766 0.992493 28.7823 0.992493 31.1243C0.992493 33.4667 2.89822 35.3725 5.24024 35.3725C7.01926 35.3725 8.62078 34.2337 9.22521 32.5388L9.3804 32.1037H16.0251V30.1456H9.3804L9.22521 29.7103ZM5.24024 33.4138C3.97779 33.4138 2.95061 32.3868 2.95061 31.1241C2.95061 29.8621 3.97759 28.8351 5.24024 28.8351C6.50229 28.8351 7.52926 29.8621 7.52926 31.1241C7.52946 32.3866 6.50229 33.4138 5.24024 33.4138Z" fill="#666666"/>
<path d="M72.0258 92.5106L71.5907 92.3554V85.7107H69.6321V92.3554L69.1971 92.5106C67.5025 93.1151 66.3638 94.7162 66.3638 96.4956C66.3638 98.8376 68.2695 100.743 70.6115 100.743C72.9535 100.743 74.8592 98.8376 74.8592 96.4956C74.859 94.7162 73.7203 93.1151 72.0258 92.5106ZM70.6113 98.7852C69.3489 98.7852 68.3217 97.7582 68.3217 96.4956C68.3217 95.2329 69.3487 94.206 70.6113 94.206C71.8738 94.206 72.9009 95.2329 72.9009 96.4956C72.9009 97.7582 71.8738 98.7852 70.6113 98.7852Z" fill="#666666"/>
<path d="M53.2892 96.4956C53.2892 98.8376 55.1949 100.743 57.5369 100.743C59.8789 100.743 61.7847 98.8376 61.7847 96.4956C61.7847 94.7162 60.6459 93.1147 58.9514 92.5106L58.5163 92.3554V85.7107H56.5582V92.3554L56.1231 92.5106C54.4281 93.1147 53.2892 94.7162 53.2892 96.4956ZM57.5369 94.2062C58.7994 94.2062 59.8265 95.2331 59.8265 96.4958C59.8265 97.7584 58.7996 98.7854 57.5369 98.7854C56.2749 98.7854 55.2479 97.7584 55.2479 96.4958C55.2479 95.2331 56.2749 94.2062 57.5369 94.2062Z" fill="#666666"/>
<path d="M40.2153 96.4956C40.2153 98.8376 42.121 100.743 44.463 100.743C46.805 100.743 48.7108 98.8376 48.7108 96.4956C48.7108 94.7162 47.572 93.1147 45.8771 92.5106L45.442 92.3554V85.7107H43.4839V92.3554L43.0488 92.5106C41.3542 93.1147 40.2153 94.7162 40.2153 96.4956ZM44.463 94.2062C45.7251 94.2062 46.752 95.2331 46.752 96.4958C46.752 97.7584 45.7251 98.7854 44.463 98.7854C43.2006 98.7854 42.1734 97.7584 42.1734 96.4958C42.1734 95.2331 43.2006 94.2062 44.463 94.2062Z" fill="#666666"/>
<path d="M32.8029 92.5106L32.3678 92.3554V85.7107H30.4093V92.3554L29.9742 92.5106C28.2797 93.1151 27.1409 94.7162 27.1409 96.4956C27.1409 98.8376 29.0467 100.743 31.3887 100.743C33.7307 100.743 35.6364 98.8376 35.6364 96.4956C35.6362 94.7162 34.4975 93.1151 32.8029 92.5106ZM31.3887 98.7852C30.1262 98.7852 29.0991 97.7582 29.0991 96.4956C29.0991 95.2329 30.126 94.206 31.3887 94.206C32.6513 94.206 33.6783 95.2329 33.6783 96.4956C33.6783 97.7582 32.6511 98.7852 31.3887 98.7852Z" fill="#666666"/>
<path d="M96.7598 26.8766C94.9807 26.8766 93.3792 28.0153 92.7748 29.7103L92.6196 30.1454H85.9749V32.1035H92.6196L92.7748 32.5386C93.3792 34.2335 94.9807 35.3723 96.7598 35.3723C99.1018 35.3723 101.008 33.4665 101.008 31.1241C101.007 28.7821 99.1016 26.8766 96.7598 26.8766ZM96.7598 33.4138C95.4977 33.4138 94.4707 32.3868 94.4707 31.1241C94.4707 29.8621 95.4977 28.8351 96.7598 28.8351C98.0222 28.8351 99.0494 29.8621 99.0494 31.1241C99.0492 32.3866 98.0222 33.4138 96.7598 33.4138Z" fill="#666666"/>
<path d="M96.7598 39.9509C94.9807 39.9509 93.3792 41.0897 92.7748 42.7842L92.6196 43.2193H85.9749V45.1778H92.6196L92.7748 45.6129C93.3792 47.3075 94.9807 48.4462 96.7598 48.4462C99.1018 48.4462 101.008 46.5405 101.008 44.1985C101.007 41.8565 99.1016 39.9509 96.7598 39.9509ZM96.7598 46.4881C95.4977 46.4881 94.4707 45.4611 94.4707 44.1985C94.4707 42.936 95.4977 41.9089 96.7598 41.9089C98.0222 41.9089 99.0494 42.9358 99.0494 44.1985C99.0492 45.4611 98.0222 46.4881 96.7598 46.4881Z" fill="#666666"/>
<path d="M96.7598 53.0253C94.9807 53.0253 93.3792 54.164 92.7748 55.8586L92.6196 56.2937H85.9749V58.2522H92.6196L92.7748 58.6873C93.3792 60.3818 94.9807 61.5206 96.7598 61.5206C99.1018 61.5206 101.008 59.6148 101.008 57.2728C101.007 54.931 99.1016 53.0253 96.7598 53.0253ZM96.7598 59.5624C95.4977 59.5624 94.4707 58.5355 94.4707 57.2728C94.4707 56.0104 95.4977 54.9832 96.7598 54.9832C98.0222 54.9832 99.0494 56.0102 99.0494 57.2728C99.0492 58.5355 98.0222 59.5624 96.7598 59.5624Z" fill="#666666"/>
<path d="M96.7598 66.0992C94.9807 66.0992 93.3792 67.238 92.7748 68.9329L92.6196 69.368H85.9749V71.3261H92.6196L92.7748 71.7612C93.3792 73.4562 94.9807 74.5949 96.7598 74.5949C99.1018 74.5949 101.008 72.6892 101.008 70.3468C101.007 68.005 99.1016 66.0992 96.7598 66.0992ZM96.7598 72.6364C95.4977 72.6364 94.4707 71.6094 94.4707 70.3468C94.4707 69.0847 95.4977 68.0578 96.7598 68.0578C98.0222 68.0578 99.0494 69.0847 99.0494 70.3468C99.0492 71.6094 98.0222 72.6364 96.7598 72.6364Z" fill="#666666"/>
<path d="M29.3473 20.3398L20.6038 29.0834V81.1318H81.3962V20.3398H29.3473ZM79.4381 79.1735H22.5619V29.8954L30.1599 22.298H79.4381V79.1735Z" fill="#666666"/>
<path d="M55.6207 72.8217H29.8715C29.3814 72.8217 28.9847 73.2187 28.9847 73.7084C28.9847 74.1977 29.3814 74.5951 29.8715 74.5951H55.6207C56.1098 74.5951 56.5074 74.1977 56.5074 73.7084C56.5074 73.2187 56.1098 72.8217 55.6207 72.8217Z" fill="#666666"/>
<path d="M29.8715 67.2499H44.4652C44.9543 67.2499 45.3519 66.853 45.3519 66.3632C45.3519 65.8737 44.9543 65.4771 44.4652 65.4771H29.8715C29.3814 65.4771 28.9847 65.8737 28.9847 66.3632C28.9849 66.8528 29.3814 67.2499 29.8715 67.2499Z" fill="#666666"/>
<path d="M70.6551 40.8593H68.8663V39.93C68.8755 38.7231 68.181 37.6089 67.0969 37.0867L66.8188 36.9529L66.7813 36.6465C66.6165 35.3009 66.144 33.9857 65.4143 32.8428L65.185 32.4832L68.2165 29.066C68.5886 28.6466 68.55 28.002 68.13 27.629C67.927 27.4491 67.6652 27.3587 67.3935 27.375C67.122 27.3913 66.8731 27.5123 66.6926 27.7157L63.837 30.9456L63.4173 30.6089C60.1242 27.9683 55.4736 27.9041 52.1076 30.4529L51.6903 30.7689L48.8012 27.5009C48.6207 27.2969 48.3715 27.1752 48.0998 27.1587C47.827 27.1421 47.5663 27.2326 47.3623 27.4133C47.1573 27.594 47.0355 27.8426 47.0188 28.1141C47.0021 28.3863 47.0923 28.6488 47.2734 28.8532L50.2836 32.2593L50.0413 32.621C49.2433 33.8134 48.7331 35.1965 48.5655 36.6208L48.5287 36.9331L48.2436 37.0662C47.1385 37.5828 46.4331 38.7044 46.4464 39.9236L46.4466 40.8591H44.7603C42.4384 40.8693 40.5532 42.7686 40.5603 45.0929V45.4842C40.5609 46.0462 41.0183 46.504 41.5799 46.504C42.1427 46.504 42.6005 46.0466 42.6005 45.4842V45.0947C42.5876 43.9002 43.5536 42.9127 44.7541 42.8995H46.4466V47.6517H45.5145C45.5103 47.6517 45.5057 47.6517 45.5015 47.6517C43.1755 47.6517 41.2656 49.5391 41.2391 51.8652L41.2393 53.0398C41.2393 53.6026 41.6971 54.0604 42.2597 54.0604C42.8219 54.0604 43.2793 53.6026 43.2793 53.0398V51.8588C43.3171 50.6511 44.3094 49.6921 45.4968 49.6921C45.5047 49.6921 45.5125 49.6921 45.5205 49.6921H46.4464V51.2099C46.4405 52.1457 46.566 53.0742 46.819 53.9735L46.9664 54.4976L46.448 54.6642C44.6961 55.2274 43.5125 56.8424 43.5032 58.6828V59.8829C43.5032 60.4455 43.961 60.9033 44.5236 60.9033C45.0858 60.9033 45.5432 60.4455 45.5432 59.8829V58.6798C45.5276 57.5413 46.4106 56.5851 47.5531 56.5105L47.8804 56.4894L48.0611 56.763C49.9109 59.5638 53.0199 61.2372 56.3773 61.2398H58.905C62.1642 61.2398 65.3921 59.511 67.329 56.7279L67.4977 56.4856H67.8443C68.4099 56.4659 68.9594 56.6743 69.3646 57.0658C69.7726 57.4606 70.0021 58.0123 69.9949 58.5794L69.9951 59.8811C69.9951 60.4439 70.4529 60.9017 71.0155 60.9017C71.5777 60.9017 72.0351 60.4439 72.0351 59.8811V58.5723C72.0275 56.6839 70.7489 55.0122 68.9263 54.509L68.387 54.3602L68.5308 53.8195C68.7573 52.9674 68.8699 52.0903 68.8657 51.2127V49.6921H69.9013C71.0765 49.6921 72.0327 50.7117 72.0327 51.965V53.0398C72.0327 53.6026 72.4905 54.0604 73.0533 54.0604C73.6159 54.0604 74.0737 53.6026 74.0737 53.0398V51.965C74.0737 49.5867 72.2018 47.6517 69.9013 47.6517H68.8657V42.8997H70.6545C71.8713 42.8997 72.9392 43.9255 72.9392 45.0949V45.4844C72.9392 46.0466 73.3966 46.5042 73.9588 46.5042C74.5215 46.5042 74.9794 46.0468 74.9794 45.4844V45.0949C74.9799 42.7989 72.9993 40.8593 70.6551 40.8593ZM50.6886 36.094C50.9442 34.97 51.4909 33.9269 52.2694 33.0771L52.3162 33.0314C52.3754 32.9786 52.4256 32.9231 52.47 32.8619L52.5214 32.8009C53.8663 31.4176 55.7388 30.6275 57.6672 30.6275C57.689 30.6275 57.7107 30.6275 57.7326 30.6277C59.6851 30.647 61.5689 31.4753 62.9017 32.9001L62.9433 32.9448L62.9744 32.9972C63.0274 33.086 63.094 33.1663 63.1723 33.2356L63.2187 33.2727L63.28 33.3404C63.9209 34.1548 64.3765 35.076 64.6349 36.0785L64.8166 36.7841H50.5314L50.6886 36.094ZM56.6371 59.2112L56.0474 59.1851C51.7379 58.995 48.4882 55.5667 48.4882 51.2103V39.9485C48.4597 39.4335 48.7978 38.9731 49.3004 38.8476L49.3678 38.8309H49.4373C49.4618 38.8309 49.4857 38.8321 49.5092 38.8349C49.5122 38.8347 49.5148 38.8343 49.5178 38.8339C49.5656 38.8289 49.6134 38.8247 49.671 38.8247H56.6373V59.2112H56.6371ZM66.8261 48.3629C66.8261 48.4816 66.8056 48.584 66.7893 48.6663C66.7825 48.7014 66.7729 48.7494 66.7727 48.7663C66.7729 48.7829 66.7823 48.8307 66.7893 48.8655C66.8056 48.9478 66.8261 49.0502 66.8261 49.1689V51.2101C66.8261 55.4374 63.4342 59.0153 59.265 59.1859L58.6771 59.21V38.8243H65.6567C65.7077 38.8243 65.7589 38.8281 65.8105 38.8327C65.8157 38.8331 65.8209 38.8337 65.826 38.8341H65.9348L66.001 38.8504C66.0059 38.8516 66.0109 38.8528 66.0159 38.8542L66.4817 38.951L66.4679 39.0976C66.7002 39.3072 66.8379 39.6134 66.8261 39.9423V48.3629Z" fill="#666666"/>
</svg>
