<svg width="103" height="102" viewBox="0 0 103 102" fill="none" xmlns="http://www.w3.org/2000/svg">
<path d="M91.5295 25.1482C91.5289 25.0946 91.5263 25.0417 91.5218 24.9895C91.5199 24.9695 91.5187 24.95 91.5167 24.93C91.5097 24.8622 91.4999 24.7945 91.4863 24.7268C91.4857 24.7236 91.485 24.7217 91.4844 24.7183C91.4714 24.6538 91.4547 24.5904 91.4367 24.5273C91.4308 24.5086 91.4243 24.4892 91.418 24.4698C91.4025 24.4207 91.3851 24.3723 91.3664 24.3238C91.3594 24.3063 91.3529 24.2897 91.3451 24.2714C91.3186 24.2088 91.2895 24.1463 91.2574 24.0843C91.256 24.0817 91.254 24.0797 91.2523 24.0766C91.2219 24.0191 91.1877 23.963 91.1516 23.9075C91.1406 23.8914 91.1291 23.8745 91.1181 23.8584C91.0884 23.8159 91.058 23.7739 91.0257 23.7339C91.0133 23.7178 91.0011 23.7015 90.9882 23.6874C90.9437 23.6338 90.8972 23.5808 90.8475 23.5312L71.0962 3.78012C71.0466 3.73048 70.9942 3.68457 70.9407 3.64004C70.9258 3.6265 70.9091 3.61492 70.8942 3.60256C70.8536 3.5696 70.8116 3.53939 70.769 3.50957C70.7529 3.49858 70.7366 3.4876 70.72 3.47602C70.6644 3.43992 70.6083 3.40559 70.5503 3.37459C70.5477 3.37322 70.5457 3.37145 70.5432 3.37008C70.4818 3.33849 70.4192 3.30945 70.356 3.28238C70.3391 3.27473 70.3211 3.26825 70.3036 3.261C70.2552 3.24236 70.2067 3.2249 70.1571 3.20881C70.1384 3.20292 70.119 3.19645 70.1002 3.19076C70.037 3.17271 69.9742 3.15662 69.9105 3.14289C69.9065 3.14289 69.904 3.14152 69.9001 3.14034C69.833 3.12739 69.7651 3.11778 69.6974 3.11071C69.678 3.10816 69.6574 3.10679 69.6374 3.10483C69.5852 3.10032 69.5328 3.09835 69.4798 3.09718C69.4683 3.09718 69.4559 3.09521 69.443 3.09521L19.9947 3.0958C19.3749 3.0958 18.7805 3.34183 18.3414 3.7807C17.9037 4.21841 17.6577 4.81286 17.6571 5.43341V98.8528C17.6571 100.144 18.7036 101.19 19.9941 101.19L89.1938 101.19C89.8142 101.19 90.4088 100.944 90.8471 100.506C91.2848 100.068 91.5309 99.4734 91.5314 98.8528V25.1837C91.5314 25.1721 91.5303 25.1606 91.5295 25.1482ZM71.7804 11.0762L83.5516 22.8475H71.7804V11.0762ZM86.8576 96.5158H22.331L22.3315 7.76965H67.1065L67.1059 25.1837C67.1059 26.4748 68.1524 27.5213 69.4435 27.5213L86.8576 27.5207V96.5158Z" fill="#666666"/>
<path d="M74.5563 38.9231H59.4116C60.5179 37.7456 61.1981 36.1633 61.1981 34.4241C61.1981 30.7985 58.2484 27.8486 54.6226 27.8486C52.8834 27.8486 51.3005 28.5284 50.1236 29.6351V21.1346C50.1236 20.5615 49.6584 20.0963 49.0853 20.0963C48.5113 20.0963 48.0471 20.5615 48.0471 21.1346V34.4241C48.0471 38.0497 50.9968 40.9996 54.6226 40.9996H71.5242C71.3822 41.3645 71.3031 41.7614 71.3031 42.1764C71.3031 42.5905 71.3822 42.9874 71.5242 43.3523H43.5482C41.7543 43.3523 40.295 44.8118 40.295 46.6056C40.295 48.3995 41.7545 49.8588 43.5482 49.8588H60.4499C60.3078 50.2237 60.2288 50.6206 60.2288 51.0356C60.2288 51.4505 60.3078 51.8466 60.4499 52.2123H36.9031C32.6671 52.2123 29.2205 55.6588 29.2205 59.8949C29.2205 64.1248 32.6567 67.5673 36.8848 67.5775C36.8909 67.5775 36.897 67.5783 36.9037 67.5783H52.048C50.9415 68.7559 50.2623 70.3376 50.2623 72.0766C50.2623 75.7024 53.2118 78.6521 56.8378 78.6521C58.5768 78.6521 60.1593 77.9723 61.3368 76.8656V83.151C61.3368 83.725 61.801 84.1892 62.3751 84.1892C62.9482 84.1892 63.4133 83.725 63.4133 83.151V72.0766C63.4133 68.451 60.4636 65.5011 56.8378 65.5011C56.8309 65.5011 56.8249 65.5019 56.8188 65.5019H42.1478C43.6471 64.0995 44.5867 62.1052 44.5867 59.8951C44.5867 57.6854 43.6471 55.6915 42.1486 54.289H63.4824C65.2763 54.289 66.7356 52.8295 66.7356 51.0357C66.7356 49.2418 65.2761 47.7825 63.4824 47.7825H46.5808C46.7228 47.4176 46.8019 47.0207 46.8019 46.6058C46.8019 46.1908 46.7228 45.7947 46.5808 45.429H74.5567C76.3507 45.429 77.81 43.9698 77.81 42.1766C77.8098 40.3822 76.3503 38.9231 74.5563 38.9231ZM61.3366 72.0766C61.3366 74.5572 59.3182 76.5756 56.8376 76.5756C54.3562 76.5756 52.3386 74.5572 52.3386 72.0766C52.3386 69.6028 54.346 67.5885 56.8186 67.5783H56.8376C56.8396 67.5783 56.8415 67.5783 56.8437 67.5783C59.3216 67.5817 61.3366 69.5979 61.3366 72.0766ZM42.51 59.8951C42.51 62.9869 39.9948 65.5013 36.9031 65.5013C33.8121 65.5013 31.2969 62.9869 31.2969 59.8951C31.2969 56.8036 33.8121 54.289 36.9031 54.289C39.9948 54.289 42.51 56.8034 42.51 59.8951ZM50.1238 34.4241C50.1238 31.9435 52.1422 29.9251 54.6228 29.9251C57.1034 29.9251 59.1218 31.9435 59.1218 34.4241C59.1218 36.9047 57.1034 38.9231 54.6228 38.9231C52.142 38.9231 50.1238 36.9047 50.1238 34.4241ZM63.482 52.2125C62.8332 52.2125 62.3052 51.6845 62.3052 51.0357C62.3052 50.3869 62.8332 49.859 63.482 49.859C64.1308 49.859 64.6587 50.3869 64.6587 51.0357C64.6589 51.6845 64.131 52.2125 63.482 52.2125ZM44.725 46.6056C44.725 47.2544 44.1971 47.7823 43.5482 47.7823C42.8994 47.7823 42.3715 47.2544 42.3715 46.6056C42.3715 45.9568 42.8994 45.4288 43.5482 45.4288C44.1971 45.4288 44.725 45.9568 44.725 46.6056ZM74.5563 43.3523C73.9075 43.3523 73.3796 42.8246 73.3796 42.1764C73.3796 41.5276 73.9075 40.9996 74.5563 40.9996C75.2051 40.9996 75.7331 41.5276 75.7331 42.1764C75.7333 42.8246 75.2053 43.3523 74.5563 43.3523Z" fill="#666666"/>
<path d="M62.3748 84.5184C61.6211 84.5184 61.0076 83.9051 61.0076 83.1512V77.5747C59.8102 78.486 58.3541 78.9812 56.8376 78.9812C53.0303 78.9812 49.9332 75.8839 49.9332 72.0768C49.9332 70.5601 50.428 69.1045 51.3389 67.9076H36.9038C32.4768 67.8964 28.8916 64.3026 28.8916 59.8955C28.8916 55.4779 32.4854 51.8839 36.903 51.8839H60.0021C59.9342 51.6067 59.8999 51.323 59.8999 51.036C59.8999 50.7486 59.9342 50.4649 60.0019 50.188H43.5484C41.5732 50.188 39.9662 48.5812 39.9662 46.606C39.9662 44.6308 41.5732 43.0238 43.5484 43.0238H71.0763C71.0086 42.7473 70.9743 42.4636 70.9743 42.1768C70.9743 41.8894 71.0086 41.6057 71.0763 41.3289H54.6228C50.8155 41.3289 47.7184 38.2316 47.7184 34.4245V21.1346C47.7184 20.3808 48.3317 19.7673 49.0857 19.7673C49.8396 19.7673 50.4529 20.3806 50.4529 21.1346V28.9259C51.6499 28.0146 53.1058 27.5196 54.623 27.5196C58.4302 27.5196 61.5273 30.6169 61.5273 34.4239C61.5273 35.9405 61.0321 37.3962 60.1206 38.594H74.5565C76.5318 38.594 78.1387 40.201 78.1387 42.1762C78.1387 44.1511 76.5318 45.7577 74.5565 45.7577H47.0284C47.0961 46.0349 47.1304 46.3186 47.1304 46.6056C47.1304 46.893 47.0961 47.1767 47.0284 47.4535H63.4819C65.4572 47.4535 67.0642 49.0603 67.0642 51.0356C67.0642 53.0108 65.4572 54.6178 63.4819 54.6178H42.9235C44.1976 56.0726 44.9155 57.9558 44.9155 59.895C44.9155 61.8349 44.1974 63.7181 42.9233 65.1727H56.8187C56.8189 65.1727 56.8195 65.1727 56.8201 65.1727C60.646 65.1727 63.7423 68.2695 63.7423 72.0764V83.151C63.7421 83.9049 63.1288 84.5184 62.3748 84.5184ZM61.6656 76.1052V83.1512C61.6656 83.5422 61.9838 83.8604 62.3748 83.8604C62.7659 83.8604 63.0841 83.5422 63.0841 83.1512V72.0766C63.0841 68.6323 60.2819 65.8301 56.8376 65.8301L41.3142 65.8307L41.9228 65.2616C43.4066 63.8737 44.2574 61.9179 44.2574 59.8954C44.2574 57.8736 43.4068 55.9178 41.9234 54.5293L41.3154 53.9604H63.4819C65.0944 53.9604 66.4064 52.6485 66.4064 51.036C66.4064 49.4235 65.0944 48.1118 63.4819 48.1118H46.0995L46.2741 47.6635C46.4057 47.3246 46.4726 46.969 46.4726 46.606C46.4726 46.2438 46.4057 45.8879 46.2739 45.5483L46.1001 45.1002H74.5565C76.169 45.1002 77.4809 43.7887 77.4809 42.1766C77.4809 40.5641 76.169 39.2522 74.5565 39.2522H58.6512L59.172 38.698C60.2664 37.5332 60.8693 36.0152 60.8693 34.4243C60.8693 30.98 58.0671 28.1778 54.6228 28.1778C53.0309 28.1778 51.5132 28.7807 50.3492 29.8751L49.7949 30.3963V21.1346C49.7949 20.7436 49.4767 20.4254 49.0857 20.4254C48.6947 20.4254 48.3765 20.7436 48.3765 21.1346V34.4241C48.3765 37.8685 51.1786 40.6706 54.623 40.6706H72.0054L71.8308 41.1189C71.6992 41.4578 71.6323 41.8135 71.6323 42.1764C71.6323 42.5388 71.6992 42.8943 71.8308 43.2331L72.0054 43.6814H43.5482C41.9357 43.6814 40.6238 44.9933 40.6238 46.6058C40.6238 48.2183 41.9357 49.53 43.5482 49.53H60.9307L60.7561 49.9783C60.6244 50.3171 60.5575 50.6728 60.5575 51.0358C60.5575 51.3979 60.6244 51.7538 60.7563 52.0934L60.9301 52.5415H36.9026C32.848 52.5415 29.549 55.8405 29.549 59.8954C29.549 63.9404 32.8401 67.2392 36.8852 67.249L52.808 67.2496L52.2871 67.8038C51.1932 68.9678 50.5907 70.4853 50.5907 72.0768C50.5907 75.5211 53.3929 78.3233 56.8372 78.3233C58.4285 78.3233 59.9462 77.7206 61.1108 76.6263L61.6656 76.1052ZM56.8378 76.9045C54.1757 76.9045 52.0099 74.7387 52.0099 72.0766C52.0099 69.4259 54.1666 67.2603 56.8174 67.2494C59.5028 67.2531 61.6656 69.4186 61.6656 72.0766C61.6656 74.7385 59.4999 76.9045 56.8378 76.9045ZM56.8433 67.9072C54.5306 67.9166 52.6677 69.7871 52.6677 72.0764C52.6677 74.3758 54.5384 76.2465 56.8378 76.2465C59.1371 76.2465 61.0078 74.3758 61.0078 72.0764C61.0078 69.7808 59.1395 67.9105 56.8433 67.9072ZM36.903 65.8301C33.6306 65.8301 30.9681 63.1676 30.9681 59.8952C30.9681 56.6225 33.6306 53.96 36.903 53.96C40.1761 53.96 42.839 56.6225 42.839 59.8952C42.839 63.1676 40.1761 65.8301 36.903 65.8301ZM36.903 54.618C33.9931 54.618 31.6261 56.9855 31.6261 59.8952C31.6261 62.8049 33.9933 65.1721 36.903 65.1721C39.8133 65.1721 42.1812 62.8049 42.1812 59.8952C42.1812 56.9855 39.8133 54.618 36.903 54.618ZM63.4819 52.5413C62.6517 52.5413 61.9762 51.8659 61.9762 51.0356C61.9762 50.2053 62.6517 49.5298 63.4819 49.5298C64.3122 49.5298 64.9877 50.2053 64.9877 51.0356C64.9877 51.8661 64.3122 52.5413 63.4819 52.5413ZM63.4819 50.1878C63.0144 50.1878 62.634 50.5683 62.634 51.0358C62.634 51.5033 63.0144 51.8837 63.4819 51.8837C63.9495 51.8837 64.3299 51.5033 64.3299 51.0358C64.3299 50.5681 63.9495 50.1878 63.4819 50.1878ZM43.5482 48.1116C42.7179 48.1116 42.0424 47.4361 42.0424 46.6058C42.0424 45.7755 42.7179 45.1 43.5482 45.1C44.3785 45.1 45.054 45.7755 45.054 46.6058C45.054 47.4361 44.3785 48.1116 43.5482 48.1116ZM43.5482 45.7579C43.0807 45.7579 42.7003 46.1383 42.7003 46.6058C42.7003 47.0733 43.0807 47.4537 43.5482 47.4537C44.0157 47.4537 44.3961 47.0733 44.3961 46.6058C44.3961 46.1381 44.0157 45.7579 43.5482 45.7579ZM74.5563 43.6814C73.726 43.6814 73.0505 43.0063 73.0505 42.1764C73.0505 41.3461 73.726 40.6706 74.5563 40.6706C75.3866 40.6706 76.0621 41.3461 76.0621 42.1764C76.0621 43.0063 75.3866 43.6814 74.5563 43.6814ZM74.5563 41.3285C74.0888 41.3285 73.7084 41.7089 73.7084 42.1764C73.7084 42.6435 74.0888 43.0234 74.5563 43.0234C75.0238 43.0234 75.4042 42.6433 75.4042 42.1764C75.4042 41.7089 75.0238 41.3285 74.5563 41.3285ZM54.6226 39.252C51.9605 39.252 49.7947 37.0862 49.7947 34.4241C49.7947 31.762 51.9605 29.5963 54.6226 29.5963C57.2847 29.5963 59.4504 31.762 59.4504 34.4241C59.4504 37.0861 57.2847 39.252 54.6226 39.252ZM54.6226 30.2541C52.3232 30.2541 50.4525 32.1248 50.4525 34.4241C50.4525 36.7235 52.3232 38.5942 54.6226 38.5942C56.9219 38.5942 58.7926 36.7235 58.7926 34.4241C58.7926 32.1248 56.9219 30.2541 54.6226 30.2541Z" fill="#666666"/>
<path d="M56.6294 34.4242C56.6294 33.3169 55.7291 32.4166 54.6227 32.4166C53.5154 32.4166 52.6151 33.3169 52.6151 34.4242C52.6151 35.5306 53.5154 36.4309 54.6227 36.4309C55.7291 36.4309 56.6294 35.5306 56.6294 34.4242Z" fill="#666666"/>
<path d="M54.6226 36.7598C53.3342 36.7598 52.2861 35.7122 52.2861 34.4242C52.2861 33.1358 53.3342 32.0878 54.6226 32.0878C55.9106 32.0878 56.9582 33.1358 56.9582 34.4242C56.9582 35.7122 55.9106 36.7598 54.6226 36.7598ZM54.6226 32.7456C53.6969 32.7456 52.944 33.4986 52.944 34.4242C52.944 35.3494 53.6969 36.102 54.6226 36.102C55.5478 36.102 56.3004 35.3494 56.3004 34.4242C56.3004 33.4986 55.5478 32.7456 54.6226 32.7456Z" fill="#666666"/>
<path d="M56.8378 69.9313C55.6542 69.9313 54.6917 70.8938 54.6917 72.0766C54.6917 73.2602 55.6544 74.2227 56.8378 74.2227C58.0206 74.2227 58.9831 73.2602 58.9831 72.0766C58.9829 70.894 58.0206 69.9313 56.8378 69.9313Z" fill="#666666"/>
<path d="M56.8378 74.5516C55.4729 74.5516 54.3624 73.4414 54.3624 72.0765C54.3624 70.7121 55.4729 69.6023 56.8378 69.6023C58.2021 69.6023 59.3119 70.7123 59.3119 72.0765C59.3119 73.4416 58.2019 74.5516 56.8378 74.5516ZM56.8378 70.2603C55.8356 70.2603 55.0205 71.0753 55.0205 72.0767C55.0205 73.0788 55.8358 73.8938 56.8378 73.8938C57.8391 73.8938 58.6541 73.0786 58.6541 72.0767C58.6541 71.0751 57.8391 70.2603 56.8378 70.2603Z" fill="#666666"/>
<path d="M36.9031 63.1483C38.697 63.1483 40.1563 61.6888 40.1563 59.8951C40.1563 58.1011 38.697 56.6418 36.9031 56.6418C35.1099 56.6418 33.6506 58.1013 33.6506 59.8951C33.6506 61.6888 35.1099 63.1483 36.9031 63.1483ZM36.9031 58.7181C37.5519 58.7181 38.0798 59.2461 38.0798 59.8949C38.0798 60.5437 37.5519 61.0716 36.9031 61.0716C36.2549 61.0716 35.7271 60.5437 35.7271 59.8949C35.7271 59.2461 36.2549 58.7181 36.9031 58.7181Z" fill="#666666"/>
<path d="M36.903 63.4772C34.9282 63.4772 33.3218 61.8704 33.3218 59.8951C33.3218 57.9199 34.9282 56.3129 36.903 56.3129C38.8783 56.3129 40.4853 57.9199 40.4853 59.8951C40.4853 61.8704 38.8783 63.4772 36.903 63.4772ZM36.903 56.9707C35.2909 56.9707 33.9798 58.2826 33.9798 59.8951C33.9798 61.5076 35.2911 62.8193 36.903 62.8193C38.5155 62.8193 39.8275 61.5076 39.8275 59.8951C39.8275 58.2826 38.5153 56.9707 36.903 56.9707ZM36.903 61.4009C36.0732 61.4009 35.3981 60.7254 35.3981 59.8951C35.3981 59.0648 36.0732 58.3893 36.903 58.3893C37.7333 58.3893 38.4088 59.0648 38.4088 59.8951C38.4088 60.7254 37.7333 61.4009 36.903 61.4009ZM36.903 59.0472C36.4359 59.0472 36.0561 59.4276 36.0561 59.8951C36.0561 60.3626 36.4361 60.743 36.903 60.743C37.3706 60.743 37.751 60.3626 37.751 59.8951C37.7508 59.4276 37.3706 59.0472 36.903 59.0472Z" fill="#666666"/>
<path d="M43.8466 30.933L42.4056 30.6883C42.2555 30.2037 42.0624 29.7364 41.8266 29.2902L42.6757 28.1021C43.0359 27.5959 42.9802 26.9056 42.5386 26.468L41.2606 25.1901C41.0205 24.9499 40.703 24.8169 40.364 24.8169C40.0982 24.8169 39.8451 24.8983 39.6307 25.0529L38.4384 25.902C37.9752 25.6574 37.4906 25.4561 36.9888 25.3058L36.7486 23.8821C36.6456 23.2686 36.1181 22.8226 35.4963 22.8226H33.6908C33.0689 22.8226 32.5413 23.2686 32.4383 23.8821L32.1897 25.3401C31.7093 25.4902 31.2418 25.6876 30.7958 25.9277L29.6163 25.0784C29.4019 24.924 29.1445 24.8426 28.8784 24.8426C28.5396 24.8426 28.2179 24.9756 27.982 25.2158L26.6996 26.4937C26.262 26.9313 26.202 27.6216 26.5624 28.1278L27.4202 29.333C27.1841 29.7833 26.9954 30.2508 26.8496 30.7356L25.4259 30.9755C24.8124 31.0785 24.3665 31.6061 24.3665 32.228V34.0335C24.3665 34.6553 24.8124 35.1828 25.4259 35.2858L26.884 35.5346C27.0341 36.0149 27.2314 36.4824 27.4716 36.9285L26.6266 38.1035C26.2664 38.6097 26.3221 39.3001 26.7637 39.7376L28.0417 41.0156C28.2818 41.2557 28.5993 41.3887 28.9381 41.3887C29.2039 41.3887 29.457 41.3073 29.6714 41.1529L30.8766 40.2952C31.3098 40.5224 31.7644 40.707 32.2317 40.8525L32.4719 42.2936C32.5749 42.907 33.1024 43.353 33.7241 43.353H35.534C36.1559 43.353 36.6835 42.907 36.7863 42.2936L37.0305 40.8525C37.5153 40.7025 37.9829 40.5096 38.4288 40.2736L39.6167 41.1227C39.8312 41.2771 40.0886 41.3587 40.3542 41.3587C40.693 41.3587 41.0105 41.2257 41.2508 40.9856L42.5288 39.7076C42.9663 39.2701 43.0261 38.5797 42.6659 38.0735L41.8168 36.8811C42.0528 36.4308 42.25 35.9635 42.3958 35.483L43.8368 35.2429C44.4503 35.1401 44.8962 34.6125 44.8962 33.9906V32.185C44.906 31.5633 44.4601 31.0358 43.8466 30.933ZM43.7481 33.9908C43.7481 34.0465 43.7096 34.0936 43.6539 34.1022L41.8525 34.4026C41.6253 34.441 41.445 34.6084 41.3893 34.8273C41.2263 35.4577 40.9775 36.0625 40.6432 36.6242C40.5274 36.8216 40.5359 37.0659 40.6687 37.2546L41.7281 38.747C41.7579 38.79 41.7538 38.8543 41.7154 38.893L40.4374 40.171C40.4072 40.2008 40.3774 40.2051 40.3558 40.2051C40.3303 40.2051 40.3087 40.1965 40.2914 40.1837L38.8033 39.1243C38.6189 38.9915 38.3701 38.9828 38.1728 39.0988C37.6109 39.4333 37.0062 39.6819 36.3757 39.8449C36.1526 39.9006 35.9852 40.085 35.9509 40.3081L35.6464 42.1095C35.6378 42.1653 35.5907 42.2037 35.535 42.2037H33.7294C33.6737 42.2037 33.6264 42.1653 33.6178 42.1095L33.3176 40.3081C33.2788 40.0809 33.1118 39.9006 32.8929 39.8449C32.2798 39.6862 31.6877 39.4417 31.1344 39.1243C31.0444 39.0729 30.9416 39.0472 30.8429 39.0472C30.7271 39.0472 30.6069 39.0815 30.5082 39.1545L29.0071 40.2224C28.9858 40.2353 28.9644 40.244 28.9428 40.244C28.9257 40.244 28.8912 40.2396 28.8614 40.2096L27.5834 38.9316C27.5449 38.8932 27.5404 38.833 27.5706 38.7859L28.6256 37.3062C28.7586 37.1175 28.767 36.8687 28.6513 36.6715C28.3166 36.1141 28.0591 35.5093 27.8963 34.8787C27.8363 34.6602 27.6562 34.4928 27.4331 34.4542L25.6189 34.1454C25.5632 34.1367 25.5248 34.0897 25.5248 34.0339V32.2284C25.5248 32.1725 25.5632 32.1254 25.6189 32.1168L27.4074 31.8168C27.6348 31.7779 27.819 31.611 27.8749 31.3879C28.0334 30.7574 28.2781 30.1484 28.6083 29.5865C28.724 29.3891 28.7111 29.1449 28.5781 28.9603L27.5102 27.4592C27.48 27.4162 27.4845 27.3519 27.523 27.3134L28.8009 26.0354C28.8312 26.0052 28.861 26.0011 28.8824 26.0011C28.9081 26.0011 28.9296 26.0097 28.9469 26.0225L30.4264 27.0774C30.6151 27.2104 30.8639 27.2191 31.0611 27.1031C31.6186 26.7686 32.2233 26.5114 32.8538 26.3484C33.0724 26.2883 33.2398 26.1082 33.2784 25.8852L33.5874 24.071C33.596 24.0151 33.6431 23.9766 33.6988 23.9766H35.5046C35.5603 23.9766 35.6074 24.0151 35.616 24.071L35.9164 25.8595C35.9548 26.0867 36.1222 26.2711 36.3453 26.3268C36.9929 26.4896 37.6103 26.7429 38.1851 27.0817C38.3823 27.1975 38.6267 27.189 38.8155 27.056L40.2952 25.9925C40.3165 25.9795 40.3381 25.9709 40.3595 25.9709C40.3768 25.9709 40.4111 25.9752 40.4409 26.0052L41.7189 27.2832C41.7574 27.3221 41.7619 27.3819 41.7319 27.4292L40.6724 28.9173C40.5394 29.1017 40.531 29.3505 40.6467 29.5478C40.9814 30.1097 41.23 30.7144 41.393 31.345C41.4488 31.568 41.633 31.735 41.856 31.7695L43.6575 32.074C43.7132 32.0826 43.7518 32.1299 43.7518 32.1856V33.9912H43.7481V33.9908Z" fill="#666666"/>
<path d="M34.6342 28.6556C32.1897 28.6556 30.2039 30.6413 30.2039 33.086C30.2039 35.5305 32.1897 37.5162 34.6342 37.5162C37.079 37.5162 39.0646 35.5305 39.0646 33.086C39.0646 30.6413 37.079 28.6556 34.6342 28.6556ZM34.6342 36.3583C32.8287 36.3583 31.3618 34.8916 31.3618 33.086C31.3618 31.2805 32.8285 29.8136 34.6342 29.8136C36.4398 29.8136 37.9065 31.2805 37.9065 33.086C37.9065 34.8916 36.4398 36.3583 34.6342 36.3583Z" fill="#666666"/>
<path d="M83.7708 67.7761L82.3298 67.5314C82.1797 67.0469 81.9866 66.5793 81.7508 66.1334L82.5999 64.9453C82.9601 64.4391 82.9044 63.7487 82.4628 63.3112L81.1848 62.0332C80.9447 61.7931 80.6272 61.66 80.2882 61.66C80.0224 61.66 79.7693 61.7415 79.5548 61.8961L78.3626 62.7452C77.8994 62.5005 77.4148 62.2992 76.9129 62.149L76.6728 60.7252C76.5698 60.1117 76.0423 59.6658 75.4205 59.6658H73.615C72.9931 59.6658 72.4655 60.1117 72.3625 60.7252L72.1139 62.1833C71.6335 62.3334 71.1659 62.5307 70.72 62.7709L69.5405 61.9216C69.3261 61.7672 69.0687 61.6857 68.8026 61.6857C68.4638 61.6857 68.1421 61.8188 67.9062 62.0589L66.6237 63.3369C66.1862 63.7744 66.1262 64.4648 66.4866 64.971L67.3444 66.1762C67.1083 66.6264 66.9196 67.0939 66.7738 67.5787L65.3501 67.8187C64.7366 67.9217 64.2906 68.4492 64.2906 69.0711V70.8767C64.2906 71.4984 64.7366 72.026 65.3501 72.129L66.8082 72.3777C66.9582 72.858 67.1556 73.3255 67.3958 73.7717L66.5508 74.9467C66.1906 75.4528 66.2463 76.1432 66.6879 76.5807L67.9659 77.8587C68.206 78.0988 68.5235 78.2319 68.8623 78.2319C69.1281 78.2319 69.3812 78.1504 69.5956 77.996L70.8008 77.1383C71.234 77.3655 71.6886 77.5501 72.1559 77.6957L72.3961 79.1367C72.4991 79.7502 73.0266 80.1961 73.6483 80.1961H75.4582C76.0801 80.1961 76.6077 79.7502 76.7105 79.1367L76.9549 77.6957C77.4397 77.5456 77.9072 77.3527 78.3532 77.1167L79.5411 77.9658C79.7555 78.1202 80.013 78.2018 80.2786 78.2018C80.6174 78.2018 80.9348 78.0688 81.1752 77.8287L82.4532 76.5507C82.8907 76.1132 82.9505 75.4228 82.5903 74.9166L81.7412 73.7242C81.9772 73.2739 82.1744 72.8066 82.3202 72.3261L83.7612 72.086C84.3746 71.9832 84.8206 71.4556 84.8206 70.8337V69.0282C84.8302 68.4065 84.3843 67.8789 83.7708 67.7761ZM83.6721 70.8341C83.6721 70.8898 83.6336 70.9369 83.5779 70.9455L81.7765 71.2459C81.5493 71.2844 81.369 71.4517 81.3133 71.6707C81.1503 72.301 80.9015 72.9059 80.5672 73.4676C80.4512 73.6649 80.4599 73.9092 80.5927 74.0979L81.6521 75.5904C81.6819 75.6333 81.6778 75.6977 81.6394 75.7363L80.3614 77.0143C80.3312 77.0441 80.3013 77.0484 80.2798 77.0484C80.2543 77.0484 80.2327 77.0398 80.2154 77.0271L78.7273 75.9676C78.5429 75.8348 78.2941 75.8262 78.0968 75.9421C77.5349 76.2766 76.9302 76.5252 76.2997 76.6882C76.0766 76.744 75.9092 76.9284 75.8749 77.1514L75.5704 78.9529C75.5618 79.0086 75.5147 79.047 75.459 79.047H73.6534C73.5977 79.047 73.5504 79.0086 73.5418 78.9529L73.2416 77.1514C73.2028 76.9243 73.0358 76.744 72.8169 76.6882C72.2038 76.5295 71.6117 76.2851 71.0584 75.9676C70.9684 75.9162 70.8656 75.8905 70.7669 75.8905C70.6511 75.8905 70.5309 75.9249 70.4322 75.9978L68.9311 77.0657C68.9098 77.0787 68.8884 77.0873 68.8668 77.0873C68.8497 77.0873 68.8152 77.083 68.7854 77.053L67.5074 75.775C67.4689 75.7365 67.4644 75.6763 67.4946 75.6292L68.5496 74.1495C68.6826 73.9608 68.691 73.712 68.5752 73.5149C68.2405 72.9575 67.9831 72.3526 67.8203 71.7221C67.7603 71.5035 67.5802 71.3362 67.3571 71.2975L65.5429 70.9887C65.4872 70.9801 65.4488 70.933 65.4488 70.8773V69.0717C65.4488 69.0158 65.4872 68.9687 65.5429 68.9601L67.3314 68.6601C67.5588 68.6213 67.743 68.4543 67.7989 68.2313C67.9574 67.6007 68.2021 66.9917 68.5323 66.4298C68.648 66.2325 68.6351 65.9882 68.5021 65.8036L67.4342 64.3025C67.404 64.2596 67.4085 64.1952 67.447 64.1568L68.7249 62.8788C68.7552 62.8486 68.785 62.8444 68.8064 62.8444C68.8321 62.8444 68.8536 62.8531 68.8709 62.8658L70.3504 63.9207C70.5391 64.0538 70.7879 64.0624 70.9851 63.9465C71.5426 63.6119 72.1473 63.3547 72.7778 63.1917C72.9964 63.1317 73.1637 62.9516 73.2024 62.7285L73.5112 60.9143C73.5198 60.8584 73.5669 60.82 73.6226 60.82H75.4284C75.4841 60.82 75.5312 60.8584 75.5398 60.9143L75.8402 62.7028C75.8786 62.93 76.046 63.1144 76.269 63.1701C76.9167 63.333 77.5341 63.5862 78.1089 63.9251C78.3061 64.0408 78.5505 64.0322 78.7393 63.8994L80.2189 62.8358C80.2403 62.8229 80.2619 62.8142 80.2833 62.8142C80.3006 62.8142 80.3349 62.8186 80.3647 62.8486L81.6427 64.1266C81.6812 64.1654 81.6857 64.2252 81.6556 64.2725L80.5962 65.7606C80.4632 65.945 80.4548 66.1938 80.5705 66.3912C80.9052 66.9531 81.1538 67.5575 81.3168 68.1883C81.3725 68.4114 81.5568 68.5783 81.7798 68.6128L83.5813 68.9173C83.637 68.926 83.6758 68.9732 83.6758 69.029V70.8345H83.6721V70.8341Z" fill="#666666"/>
<path d="M74.5584 65.4988C72.1139 65.4988 70.1281 67.4844 70.1281 69.9292C70.1281 72.3737 72.1139 74.3593 74.5584 74.3593C77.0032 74.3593 78.9888 72.3737 78.9888 69.9292C78.9888 67.4844 77.0032 65.4988 74.5584 65.4988ZM74.5584 73.2016C72.7529 73.2016 71.286 71.7349 71.286 69.9294C71.286 68.1238 72.7527 66.6569 74.5584 66.6569C76.364 66.6569 77.8307 68.1238 77.8307 69.9294C77.8307 71.7347 76.364 73.2016 74.5584 73.2016Z" fill="#666666"/>
</svg>
