<svg width="162" height="103" viewBox="0 0 162 103" fill="none" xmlns="http://www.w3.org/2000/svg">
<path d="M137.082 33.9379H137.41L138.238 41.6496H150.746L151.574 33.9379C154.33 33.9379 156.564 31.7114 156.564 28.9692V23.1253H158.615V19.2445H156.564V14.2231C156.564 11.4825 154.33 9.25494 151.574 9.25494L150.746 1.54321H138.238L137.41 9.25494H137.082C134.325 9.25494 132.088 11.4825 132.088 14.2231V28.9692C132.088 31.7114 134.325 33.9379 137.082 33.9379ZM144.337 15.7838C144.337 15.6377 144.456 15.5188 144.603 15.5188C144.749 15.5188 144.869 15.6377 144.869 15.7838C144.869 15.9296 144.75 16.0487 144.603 16.0487C144.456 16.0485 144.337 15.9296 144.337 15.7838ZM134.235 11.6857H154.417V31.5072H148.429V28.0255L149.515 26.9448C149.631 26.989 149.758 27.0144 149.89 27.0144C150.477 27.0144 150.955 26.5388 150.955 25.955C150.955 25.3708 150.477 24.8956 149.89 24.8956C149.303 24.8956 148.826 25.3708 148.826 25.955C148.826 26.116 148.863 26.268 148.928 26.4048L147.748 27.5801C147.673 27.6545 147.631 27.7555 147.631 27.8609V31.5072H146.731V23.4699L147.469 22.7363C147.601 22.7952 147.748 22.8288 147.902 22.8288C148.489 22.8288 148.966 22.3536 148.966 21.7694C148.966 21.1854 148.489 20.7101 147.902 20.7101C147.315 20.7101 146.838 21.1854 146.838 21.7694C146.838 21.9088 146.866 22.0418 146.915 22.1637L146.05 23.0247C145.975 23.0992 145.933 23.2004 145.933 23.3056V31.5074H145.002V16.7653C145.391 16.6078 145.667 16.2276 145.667 15.784C145.667 15.1998 145.19 14.7246 144.603 14.7246C144.016 14.7246 143.539 15.1998 143.539 15.784C143.539 16.2276 143.814 16.6078 144.204 16.7653V31.5074H143.272V21.1758C143.272 21.0702 143.23 20.969 143.156 20.8945L142.349 20.0915C142.421 19.9484 142.463 19.7875 142.463 19.6167C142.463 19.0325 141.986 18.5573 141.399 18.5573C140.812 18.5573 140.335 19.0325 140.335 19.6167C140.335 20.2009 140.812 20.6761 141.399 20.6761C141.521 20.6761 141.638 20.6543 141.748 20.6163L142.475 21.3401V31.5072H141.543V25.742C141.543 25.6368 141.501 25.5356 141.426 25.4611L140.246 24.2859C140.311 24.1491 140.348 23.997 140.348 23.8361C140.348 23.2517 139.871 22.7767 139.284 22.7767C138.697 22.7767 138.219 23.2519 138.219 23.8361C138.219 24.4201 138.697 24.8954 139.284 24.8954C139.416 24.8954 139.543 24.8701 139.66 24.8258L140.745 25.9065V31.5072H134.236V11.6857H134.235ZM149.624 25.9548C149.624 25.809 149.744 25.6899 149.89 25.6899C150.037 25.6899 150.157 25.809 150.157 25.9548C150.157 26.1009 150.037 26.2196 149.89 26.2196C149.743 26.2196 149.624 26.1009 149.624 25.9548ZM147.636 21.7692C147.636 21.6232 147.755 21.5043 147.902 21.5043C148.049 21.5043 148.168 21.6232 148.168 21.7692C148.168 21.9151 148.049 22.0342 147.902 22.0342C147.755 22.0342 147.636 21.9151 147.636 21.7692ZM141.664 19.6165C141.664 19.7625 141.545 19.8814 141.398 19.8814C141.252 19.8814 141.132 19.7625 141.132 19.6165C141.132 19.4704 141.252 19.3518 141.398 19.3518C141.545 19.3518 141.664 19.4704 141.664 19.6165ZM139.549 23.8359C139.549 23.9821 139.43 24.1008 139.283 24.1008C139.136 24.1008 139.017 23.9821 139.017 23.8359C139.017 23.69 139.136 23.5709 139.283 23.5709C139.43 23.5709 139.549 23.69 139.549 23.8359Z" fill="#666666"/>
<path d="M156.155 51.0287H133.568C131.688 51.0287 130.146 52.5632 130.146 54.4343V98.051C130.146 99.9223 131.688 101.457 133.568 101.457H156.155C158.035 101.457 159.576 99.9221 159.576 98.051V54.4343C159.576 52.563 158.035 51.0287 156.155 51.0287ZM141.25 53.4834H148.473C148.706 53.4834 148.889 53.6671 148.889 53.8994C148.889 54.1245 148.706 54.3064 148.473 54.3064H141.25C141.017 54.3064 140.832 54.1245 140.832 53.8994C140.832 53.6671 141.017 53.4834 141.25 53.4834ZM144.861 99.7547C143.913 99.7547 143.152 98.9947 143.152 98.051C143.152 97.1091 143.913 96.3491 144.861 96.3491C145.808 96.3491 146.571 97.1091 146.571 98.051C146.571 98.9947 145.807 99.7547 144.861 99.7547ZM144.428 67.2299C144.428 66.9764 144.635 66.7702 144.89 66.7702C145.145 66.7702 145.351 66.9762 145.351 67.2299C145.351 67.4831 145.145 67.6895 144.89 67.6895C144.635 67.6895 144.428 67.4829 144.428 67.2299ZM157.193 95.1533H152.975C152.982 95.1467 152.996 95.14 152.996 95.1332H151.53V88.4774L153.415 86.6017C153.618 86.6786 153.837 86.7224 154.067 86.7224C155.086 86.7224 155.915 85.8972 155.915 84.8837C155.915 83.8696 155.086 83.0448 154.067 83.0448C153.048 83.0448 152.22 83.8694 152.22 84.8837C152.22 85.1629 152.284 85.4269 152.397 85.6644L150.348 87.7043C150.218 87.8335 150.145 88.0091 150.145 88.1918V95.133H148.584V80.5704L149.864 79.2967C150.094 79.3991 150.348 79.4575 150.616 79.4575C151.635 79.4575 152.464 78.6329 152.464 77.6186C152.464 76.6051 151.635 75.7799 150.616 75.7799C149.597 75.7799 148.769 76.6051 148.769 77.6186C148.769 77.8606 148.817 78.0913 148.903 78.3027L147.402 79.7971C147.272 79.9264 147.199 80.102 147.199 80.2845V95.1328H145.582V68.933C146.259 68.6596 146.737 67.9995 146.737 67.2297C146.737 66.2155 145.909 65.3909 144.89 65.3909C143.872 65.3909 143.043 66.2155 143.043 67.2297C143.043 67.9995 143.521 68.6594 144.197 68.933V95.133H142.581V76.588C142.581 76.4049 142.508 76.2293 142.378 76.0999L140.977 74.706C141.103 74.4578 141.175 74.1787 141.175 73.8822C141.175 72.8681 140.347 72.0433 139.328 72.0433C138.31 72.0433 137.481 72.8681 137.481 73.8822C137.481 74.8959 138.31 75.7209 139.328 75.7209C139.54 75.7209 139.743 75.6833 139.934 75.6173L141.195 76.8734V95.133H139.579V84.5141C139.579 84.3315 139.506 84.1558 139.376 84.0267L137.327 81.9868C137.439 81.7494 137.504 81.4853 137.504 81.2061C137.504 80.192 136.675 79.3674 135.657 79.3674C134.638 79.3674 133.809 80.192 133.809 81.2061C133.809 82.2198 134.638 83.045 135.657 83.045C135.887 83.045 136.106 83.0009 136.309 82.9243L138.194 84.8V95.1332H136.808C136.808 95.1402 136.823 95.1467 136.83 95.1533H132.527V56.4318H157.193V95.1533ZM153.606 84.8833C153.606 84.63 153.813 84.4236 154.067 84.4236C154.322 84.4236 154.529 84.6302 154.529 84.8833C154.529 85.137 154.322 85.343 154.067 85.343C153.813 85.343 153.606 85.137 153.606 84.8833ZM150.155 77.6188C150.155 77.3653 150.362 77.1591 150.617 77.1591C150.871 77.1591 151.078 77.3651 151.078 77.6188C151.078 77.872 150.871 78.0784 150.617 78.0784C150.362 78.0784 150.155 77.8718 150.155 77.6188ZM139.79 73.8824C139.79 74.1357 139.583 74.3421 139.328 74.3421C139.074 74.3421 138.866 74.1357 138.866 73.8824C138.866 73.6287 139.074 73.4227 139.328 73.4227C139.583 73.4225 139.79 73.6287 139.79 73.8824ZM136.118 81.2057C136.118 81.4591 135.911 81.6653 135.657 81.6653C135.402 81.6653 135.195 81.4593 135.195 81.2057C135.195 80.9524 135.402 80.746 135.657 80.746C135.911 80.746 136.118 80.9524 136.118 81.2057Z" fill="#666666"/>
<path d="M107.153 2.68042H8.08011C4.96112 2.68042 2.42377 5.20633 2.42377 8.31102V76.4001C2.42377 79.5049 4.96132 82.0306 8.08011 82.0306H42.0287C42.6614 82.0306 43.1744 82.5412 43.1744 83.1711V88.0978C43.1744 93.2432 38.9689 97.4294 33.7998 97.4294H26.3179C25.5174 97.4294 24.866 98.0777 24.866 98.8746C24.866 99.6714 25.5174 100.32 26.3179 100.32H88.9146C89.7151 100.32 90.3665 99.6714 90.3665 98.8746C90.3665 98.0777 89.7151 97.4294 88.9146 97.4294H81.4327C76.2636 97.4294 72.0581 93.2432 72.0581 88.0978V83.1713C72.0581 82.5414 72.5711 82.0309 73.2038 82.0309H107.152C110.272 82.0309 112.809 79.5049 112.809 76.4003V8.31102C112.809 6.80987 112.22 5.39664 111.15 4.33184C110.081 3.26684 108.661 2.68042 107.153 2.68042ZM71.8684 96.79C71.6762 97.1815 71.2766 97.4297 70.8389 97.4297H44.3946C43.9569 97.4297 43.5573 97.1817 43.3651 96.7902C43.1732 96.3988 43.2217 95.9324 43.4904 95.5886C45.1834 93.4236 46.0783 90.8335 46.0783 88.0982V83.1715C46.0783 82.5416 46.5912 82.0311 47.224 82.0311H68.0093C68.642 82.0311 69.155 82.5416 69.155 83.1715V88.0982C69.155 90.8337 70.0501 93.424 71.7431 95.5886C72.0118 95.9324 72.0606 96.3985 71.8684 96.79ZM109.906 76.4003C109.906 77.9115 108.671 79.1406 107.153 79.1406H8.08011C6.56214 79.1406 5.32732 77.9115 5.32732 76.4003V62.8111C5.32732 62.1812 5.84025 61.6707 6.47302 61.6707H108.76C109.393 61.6707 109.906 62.1812 109.906 62.8111V76.4003ZM109.906 57.6396C109.906 58.2694 109.393 58.78 108.76 58.78H83.811V51.0969C83.811 50.9456 83.8714 50.8005 83.9789 50.6935L88.9985 45.6982C89.1078 45.5894 89.2543 45.5312 89.4037 45.5312C89.4718 45.5312 89.5403 45.5433 89.6064 45.5683C90.1059 45.7563 90.6221 45.8517 91.1407 45.8517C93.5382 45.8517 95.4887 43.9102 95.4887 41.5237C95.4887 39.1372 93.5382 37.1957 91.1407 37.1957C88.7432 37.1957 86.7927 39.1372 86.7927 41.5237C86.7927 42.1576 86.9332 42.776 87.2103 43.3616C87.3131 43.5793 87.2679 43.8378 87.0971 44.0078L81.6394 49.4406C81.3989 49.68 81.2666 49.9981 81.2666 50.3362V58.7802H71.3378V36.7571C71.3378 36.606 71.3981 36.461 71.5054 36.354L74.8645 33.0077C74.9738 32.8988 75.1203 32.8405 75.2699 32.8405C75.3331 32.8405 75.3968 32.851 75.4586 32.8723C75.9257 33.0346 76.4051 33.1169 76.8832 33.1169C79.2807 33.1169 81.2312 31.1754 81.2312 28.7889C81.2312 26.4024 79.2807 24.4611 76.8832 24.4611C74.4857 24.4611 72.5353 26.4026 72.5353 28.7889C72.5353 29.4626 72.6921 30.1148 73.0013 30.7272C73.1123 30.9469 73.0692 31.2126 72.8946 31.3864L69.1647 35.1007C68.9284 35.3358 68.793 35.6623 68.793 35.9965V58.7798H58.8639V24.142C58.8639 23.9099 59.0052 23.7011 59.2212 23.6138C60.8724 22.9459 61.9394 21.3723 61.9394 19.605C61.9394 17.2185 59.989 15.277 57.5917 15.277C55.1942 15.277 53.2437 17.2185 53.2437 19.605C53.2437 21.3711 54.3108 22.9447 55.9624 23.614C56.1782 23.7015 56.3193 23.9103 56.3193 24.142V58.78H46.3904V44.5336C46.3904 44.2003 46.2546 43.874 46.0179 43.6382L42.2863 39.9238C42.1115 39.7498 42.0685 39.4834 42.18 39.2637C42.4899 38.6526 42.6469 38.0008 42.6469 37.3262C42.6469 34.9397 40.6964 32.9982 38.2989 32.9982C35.9014 32.9982 33.951 34.9397 33.951 37.3262C33.951 39.7127 35.9014 41.6543 38.2989 41.6543C38.7767 41.6543 39.2559 41.572 39.7229 41.41C39.7846 41.3887 39.8482 41.3782 39.9115 41.3782C40.061 41.3782 40.2074 41.4366 40.3167 41.5452L43.6778 44.8913C43.7851 44.9983 43.8455 45.1434 43.8455 45.2945V58.78H33.9166V53.2192C33.9166 52.8853 33.7808 52.5584 33.5438 52.3226L28.0847 46.89C27.9135 46.7198 27.8684 46.4609 27.9717 46.243C28.2486 45.6598 28.3888 45.0416 28.3888 44.4057C28.3888 42.0192 26.4384 40.0777 24.0409 40.0777C21.6434 40.0777 19.6929 42.0192 19.6929 44.4057C19.6929 46.7922 21.6434 48.7337 24.0409 48.7337C24.559 48.7337 25.0758 48.6383 25.5772 48.45C25.6429 48.4253 25.7114 48.4134 25.7793 48.4134C25.9287 48.4134 26.0752 48.4716 26.1845 48.5804L31.2041 53.5767C31.3116 53.6837 31.3718 53.8288 31.3718 53.9799V58.7798H6.47281C5.84004 58.7798 5.32712 58.2692 5.32712 57.6394V8.31102C5.32712 6.79982 6.56194 5.57045 8.07991 5.57045H107.153C108.671 5.57045 109.906 6.79982 109.906 8.31102V57.6396H109.906ZM89.3374 41.5239C89.3374 40.5343 90.1462 39.729 91.1405 39.729C92.1348 39.729 92.9436 40.5341 92.9436 41.5239C92.9436 42.5135 92.1348 43.3187 91.1405 43.3187C90.1462 43.3187 89.3374 42.5135 89.3374 41.5239ZM75.0795 28.7893C75.0795 27.7997 75.8885 26.9945 76.8826 26.9945C77.8767 26.9945 78.6858 27.7995 78.6858 28.7893C78.6858 29.7789 77.877 30.5842 76.8826 30.5842C75.8883 30.584 75.0795 29.7789 75.0795 28.7893ZM57.5909 21.3999C56.5966 21.3999 55.7878 20.5946 55.7878 19.605C55.7878 18.6154 56.5968 17.8102 57.5909 17.8102C58.585 17.8102 59.394 18.6154 59.394 19.605C59.394 20.5946 58.585 21.3999 57.5909 21.3999ZM40.1021 37.3264C40.1021 38.316 39.2933 39.1213 38.2989 39.1213C37.3046 39.1213 36.4958 38.3162 36.4958 37.3264C36.4958 36.3367 37.3046 35.5316 38.2989 35.5316C39.2933 35.5316 40.1021 36.3367 40.1021 37.3264ZM25.8442 44.4059C25.8442 45.3954 25.0352 46.2007 24.0411 46.2007C23.0469 46.2007 22.2379 45.3956 22.2379 44.4059C22.2379 43.4161 23.0467 42.611 24.0411 42.611C25.0354 42.611 25.8442 43.4161 25.8442 44.4059Z" fill="#666666"/>
<path d="M57.6173 73.197C59.1656 73.197 60.4206 71.9477 60.4206 70.4065C60.4206 68.8654 59.1656 67.6161 57.6173 67.6161C56.0691 67.6161 54.814 68.8654 54.814 70.4065C54.814 71.9477 56.0691 73.197 57.6173 73.197Z" fill="#666666"/>
</svg>
