<svg width="100" height="100" viewBox="0 0 100 100" fill="none" xmlns="http://www.w3.org/2000/svg">
<path d="M15.625 68.75C16.4879 68.75 17.1875 68.0504 17.1875 67.1875V57.8125C17.1875 55.2279 19.2904 53.125 21.875 53.125H48.4375V67.1875C48.4375 68.0504 49.1371 68.75 50 68.75C50.8629 68.75 51.5625 68.0504 51.5625 67.1875V53.125H78.125C80.7096 53.125 82.8125 55.2279 82.8125 57.8125V67.1875C82.8125 68.0504 83.5121 68.75 84.375 68.75C85.2379 68.75 85.9375 68.0504 85.9375 67.1875V57.8125C85.9375 53.5047 82.4328 50 78.125 50H51.5625V45.3125C51.5625 44.4496 50.8629 43.75 50 43.75C49.1371 43.75 48.4375 44.4496 48.4375 45.3125V50H21.875C17.5672 50 14.0625 53.5047 14.0625 57.8125V67.1875C14.0625 68.0504 14.7621 68.75 15.625 68.75Z" fill="#555555"/>
<path d="M28.125 40.625H71.875C72.7379 40.625 73.4375 39.9254 73.4375 39.0625C73.4375 38.1996 72.7379 37.5 71.875 37.5H70.3125V6.25C70.3125 5.38711 69.6129 4.6875 68.75 4.6875H31.25C30.3871 4.6875 29.6875 5.38711 29.6875 6.25V37.5H28.125C27.2621 37.5 26.5625 38.1996 26.5625 39.0625C26.5625 39.9254 27.2621 40.625 28.125 40.625ZM32.8125 7.8125H67.1875V37.5H32.8125V7.8125Z" fill="#555555"/>
<path d="M43.75 23.4375C42.8871 23.4375 42.1875 24.1371 42.1875 25V26.5625C42.1875 27.4254 42.8871 28.125 43.75 28.125C44.6129 28.125 45.3125 27.4254 45.3125 26.5625V25C45.3125 24.1371 44.6129 23.4375 43.75 23.4375Z" fill="#555555"/>
<path d="M50 23.4375C49.1371 23.4375 48.4375 24.1371 48.4375 25V26.5625C48.4375 27.4254 49.1371 28.125 50 28.125C50.8629 28.125 51.5625 27.4254 51.5625 26.5625V25C51.5625 24.1371 50.8629 23.4375 50 23.4375Z" fill="#555555"/>
<path d="M56.25 23.4375C55.3871 23.4375 54.6875 24.1371 54.6875 25V26.5625C54.6875 27.4254 55.3871 28.125 56.25 28.125C57.1129 28.125 57.8125 27.4254 57.8125 26.5625V25C57.8125 24.1371 57.1129 23.4375 56.25 23.4375Z" fill="#555555"/>
<path d="M62.5 23.4375C61.6371 23.4375 60.9375 24.1371 60.9375 25V26.5625C60.9375 27.4254 61.6371 28.125 62.5 28.125C63.3629 28.125 64.0625 27.4254 64.0625 26.5625V25C64.0625 24.1371 63.3629 23.4375 62.5 23.4375Z" fill="#555555"/>
<path d="M37.5 23.4375C36.6371 23.4375 35.9375 24.1371 35.9375 25V26.5625C35.9375 27.4254 36.6371 28.125 37.5 28.125C38.3629 28.125 39.0625 27.4254 39.0625 26.5625V25C39.0625 24.1371 38.3629 23.4375 37.5 23.4375Z" fill="#555555"/>
<path d="M43.75 29.6875C42.8871 29.6875 42.1875 30.3871 42.1875 31.25V32.8125C42.1875 33.6754 42.8871 34.375 43.75 34.375C44.6129 34.375 45.3125 33.6754 45.3125 32.8125V31.25C45.3125 30.3871 44.6129 29.6875 43.75 29.6875Z" fill="#555555"/>
<path d="M50 29.6875C49.1371 29.6875 48.4375 30.3871 48.4375 31.25V32.8125C48.4375 33.6754 49.1371 34.375 50 34.375C50.8629 34.375 51.5625 33.6754 51.5625 32.8125V31.25C51.5625 30.3871 50.8629 29.6875 50 29.6875Z" fill="#555555"/>
<path d="M56.25 29.6875C55.3871 29.6875 54.6875 30.3871 54.6875 31.25V32.8125C54.6875 33.6754 55.3871 34.375 56.25 34.375C57.1129 34.375 57.8125 33.6754 57.8125 32.8125V31.25C57.8125 30.3871 57.1129 29.6875 56.25 29.6875Z" fill="#555555"/>
<path d="M62.5 29.6875C61.6371 29.6875 60.9375 30.3871 60.9375 31.25V32.8125C60.9375 33.6754 61.6371 34.375 62.5 34.375C63.3629 34.375 64.0625 33.6754 64.0625 32.8125V31.25C64.0625 30.3871 63.3629 29.6875 62.5 29.6875Z" fill="#555555"/>
<path d="M37.5 29.6875C36.6371 29.6875 35.9375 30.3871 35.9375 31.25V32.8125C35.9375 33.6754 36.6371 34.375 37.5 34.375C38.3629 34.375 39.0625 33.6754 39.0625 32.8125V31.25C39.0625 30.3871 38.3629 29.6875 37.5 29.6875Z" fill="#555555"/>
<path d="M64.0625 92.1875V73.4375C64.0625 72.5746 63.3629 71.875 62.5 71.875H37.5C36.6371 71.875 35.9375 72.5746 35.9375 73.4375V92.1875C35.0746 92.1875 34.375 92.8871 34.375 93.75C34.375 94.6129 35.0746 95.3125 35.9375 95.3125H64.0625C64.9254 95.3125 65.625 94.6129 65.625 93.75C65.625 92.8871 64.9254 92.1875 64.0625 92.1875ZM39.0625 75H60.9375V92.1875H39.0625V75Z" fill="#555555"/>
<path d="M43.75 78.125C42.8871 78.125 42.1875 78.8246 42.1875 79.6875V81.25C42.1875 82.1129 42.8871 82.8125 43.75 82.8125C44.6129 82.8125 45.3125 82.1129 45.3125 81.25V79.6875C45.3125 78.8246 44.6129 78.125 43.75 78.125Z" fill="#555555"/>
<path d="M50 78.125C49.1371 78.125 48.4375 78.8246 48.4375 79.6875V81.25C48.4375 82.1129 49.1371 82.8125 50 82.8125C50.8629 82.8125 51.5625 82.1129 51.5625 81.25V79.6875C51.5625 78.8246 50.8629 78.125 50 78.125Z" fill="#555555"/>
<path d="M56.25 78.125C55.3871 78.125 54.6875 78.8246 54.6875 79.6875V81.25C54.6875 82.1129 55.3871 82.8125 56.25 82.8125C57.1129 82.8125 57.8125 82.1129 57.8125 81.25V79.6875C57.8125 78.8246 57.1129 78.125 56.25 78.125Z" fill="#555555"/>
<path d="M43.75 84.375C42.8871 84.375 42.1875 85.0746 42.1875 85.9375V87.5C42.1875 88.3629 42.8871 89.0625 43.75 89.0625C44.6129 89.0625 45.3125 88.3629 45.3125 87.5V85.9375C45.3125 85.0746 44.6129 84.375 43.75 84.375Z" fill="#555555"/>
<path d="M50 84.375C49.1371 84.375 48.4375 85.0746 48.4375 85.9375V87.5C48.4375 88.3629 49.1371 89.0625 50 89.0625C50.8629 89.0625 51.5625 88.3629 51.5625 87.5V85.9375C51.5625 85.0746 50.8629 84.375 50 84.375Z" fill="#555555"/>
<path d="M56.25 84.375C55.3871 84.375 54.6875 85.0746 54.6875 85.9375V87.5C54.6875 88.3629 55.3871 89.0625 56.25 89.0625C57.1129 89.0625 57.8125 88.3629 57.8125 87.5V85.9375C57.8125 85.0746 57.1129 84.375 56.25 84.375Z" fill="#555555"/>
<path d="M43.75 17.1875C42.8871 17.1875 42.1875 17.8871 42.1875 18.75V20.3125C42.1875 21.1754 42.8871 21.875 43.75 21.875C44.6129 21.875 45.3125 21.1754 45.3125 20.3125V18.75C45.3125 17.8871 44.6129 17.1875 43.75 17.1875Z" fill="#555555"/>
<path d="M50 17.1875C49.1371 17.1875 48.4375 17.8871 48.4375 18.75V20.3125C48.4375 21.1754 49.1371 21.875 50 21.875C50.8629 21.875 51.5625 21.1754 51.5625 20.3125V18.75C51.5625 17.8871 50.8629 17.1875 50 17.1875Z" fill="#555555"/>
<path d="M56.25 17.1875C55.3871 17.1875 54.6875 17.8871 54.6875 18.75V20.3125C54.6875 21.1754 55.3871 21.875 56.25 21.875C57.1129 21.875 57.8125 21.1754 57.8125 20.3125V18.75C57.8125 17.8871 57.1129 17.1875 56.25 17.1875Z" fill="#555555"/>
<path d="M62.5 17.1875C61.6371 17.1875 60.9375 17.8871 60.9375 18.75V20.3125C60.9375 21.1754 61.6371 21.875 62.5 21.875C63.3629 21.875 64.0625 21.1754 64.0625 20.3125V18.75C64.0625 17.8871 63.3629 17.1875 62.5 17.1875Z" fill="#555555"/>
<path d="M37.5 17.1875C36.6371 17.1875 35.9375 17.8871 35.9375 18.75V20.3125C35.9375 21.1754 36.6371 21.875 37.5 21.875C38.3629 21.875 39.0625 21.1754 39.0625 20.3125V18.75C39.0625 17.8871 38.3629 17.1875 37.5 17.1875Z" fill="#555555"/>
<path d="M43.75 10.9375C42.8871 10.9375 42.1875 11.6371 42.1875 12.5V14.0625C42.1875 14.9254 42.8871 15.625 43.75 15.625C44.6129 15.625 45.3125 14.9254 45.3125 14.0625V12.5C45.3125 11.6371 44.6129 10.9375 43.75 10.9375Z" fill="#555555"/>
<path d="M50 10.9375C49.1371 10.9375 48.4375 11.6371 48.4375 12.5V14.0625C48.4375 14.9254 49.1371 15.625 50 15.625C50.8629 15.625 51.5625 14.9254 51.5625 14.0625V12.5C51.5625 11.6371 50.8629 10.9375 50 10.9375Z" fill="#555555"/>
<path d="M56.25 10.9375C55.3871 10.9375 54.6875 11.6371 54.6875 12.5V14.0625C54.6875 14.9254 55.3871 15.625 56.25 15.625C57.1129 15.625 57.8125 14.9254 57.8125 14.0625V12.5C57.8125 11.6371 57.1129 10.9375 56.25 10.9375Z" fill="#555555"/>
<path d="M62.5 10.9375C61.6371 10.9375 60.9375 11.6371 60.9375 12.5V14.0625C60.9375 14.9254 61.6371 15.625 62.5 15.625C63.3629 15.625 64.0625 14.9254 64.0625 14.0625V12.5C64.0625 11.6371 63.3629 10.9375 62.5 10.9375Z" fill="#555555"/>
<path d="M37.5 10.9375C36.6371 10.9375 35.9375 11.6371 35.9375 12.5V14.0625C35.9375 14.9254 36.6371 15.625 37.5 15.625C38.3629 15.625 39.0625 14.9254 39.0625 14.0625V12.5C39.0625 11.6371 38.3629 10.9375 37.5 10.9375Z" fill="#555555"/>
<path d="M29.6875 92.1875V73.4375C29.6875 72.5746 28.9879 71.875 28.125 71.875H3.125C2.26211 71.875 1.5625 72.5746 1.5625 73.4375V92.1875C0.699609 92.1875 0 92.8871 0 93.75C0 94.6129 0.699609 95.3125 1.5625 95.3125H29.6875C30.5504 95.3125 31.25 94.6129 31.25 93.75C31.25 92.8871 30.5504 92.1875 29.6875 92.1875ZM4.6875 75H26.5625V92.1875H4.6875V75Z" fill="#555555"/>
<path d="M9.375 78.125C8.51211 78.125 7.8125 78.8246 7.8125 79.6875V81.25C7.8125 82.1129 8.51211 82.8125 9.375 82.8125C10.2379 82.8125 10.9375 82.1129 10.9375 81.25V79.6875C10.9375 78.8246 10.2379 78.125 9.375 78.125Z" fill="#555555"/>
<path d="M15.625 78.125C14.7621 78.125 14.0625 78.8246 14.0625 79.6875V81.25C14.0625 82.1129 14.7621 82.8125 15.625 82.8125C16.4879 82.8125 17.1875 82.1129 17.1875 81.25V79.6875C17.1875 78.8246 16.4879 78.125 15.625 78.125Z" fill="#555555"/>
<path d="M21.875 78.125C21.0121 78.125 20.3125 78.8246 20.3125 79.6875V81.25C20.3125 82.1129 21.0121 82.8125 21.875 82.8125C22.7379 82.8125 23.4375 82.1129 23.4375 81.25V79.6875C23.4375 78.8246 22.7379 78.125 21.875 78.125Z" fill="#555555"/>
<path d="M9.375 84.375C8.51211 84.375 7.8125 85.0746 7.8125 85.9375V87.5C7.8125 88.3629 8.51211 89.0625 9.375 89.0625C10.2379 89.0625 10.9375 88.3629 10.9375 87.5V85.9375C10.9375 85.0746 10.2379 84.375 9.375 84.375Z" fill="#555555"/>
<path d="M15.625 84.375C14.7621 84.375 14.0625 85.0746 14.0625 85.9375V87.5C14.0625 88.3629 14.7621 89.0625 15.625 89.0625C16.4879 89.0625 17.1875 88.3629 17.1875 87.5V85.9375C17.1875 85.0746 16.4879 84.375 15.625 84.375Z" fill="#555555"/>
<path d="M21.875 84.375C21.0121 84.375 20.3125 85.0746 20.3125 85.9375V87.5C20.3125 88.3629 21.0121 89.0625 21.875 89.0625C22.7379 89.0625 23.4375 88.3629 23.4375 87.5V85.9375C23.4375 85.0746 22.7379 84.375 21.875 84.375Z" fill="#555555"/>
<path d="M98.4375 92.1875V73.4375C98.4375 72.5746 97.7379 71.875 96.875 71.875H71.875C71.0121 71.875 70.3125 72.5746 70.3125 73.4375V92.1875C69.4496 92.1875 68.75 92.8871 68.75 93.75C68.75 94.6129 69.4496 95.3125 70.3125 95.3125H98.4375C99.3004 95.3125 100 94.6129 100 93.75C100 92.8871 99.3004 92.1875 98.4375 92.1875ZM73.4375 75H95.3125V92.1875H73.4375V75Z" fill="#555555"/>
<path d="M78.125 78.125C77.2621 78.125 76.5625 78.8246 76.5625 79.6875V81.25C76.5625 82.1129 77.2621 82.8125 78.125 82.8125C78.9879 82.8125 79.6875 82.1129 79.6875 81.25V79.6875C79.6875 78.8246 78.9879 78.125 78.125 78.125Z" fill="#555555"/>
<path d="M84.375 78.125C83.5121 78.125 82.8125 78.8246 82.8125 79.6875V81.25C82.8125 82.1129 83.5121 82.8125 84.375 82.8125C85.2379 82.8125 85.9375 82.1129 85.9375 81.25V79.6875C85.9375 78.8246 85.2379 78.125 84.375 78.125Z" fill="#555555"/>
<path d="M90.625 78.125C89.7621 78.125 89.0625 78.8246 89.0625 79.6875V81.25C89.0625 82.1129 89.7621 82.8125 90.625 82.8125C91.4879 82.8125 92.1875 82.1129 92.1875 81.25V79.6875C92.1875 78.8246 91.4879 78.125 90.625 78.125Z" fill="#555555"/>
<path d="M78.125 84.375C77.2621 84.375 76.5625 85.0746 76.5625 85.9375V87.5C76.5625 88.3629 77.2621 89.0625 78.125 89.0625C78.9879 89.0625 79.6875 88.3629 79.6875 87.5V85.9375C79.6875 85.0746 78.9879 84.375 78.125 84.375Z" fill="#555555"/>
<path d="M84.375 84.375C83.5121 84.375 82.8125 85.0746 82.8125 85.9375V87.5C82.8125 88.3629 83.5121 89.0625 84.375 89.0625C85.2379 89.0625 85.9375 88.3629 85.9375 87.5V85.9375C85.9375 85.0746 85.2379 84.375 84.375 84.375Z" fill="#555555"/>
<path d="M90.625 84.375C89.7621 84.375 89.0625 85.0746 89.0625 85.9375V87.5C89.0625 88.3629 89.7621 89.0625 90.625 89.0625C91.4879 89.0625 92.1875 88.3629 92.1875 87.5V85.9375C92.1875 85.0746 91.4879 84.375 90.625 84.375Z" fill="#555555"/>
</svg>
