<svg width="107" height="103" viewBox="0 0 107 103" fill="none" xmlns="http://www.w3.org/2000/svg">
<path d="M97.7286 2.50818C97.7286 1.969 97.2897 1.53014 96.7506 1.53014L60.3961 1.28479H26.9849C26.4455 1.28479 26.0068 1.72345 26.0068 2.26284L26.0066 86.9776H9.87722C9.33783 86.9776 8.89917 87.4165 8.89917 87.9556C8.89938 94.44 14.175 99.7154 20.6591 99.7154H87.3638C87.4328 99.7154 87.5034 99.7075 87.5743 99.692L87.657 99.6799C90.3964 99.4742 92.9657 98.2738 94.891 96.3C96.961 94.1777 98.1008 91.3759 98.1008 88.411V38.9898L97.7286 2.50818ZM96.1447 37.0337V88.4104C96.1447 93.4872 92.1707 97.5902 87.0978 97.7509L87.0794 97.7516L87.0612 97.7512C86.7467 97.7417 86.4295 97.7169 86.1174 97.6774C85.9642 97.6579 85.8171 97.6356 85.6708 97.6101L85.6228 97.6015C85.4903 97.5779 85.3607 97.5516 85.2316 97.5231L85.121 97.4977C85.0136 97.4726 84.9045 97.4454 84.796 97.4159C84.7354 97.3992 84.6773 97.3825 84.6188 97.3654C84.5363 97.3415 84.452 97.3163 84.3682 97.2895C84.2823 97.2619 84.1987 97.2333 84.1158 97.2038C84.0489 97.1806 83.9948 97.1616 83.9415 97.1417C83.833 97.1012 83.725 97.0584 83.6174 97.0138L83.5246 96.9754C83.3906 96.9184 83.2589 96.8586 83.1283 96.7961C80.3766 95.4667 78.3777 92.9098 77.7635 89.9487L78.3384 89.8047L77.7583 89.9241C77.7296 89.7853 77.7054 89.6455 77.6832 89.5046L77.6707 89.4313C77.6517 89.3084 77.6366 89.1799 77.6222 89.0516L77.6178 89.0177C77.6145 88.993 77.6116 88.9682 77.6088 88.9433C77.5963 88.8185 77.588 88.6938 77.5802 88.5688L77.5773 88.5303C77.575 88.5034 77.5729 88.4764 77.5716 88.4495C77.5635 88.2863 77.5591 88.1214 77.5591 87.9556C77.5591 87.4162 77.1202 86.9776 76.5811 86.9776H65.1937C64.6545 86.9776 64.2157 87.4165 64.2157 87.9556C64.2157 88.4948 64.6545 88.9337 65.1937 88.9337H75.6314L75.6969 89.4518C76.0187 91.9972 77.1424 94.3192 78.9468 96.1668C79.116 96.3403 79.3031 96.5177 79.5351 96.7254L80.6903 97.7593H20.6589C15.874 97.7593 11.8109 94.3391 10.9978 89.6269L10.8783 88.9339H58.9129C59.4523 88.9339 59.8912 88.495 59.8912 87.9558C59.8912 87.4167 59.4525 86.9778 58.9131 86.9778H27.9629V39.3465V17.7158V3.24067H62.3521L96.1447 3.64569V37.0337Z" fill="#666666"/>
<path d="M36.3037 28.3378H86.46C86.8917 28.3378 87.243 27.9863 87.243 27.5545C87.243 27.1227 86.8917 26.7712 86.46 26.7712H36.3037C35.8717 26.7712 35.5204 27.1227 35.5204 27.5545C35.5204 27.9863 35.8717 28.3378 36.3037 28.3378Z" fill="#666666"/>
<path d="M86.46 28.9302H36.3037C35.5451 28.9302 34.928 28.3131 34.928 27.5545C34.928 26.7958 35.5451 26.1787 36.3037 26.1787H86.46C87.2184 26.1787 87.8355 26.7958 87.8355 27.5545C87.8355 28.3131 87.2184 28.9302 86.46 28.9302ZM36.3037 27.3636C36.1984 27.3636 36.1129 27.4491 36.1129 27.5545C36.1129 27.6598 36.1984 27.7453 36.3037 27.7453H86.46C86.5651 27.7453 86.6506 27.6598 86.6506 27.5545C86.6506 27.4491 86.5651 27.3636 86.46 27.3636H36.3037Z" fill="#666666"/>
<path d="M86.4597 33.4587H68.0691C67.6373 33.4587 67.2858 33.8102 67.2858 34.242C67.2858 34.6738 67.6373 35.0253 68.0691 35.0253H86.4597C86.8915 35.0253 87.243 34.6738 87.243 34.242C87.243 33.8102 86.8917 33.4587 86.4597 33.4587Z" fill="#666666"/>
<path d="M86.4597 35.6177H68.0691C67.3105 35.6177 66.6934 35.0006 66.6934 34.242C66.6934 33.4833 67.3105 32.8662 68.0691 32.8662H86.4597C87.2183 32.8662 87.8355 33.4833 87.8355 34.242C87.8355 35.0006 87.2183 35.6177 86.4597 35.6177ZM68.0691 34.0512C67.9638 34.0512 67.8783 34.1366 67.8783 34.242C67.8783 34.3473 67.9638 34.4328 68.0691 34.4328H86.4597C86.5651 34.4328 86.6505 34.3473 86.6505 34.242C86.6505 34.1366 86.5651 34.0512 86.4597 34.0512H68.0691Z" fill="#666666"/>
<path d="M36.3037 35.0253H54.6943C55.1263 35.0253 55.4776 34.6738 55.4776 34.242C55.4776 33.8102 55.1263 33.4587 54.6943 33.4587H36.3037C35.8717 33.4587 35.5204 33.8102 35.5204 34.242C35.5204 34.6738 35.8717 35.0253 36.3037 35.0253Z" fill="#666666"/>
<path d="M54.6943 35.6177H36.3037C35.5451 35.6177 34.928 35.0006 34.928 34.242C34.928 33.4833 35.5451 32.8662 36.3037 32.8662H54.6943C55.453 32.8662 56.0701 33.4833 56.0701 34.242C56.0701 35.0006 55.453 35.6177 54.6943 35.6177ZM36.3037 34.0512C36.1984 34.0512 36.1129 34.1366 36.1129 34.242C36.1129 34.3473 36.1984 34.4328 36.3037 34.4328H54.6943C54.7997 34.4328 54.8851 34.3473 54.8851 34.242C54.8851 34.1366 54.7997 34.0512 54.6943 34.0512H36.3037Z" fill="#666666"/>
<path d="M86.4597 20.0837H68.0691C67.6373 20.0837 67.2858 20.4353 67.2858 20.867C67.2858 21.2988 67.6373 21.6503 68.0691 21.6503H86.4597C86.8915 21.6503 87.243 21.2988 87.243 20.867C87.243 20.4353 86.8917 20.0837 86.4597 20.0837Z" fill="#666666"/>
<path d="M86.4597 22.2427H68.0691C67.3105 22.2427 66.6934 21.6256 66.6934 20.867C66.6934 20.1083 67.3105 19.4912 68.0691 19.4912H86.4597C87.2183 19.4912 87.8355 20.1083 87.8355 20.867C87.8355 21.6256 87.2183 22.2427 86.4597 22.2427ZM68.0691 20.6762C67.9638 20.6762 67.8783 20.7616 67.8783 20.867C67.8783 20.9723 67.9638 21.0578 68.0691 21.0578H86.4597C86.5651 21.0578 86.6505 20.9723 86.6505 20.867C86.6505 20.7616 86.5651 20.6762 86.4597 20.6762H68.0691Z" fill="#666666"/>
<path d="M36.3037 21.6503H54.6943C55.1263 21.6503 55.4776 21.2988 55.4776 20.867C55.4776 20.4353 55.1263 20.0837 54.6943 20.0837H36.3037C35.8717 20.0837 35.5204 20.4353 35.5204 20.867C35.5204 21.2988 35.8717 21.6503 36.3037 21.6503Z" fill="#666666"/>
<path d="M54.6943 22.2427H36.3037C35.5451 22.2427 34.928 21.6256 34.928 20.867C34.928 20.1083 35.5451 19.4912 36.3037 19.4912H54.6943C55.453 19.4912 56.0701 20.1083 56.0701 20.867C56.0701 21.6256 55.453 22.2427 54.6943 22.2427ZM36.3037 20.6762C36.1984 20.6762 36.1129 20.7616 36.1129 20.867C36.1129 20.9723 36.1984 21.0578 36.3037 21.0578H54.6943C54.7997 21.0578 54.8851 20.9723 54.8851 20.867C54.8851 20.7616 54.7997 20.6762 54.6943 20.6762H36.3037Z" fill="#666666"/>
<path d="M36.3037 14.9628H86.46C86.8917 14.9628 87.243 14.6113 87.243 14.1795C87.243 13.7478 86.8917 13.3962 86.46 13.3962H36.3037C35.8717 13.3962 35.5204 13.7478 35.5204 14.1795C35.5204 14.6113 35.8717 14.9628 36.3037 14.9628Z" fill="#666666"/>
<path d="M86.46 15.5552H36.3037C35.5451 15.5552 34.928 14.9381 34.928 14.1795C34.928 13.4208 35.5451 12.8037 36.3037 12.8037H86.46C87.2184 12.8037 87.8355 13.4208 87.8355 14.1795C87.8355 14.9381 87.2184 15.5552 86.46 15.5552ZM36.3037 13.9887C36.1984 13.9887 36.1129 14.0741 36.1129 14.1795C36.1129 14.2848 36.1984 14.3703 36.3037 14.3703H86.46C86.5651 14.3703 86.6506 14.2848 86.6506 14.1795C86.6506 14.0741 86.5651 13.9887 86.46 13.9887H36.3037Z" fill="#666666"/>
<path d="M88.5065 54.6824L85.3962 54.0698C85.191 53.3869 84.917 52.7275 84.5778 52.0997L86.3088 49.5031C86.5239 49.1802 86.4817 48.7505 86.2071 48.4759L83.9053 46.174C83.6311 45.8994 83.201 45.8569 82.8781 46.0722L80.2815 47.8032C79.6537 47.464 78.9944 47.1901 78.3114 46.9848L77.6989 43.8745C77.6236 43.4929 77.2891 43.2179 76.9001 43.2179H73.6446C73.2557 43.2179 72.9211 43.4929 72.8458 43.8745L72.2333 46.9848C71.5504 47.1901 70.891 47.464 70.2632 47.8032L67.6666 46.0722C67.3437 45.8572 66.9136 45.8994 66.6394 46.174L64.3377 48.4757C64.0631 48.7503 64.0209 49.18 64.2359 49.5029L65.9669 52.0995C65.6277 52.7273 65.3538 53.3867 65.1483 54.0696L62.038 54.6822C61.6566 54.7574 61.3816 55.092 61.3816 55.4809V58.7364C61.3816 59.1254 61.6566 59.46 62.0382 59.5352L65.1485 60.1477C65.3538 60.8307 65.6277 61.49 65.9669 62.1178L64.2359 64.7144C64.0209 65.0373 64.0633 65.467 64.3377 65.7416L66.6394 68.0434C66.9138 68.318 67.3437 68.3602 67.6666 68.1451L70.2632 66.4141C70.891 66.7533 71.5504 67.0273 72.2333 67.2325L72.8458 70.3428C72.9211 70.7244 73.2557 70.9994 73.6446 70.9994H76.9001C77.2891 70.9994 77.6236 70.7244 77.6989 70.3428L78.3114 67.2325C78.9944 67.0273 79.6537 66.7533 80.2815 66.4141L82.8781 68.1451C83.201 68.3602 83.6307 68.3178 83.9053 68.0434L86.2071 65.7414C86.4817 65.467 86.5239 65.0373 86.3088 64.7144L84.5778 62.1178C84.917 61.49 85.191 60.8307 85.3962 60.1477L88.5065 59.5352C88.8881 59.46 89.1631 59.1254 89.1631 58.7364V55.4809C89.1631 55.092 88.8881 54.7576 88.5065 54.6824ZM87.5354 58.0675L84.5872 58.6483C84.2771 58.7093 84.0303 58.9446 83.9546 59.2514C83.7385 60.1252 83.3925 60.9586 82.9256 61.7287C82.7617 61.9989 82.7691 62.3393 82.9444 62.602L84.5845 65.0622L83.2261 66.4206L80.7657 64.7805C80.503 64.6052 80.1626 64.598 79.8926 64.7619C79.1221 65.2288 78.2886 65.5748 77.4153 65.7907C77.1083 65.8666 76.8732 66.1134 76.812 66.4235L76.2314 69.3715H74.3142L73.7334 66.4235C73.6722 66.1132 73.4369 65.8666 73.1301 65.7907C72.2565 65.5748 71.4231 65.2286 70.6528 64.7617C70.3828 64.598 70.0421 64.6052 69.7794 64.7805L67.3193 66.4206L65.9609 65.0622L67.601 62.602C67.7763 62.3391 67.7834 61.9987 67.6198 61.7287C67.1529 60.9584 66.8068 60.1247 66.5907 59.2514C66.5149 58.9444 66.2681 58.7093 65.9579 58.6483L63.01 58.0675V56.1503L65.9579 55.5695C66.2683 55.5083 66.5149 55.273 66.5907 54.9662C66.8068 54.0926 67.1529 53.2594 67.6198 52.4889C67.7834 52.2189 67.7763 51.8782 67.601 51.6155L65.9609 49.1554L67.3193 47.797L69.7794 49.4371C70.0423 49.6124 70.3828 49.6195 70.6528 49.4559C71.4233 48.989 72.2567 48.6429 73.1301 48.4268C73.4371 48.351 73.6722 48.1042 73.7334 47.794L74.314 44.8461H76.2312L76.812 47.794C76.8732 48.1044 77.1085 48.351 77.4153 48.4268C78.2888 48.6427 79.1221 48.989 79.8926 49.4559C80.1626 49.6195 80.5032 49.6124 80.7659 49.4371L83.2261 47.797L84.5845 49.1554L82.9444 51.6155C82.7691 51.8784 82.7619 52.2189 82.9256 52.4889C83.3925 53.2592 83.7389 54.0928 83.9546 54.9662C84.0303 55.2732 84.2773 55.5083 84.5874 55.5693L87.5354 56.1501V58.0675Z" fill="#666666"/>
<path d="M75.2724 49.7836C71.2333 49.7836 67.9473 53.0696 67.9473 57.1087C67.9473 61.1477 71.2333 64.4338 75.2724 64.4338C79.3114 64.4338 82.5975 61.1477 82.5975 57.1087C82.5977 53.0696 79.3114 49.7836 75.2724 49.7836ZM75.2724 62.8062C72.1307 62.8062 69.575 60.2503 69.575 57.1089C69.575 53.9674 72.1309 51.4116 75.2724 51.4116C78.4138 51.4116 80.9697 53.9674 80.9697 57.1089C80.9697 60.2503 78.414 62.8062 75.2724 62.8062Z" fill="#666666"/>
<path d="M75.2724 53.0393C73.0285 53.0393 71.2028 54.865 71.2028 57.1089C71.2028 59.3527 73.0285 61.1784 75.2724 61.1784C77.5162 61.1784 79.3419 59.3527 79.3419 57.1089C79.3419 54.8648 77.5164 53.0393 75.2724 53.0393ZM75.2724 59.5504C73.9261 59.5504 72.8306 58.4549 72.8306 57.1087C72.8306 55.7624 73.9261 54.6669 75.2724 54.6669C76.6187 54.6669 77.7141 55.7624 77.7141 57.1087C77.7141 58.4551 76.6187 59.5504 75.2724 59.5504Z" fill="#666666"/>
<path d="M62.5941 62.0075L59.4838 61.3949C59.2786 60.712 59.0046 60.0526 58.6654 59.4248L60.3964 56.8282C60.6115 56.5053 60.5693 56.0757 60.2947 55.8011L57.9931 53.4993C57.7189 53.2247 57.2889 53.1823 56.966 53.3975L54.3693 55.1285C53.7416 54.7894 53.0822 54.5154 52.3992 54.3102L51.7867 51.1998C51.7115 50.8182 51.3769 50.5432 50.988 50.5432H47.7324C47.3435 50.5432 47.0089 50.8182 46.9337 51.1998L46.3211 54.3102C45.6382 54.5154 44.9788 54.7894 44.351 55.1285L41.7544 53.3975C41.4315 53.1825 41.0017 53.2247 40.7273 53.4993L38.4255 55.8011C38.1509 56.0757 38.1087 56.5053 38.3237 56.8282L40.0547 59.4248C39.7156 60.0526 39.4416 60.712 39.2362 61.3949L36.1258 62.0075C35.7444 62.0827 35.4694 62.4173 35.4694 62.8062V66.0618C35.4694 66.4507 35.7444 66.7853 36.126 66.8605L39.2364 67.473C39.4416 68.156 39.7156 68.8153 40.0547 69.4431L38.3237 72.0398C38.1087 72.3626 38.1511 72.7923 38.4255 73.0669L40.7273 75.3687C41.0014 75.6433 41.4315 75.6855 41.7544 75.4705L44.351 73.7394C44.9788 74.0786 45.6382 74.3526 46.3211 74.5578L46.9337 77.6681C47.0089 78.0497 47.3435 78.3248 47.7324 78.3248H50.988C51.3769 78.3248 51.7115 78.0497 51.7867 77.6681L52.3992 74.5578C53.0822 74.3526 53.7416 74.0786 54.3693 73.7394L56.966 75.4705C57.2889 75.6855 57.7185 75.6431 57.9931 75.3687L60.2949 73.0667C60.5695 72.7925 60.6117 72.3626 60.3967 72.0398L58.6656 69.4431C59.0048 68.8153 59.2788 68.156 59.484 67.473L62.5943 66.8605C62.9759 66.7853 63.251 66.4507 63.251 66.0618V62.8062C63.2508 62.4173 62.9757 62.0827 62.5941 62.0075ZM61.623 65.3926L58.6748 65.9734C58.3647 66.0344 58.1179 66.2697 58.0422 66.5765C57.8261 67.4503 57.4801 68.2837 57.0132 69.0538C56.8494 69.324 56.8567 69.6644 57.032 69.9271L58.6721 72.3873L57.3137 73.7457L54.8533 72.1056C54.5907 71.9303 54.2502 71.9232 53.9802 72.087C53.2097 72.5539 52.3763 72.8999 51.5029 73.1158C51.1959 73.1917 50.9608 73.4385 50.8996 73.7486L50.319 76.6966H48.4018L47.821 73.7486C47.7598 73.4383 47.5245 73.1917 47.2177 73.1158C46.3441 72.8999 45.5109 72.5537 44.7404 72.0868C44.4704 71.9232 44.1297 71.9303 43.867 72.1056L41.4069 73.7457L40.0485 72.3873L41.6886 69.9271C41.8639 69.6642 41.871 69.3238 41.7074 69.0538C41.2405 68.2835 40.8944 67.4498 40.6784 66.5765C40.6025 66.2695 40.3557 66.0344 40.0456 65.9734L37.0976 65.3926V63.4754L40.0456 62.8946C40.3559 62.8334 40.6025 62.5981 40.6784 62.2913C40.8944 61.4177 41.2405 60.5843 41.7074 59.814C41.871 59.544 41.8639 59.2033 41.6886 58.9406L40.0485 56.4805L41.4069 55.1221L43.867 56.7622C44.1299 56.9375 44.4704 56.9446 44.7404 56.781C45.5109 56.3141 46.3443 55.968 47.2177 55.7519C47.5247 55.6761 47.7598 55.4293 47.821 55.1191L48.4016 52.1712H50.3188L50.8996 55.1191C50.9608 55.4295 51.1961 55.6761 51.5029 55.7519C52.3765 55.9678 53.2097 56.3141 53.9802 56.781C54.2502 56.9446 54.5909 56.9375 54.8536 56.7622L57.3137 55.1221L58.6721 56.4805L57.032 58.9406C56.8567 59.2035 56.8496 59.544 57.0132 59.814C57.4801 60.5843 57.8264 61.4179 58.0422 62.2913C58.1179 62.5983 58.3649 62.8334 58.675 62.8944L61.623 63.4752V65.3926Z" fill="#666666"/>
<path d="M49.3602 57.1089C45.3212 57.1089 42.0351 60.395 42.0351 64.434C42.0351 68.473 45.3212 71.7591 49.3602 71.7591C53.3993 71.7591 56.6853 68.473 56.6853 64.434C56.6853 60.395 53.3993 57.1089 49.3602 57.1089ZM49.3602 70.1313C46.2185 70.1313 43.6629 67.5754 43.6629 64.434C43.6629 61.2925 46.2188 58.7367 49.3602 58.7367C52.5017 58.7367 55.0576 61.2925 55.0576 64.434C55.0576 67.5754 52.5017 70.1313 49.3602 70.1313Z" fill="#666666"/>
<path d="M49.3602 60.3644C47.1163 60.3644 45.2906 62.1901 45.2906 64.4339C45.2906 66.6778 47.1163 68.5035 49.3602 68.5035C51.6041 68.5035 53.4298 66.6778 53.4298 64.4339C53.4298 62.1901 51.6041 60.3644 49.3602 60.3644ZM49.3602 66.8757C48.0139 66.8757 46.9184 65.7802 46.9184 64.4339C46.9184 63.0877 48.0139 61.9922 49.3602 61.9922C50.7065 61.9922 51.802 63.0877 51.802 64.4339C51.8018 65.7802 50.7065 66.8757 49.3602 66.8757Z" fill="#666666"/>
</svg>
