<svg width="103" height="103" viewBox="0 0 103 103" fill="none" xmlns="http://www.w3.org/2000/svg">
<path d="M49.3189 30.093C48.5587 29.717 48.079 28.9408 48.0827 28.0929V23.1685C48.0827 21.2811 49.6128 19.7514 51.5 19.7514C53.3874 19.7514 54.9173 21.2811 54.9173 23.1685V28.0929C54.9204 28.9408 54.4413 29.717 53.6811 30.093C53.3917 30.2378 53.2086 30.5338 53.2086 30.8575V32.5664C53.2086 32.958 53.4753 33.2996 53.8552 33.395L58.1021 34.4567C59.2429 34.742 60.043 35.7668 60.0434 36.9429V41.109H61.752V36.9429C61.7538 34.982 60.4194 33.2724 58.517 32.7986L54.9175 31.8988V31.3436C55.9896 30.6113 56.6296 29.3953 56.6261 28.0973V23.1685C56.6261 20.3374 54.3311 18.0426 51.5002 18.0426C48.6691 18.0426 46.3743 20.3377 46.3743 23.1685V28.0929C46.3696 29.3926 47.0096 30.6105 48.0833 31.3436V31.8988L44.4847 32.7986C42.5816 33.272 41.2464 34.9816 41.2484 36.9429V41.109H42.9574V36.9429C42.9574 35.7668 43.7575 34.7418 44.8983 34.4567L49.1452 33.395C49.5251 33.2996 49.7918 32.958 49.7918 32.5664V30.8575C49.7914 30.5338 49.6087 30.2378 49.3189 30.093Z" fill="#666666"/>
<path d="M50.6458 38.5464H52.3543V42.8182H50.6458V38.5464Z" fill="#666666"/>
<path d="M50.6455 38.5464H52.3545V42.8182H50.6455V38.5464Z" fill="#666666"/>
<path d="M95.9641 54.1286L89.2598 52.4591V51.425C91.2566 50.0609 92.4487 47.7959 92.4421 45.3781V36.1911C92.4421 30.9181 88.1674 26.6434 82.8944 26.6434C77.6215 26.6434 73.3468 30.9181 73.3468 36.1911V45.3637C73.3381 47.7852 74.5302 50.0531 76.5299 51.4186V52.4528L69.827 54.1288C66.2826 55.0105 63.7954 58.195 63.7991 61.8482V65.0305H66.9822V61.8482C66.9822 59.6576 68.4724 57.7492 70.5975 57.2171L78.5079 55.2393C79.2155 55.0622 79.7126 54.4254 79.7126 53.696V50.5137C79.7163 49.9074 79.3745 49.352 78.8323 49.081C77.4194 48.3822 76.5266 46.9406 76.5303 45.3637V36.1919C76.5303 32.6766 79.3797 29.8265 82.8951 29.8265C86.4105 29.8265 89.2605 32.6766 89.2605 36.1919V45.3637C89.2671 46.9435 88.3736 48.3886 86.9576 49.089C86.4154 49.3601 86.0745 49.9155 86.0774 50.5209V53.704C86.0774 54.4335 86.5744 55.0704 87.2827 55.2474L95.1931 57.2252C97.3144 57.7564 98.8038 59.6605 98.8084 61.8482V65.0305H101.991V61.8482C101.994 58.1956 99.5079 55.0111 95.9641 54.1286Z" fill="#666666"/>
<path d="M33.1755 54.1286L26.4713 52.4591V51.425C28.468 50.0609 29.6602 47.7959 29.6536 45.3781V36.1911C29.6536 30.9181 25.3789 26.6434 20.1059 26.6434C14.8329 26.6434 10.5582 30.9181 10.5582 36.1911V45.3637C10.5495 47.7852 11.7417 50.0531 13.7413 51.4186V52.4528L7.03847 54.1288C3.49404 55.0105 1.00679 58.195 1.0105 61.8482V65.0305H4.19361V61.8482C4.19361 59.6576 5.68382 57.7492 7.80891 57.2171L15.7193 55.2393C16.4269 55.0622 16.9238 54.4254 16.9238 53.696V50.5137C16.9275 49.9074 16.5857 49.352 16.0436 49.081C14.6306 48.3822 13.7378 46.9406 13.7415 45.3637V36.1919C13.7415 32.6766 16.5909 29.8265 20.1063 29.8265C23.6217 29.8265 26.4717 32.6766 26.4717 36.1919V45.3637C26.4783 46.9435 25.5849 48.3886 24.1688 49.089C23.6266 49.3601 23.2857 49.9155 23.2886 50.5209V53.704C23.2886 54.4335 23.7857 55.0704 24.4939 55.2474L32.4043 57.2252C34.5257 57.7564 36.015 59.6605 36.0196 61.8482V65.0305H39.2019V61.8482C39.205 58.1956 36.7192 55.0111 33.1755 54.1286Z" fill="#666666"/>
<path d="M68.5864 30.8574C68.5973 21.4209 60.9566 13.7621 51.5201 13.7507C42.0837 13.7394 34.4244 21.3806 34.4135 30.8172C34.4034 39.2719 40.5782 46.4623 48.9369 47.7306V49.6528C48.4651 49.6528 48.0824 50.0354 48.0824 50.5073V61.6132C48.0824 63.5006 49.6126 65.0305 51.4997 65.0305C53.3871 65.0305 54.9171 63.5003 54.9171 61.6132V50.5071C54.9171 50.0354 54.5345 49.6526 54.0626 49.6526V47.7304C62.4037 46.4598 68.5712 39.2947 68.5864 30.8574ZM36.1218 30.8574C36.1218 22.3644 43.0068 15.4795 51.4997 15.4795C59.9927 15.4795 66.8776 22.3644 66.8776 30.8574C66.8776 39.3504 59.9927 46.2353 51.4997 46.2353C43.0107 46.2254 36.1317 39.3464 36.1218 30.8574ZM53.2083 61.613C53.2083 62.5567 52.4434 63.322 51.4997 63.322C50.556 63.322 49.7912 62.5567 49.7912 61.613V51.3612H53.2083V61.613ZM52.3542 49.6526H50.6452V47.9004C50.9297 47.9148 51.2109 47.9443 51.4997 47.9443C51.7885 47.9443 52.0697 47.915 52.3542 47.9004V49.6526Z" fill="#666666"/>
<path d="M101.99 67.6469V65.0305H1.01001V67.6469H12.8752V74.3712L7.77526 79.4711C7.16323 79.0023 6.40742 78.7122 5.57868 78.7122C3.57471 78.7122 1.94443 80.3419 1.94443 82.3456C1.94443 84.3494 3.57471 85.9791 5.57868 85.9791C7.58244 85.9791 9.21211 84.3492 9.21211 82.3456C9.21211 81.4854 8.89919 80.7049 8.39779 80.0817L13.7474 74.7321V67.6467H21.5968V76.6238L8.25132 89.9693C7.63373 89.485 6.86638 89.184 6.0224 89.184C4.01823 89.184 2.38815 90.8141 2.38815 92.8183C2.38815 94.8218 4.01843 96.4517 6.0224 96.4517C8.02637 96.4517 9.65665 94.8218 9.65665 92.8183C9.65665 91.9724 9.35425 91.2034 8.8685 90.5854L22.469 76.9849V67.6467H30.3611V79.4583L19.798 90.0214C19.1708 89.5066 18.3791 89.1842 17.5061 89.1842C15.5019 89.1842 13.8718 90.8143 13.8718 92.8185C13.8718 94.822 15.5021 96.4519 17.5061 96.4519C19.5096 96.4519 21.1395 94.822 21.1395 92.8185C21.1395 92.0025 20.8593 91.2564 20.4037 90.6491L31.2333 79.8197V67.6469H39.0827V82.2564L31.2432 90.0968C30.6031 89.5361 29.7752 89.1842 28.8596 89.1842C26.8558 89.1842 25.2261 90.8143 25.2261 92.8185C25.2261 94.822 26.856 96.4519 28.8596 96.4519C30.8635 96.4519 32.4938 94.822 32.4938 92.8185C32.4938 92.0445 32.2468 91.3301 31.8328 90.7401L39.9547 82.6174V67.6467H47.8041V89.2283C46.007 89.4463 44.6052 90.9637 44.6052 92.8185C44.6052 94.822 46.2357 96.4519 48.2402 96.4519C50.2434 96.4519 51.8737 94.822 51.8737 92.8185C51.8737 90.9639 50.4725 89.4465 48.6763 89.2283V67.6469H56.5258V82.6176L64.6477 90.7399C64.2339 91.3297 63.9869 92.0447 63.9869 92.8185C63.9869 94.822 65.6172 96.4519 67.6203 96.4519C69.6235 96.4519 71.2537 94.822 71.2537 92.8185C71.2537 90.8143 69.6235 89.1842 67.6203 89.1842C66.7057 89.1842 65.8778 89.5359 65.2381 90.0964L57.398 82.2562V67.6467H65.2474V79.8195L76.077 90.6487C75.6205 91.2562 75.3404 92.0021 75.3404 92.8185C75.3404 94.822 76.9715 96.4519 78.9757 96.4519C80.9788 96.4519 82.6091 94.822 82.6091 92.8185C82.6091 90.8143 80.979 89.1842 78.9757 89.1842C78.1026 89.1842 77.3106 89.5066 76.6829 90.0214L66.1198 79.4583V67.6467H74.0119V76.9849L87.6128 90.5865C87.1264 91.2045 86.8251 91.9731 86.8251 92.8185C86.8251 94.822 88.4552 96.4519 90.4585 96.4519C92.4619 96.4519 94.0919 94.822 94.0919 92.8185C94.0919 90.8143 92.4619 89.1842 90.4585 89.1842C89.6145 89.1842 88.847 89.4852 88.2296 89.9703L74.8841 76.624V67.6469H82.7335V74.7323L88.0823 80.0819C87.5815 80.7051 87.268 81.4856 87.268 82.3458C87.268 84.3496 88.8991 85.9793 90.9033 85.9793C92.9064 85.9793 94.5367 84.3494 94.5367 82.3458C94.5367 80.3423 92.9064 78.7124 90.9033 78.7124C90.0737 78.7124 89.3173 79.0025 88.705 79.4717L83.6057 74.3712V67.6469H101.99ZM5.57868 84.2351C4.53673 84.2351 3.68863 83.3876 3.68863 82.3458C3.68863 81.3043 4.53652 80.4568 5.57868 80.4568C6.62042 80.4568 7.4677 81.3043 7.4677 82.3458C7.4677 83.3874 6.62021 84.2351 5.57868 84.2351ZM6.0224 94.7077C4.98045 94.7077 4.13235 93.8602 4.13235 92.8187C4.13235 91.7765 4.98025 90.9286 6.0224 90.9286C7.06456 90.9286 7.91245 91.7765 7.91245 92.8187C7.91245 93.8602 7.06456 94.7077 6.0224 94.7077ZM17.5061 94.7077C16.4641 94.7077 15.616 93.8602 15.616 92.8187C15.616 91.7765 16.4639 90.9286 17.5061 90.9286C18.5478 90.9286 19.3951 91.7765 19.3951 92.8187C19.3953 93.8602 18.5478 94.7077 17.5061 94.7077ZM28.8596 94.7077C27.8178 94.7077 26.9703 93.8602 26.9703 92.8187C26.9703 91.7765 27.8178 90.9286 28.8596 90.9286C29.9015 90.9286 30.7496 91.7765 30.7496 92.8187C30.7494 93.8602 29.9015 94.7077 28.8596 94.7077ZM50.1295 92.8187C50.1295 93.8602 49.282 94.7077 48.2402 94.7077C47.1977 94.7077 46.3496 93.8602 46.3496 92.8187C46.3496 91.7765 47.1979 90.9286 48.2402 90.9286C49.282 90.9286 50.1295 91.7765 50.1295 92.8187ZM67.6203 90.9286C68.6621 90.9286 69.5095 91.7765 69.5095 92.8187C69.5095 93.8602 68.6621 94.7077 67.6203 94.7077C66.5786 94.7077 65.7313 93.8602 65.7313 92.8187C65.7311 91.7765 66.5786 90.9286 67.6203 90.9286ZM78.9755 90.9286C80.017 90.9286 80.8645 91.7765 80.8645 92.8187C80.8645 93.8602 80.017 94.7077 78.9755 94.7077C77.9329 94.7077 77.0846 93.8602 77.0846 92.8187C77.0846 91.7765 77.9329 90.9286 78.9755 90.9286ZM90.4583 90.9286C91.5 90.9286 92.3473 91.7765 92.3473 92.8187C92.3473 93.8602 91.4998 94.7077 90.4583 94.7077C89.4168 94.7077 88.5693 93.8602 88.5693 92.8187C88.5691 91.7765 89.4166 90.9286 90.4583 90.9286ZM90.9028 80.4566C91.9444 80.4566 92.7919 81.3041 92.7919 82.3456C92.7919 83.3874 91.9444 84.2349 90.9028 84.2349C89.8603 84.2349 89.012 83.3874 89.012 82.3456C89.012 81.3041 89.8603 80.4566 90.9028 80.4566Z" fill="#666666"/>
</svg>
