<svg width="103" height="103" viewBox="0 0 103 103" fill="none" xmlns="http://www.w3.org/2000/svg">
<g clip-path="url(#clip0)">
<path d="M73.1702 89.7386C72.8182 90.0908 72.7138 90.6155 72.9047 91.0755C73.095 91.5356 73.5398 91.833 74.0379 91.833H90.5593C91.2357 91.833 91.7861 91.2828 91.7861 90.6062V74.0848C91.7861 73.5867 91.4887 73.1419 91.0289 72.9516H91.0287C90.876 72.8884 90.7162 72.8574 90.5579 72.8574C90.2393 72.8574 89.927 72.9819 89.6917 73.2171L73.1702 89.7386ZM89.3324 89.3793H76.9989L89.3324 77.0458V89.3793Z" fill="#666666"/>
<path d="M50.0172 102.265H101.488C102.007 102.265 102.429 101.842 102.429 101.323V49.8526C102.43 49.4704 102.202 49.129 101.849 48.9829H101.848C101.495 48.8365 101.092 48.9167 100.822 49.1869L95.3209 54.6881V22.5256C95.3209 22.0064 94.8986 21.5841 94.3794 21.5841H81.3871L90.6418 12.3292C91.4045 11.5664 91.8245 10.5521 91.8245 9.47297C91.8245 8.39409 91.4044 7.37978 90.6416 6.61653L85.9434 1.91836C85.1806 1.15552 84.1661 0.735474 83.087 0.735474C82.0079 0.735474 80.9936 1.15552 80.231 1.91836L60.565 21.5839H12.832V6.05747C12.832 5.53825 12.4095 5.11599 11.8905 5.11599C5.64851 5.11619 0.570325 10.1946 0.570325 16.4363V80.6474C0.570325 80.7138 0.57797 80.7818 0.592857 80.85L0.604525 80.9296C0.802478 83.5666 1.95801 86.0398 3.85808 87.8932C5.90098 89.8858 8.59809 90.983 11.4521 90.983H59.0256L49.3515 100.657C49.0813 100.927 49.001 101.33 49.1473 101.683C49.2935 102.037 49.6349 102.265 50.0172 102.265ZM81.5629 3.24992C81.9695 2.84315 82.5108 2.61904 83.0874 2.61904C83.664 2.61904 84.2055 2.84315 84.6121 3.24992L89.3103 7.94809C89.7168 8.35466 89.9411 8.89621 89.9411 9.47277C89.9411 10.0493 89.717 10.5909 89.31 10.9977L85.9113 14.3966L78.1631 6.64892L81.5629 3.24992ZM76.832 7.98047L84.5801 15.7282L80.9996 19.3087L73.2521 11.5609L76.832 7.98047ZM68.5342 84.1375C68.9014 83.7706 68.9014 83.1731 68.5342 82.8059C68.4952 82.7669 68.4505 82.7303 68.3982 82.6943C68.0253 82.439 67.5225 82.4863 67.2025 82.8061L60.9086 89.1H11.4523C6.56525 89.1 2.61564 85.2745 2.46094 80.3913L2.46034 80.3736L2.46074 80.3561C2.46979 80.0533 2.49373 79.7479 2.53175 79.4476C2.55046 79.3001 2.57199 79.1585 2.59653 79.0177L2.60478 78.9714C2.62751 78.8439 2.65286 78.7191 2.68022 78.5948L2.70476 78.4884C2.7289 78.385 2.75505 78.28 2.78342 78.1756C2.79951 78.1172 2.8156 78.0613 2.8321 78.005C2.85503 77.9255 2.87938 77.8444 2.90513 77.7638C2.93168 77.6811 2.95924 77.6006 2.98761 77.5208C3.00994 77.4564 3.02824 77.4043 3.04735 77.353C3.08638 77.2486 3.12762 77.1446 3.17047 77.041L3.20749 76.9516C3.26241 76.8227 3.31994 76.6959 3.38009 76.5702C4.65975 73.9214 7.12109 71.9972 9.97149 71.4059L10.1101 71.9594L9.99523 71.4009C10.1288 71.3733 10.2634 71.35 10.399 71.3287L10.4696 71.3166C10.5879 71.2983 10.7116 71.2838 10.8351 71.2699L10.8677 71.2657C10.8914 71.2625 10.9154 71.2597 10.9393 71.2571C11.0594 71.245 11.1795 71.2369 11.2998 71.2295L11.3368 71.2267C11.3628 71.2245 11.3887 71.2225 11.4147 71.2213C11.5718 71.2134 11.7305 71.2092 11.8901 71.2092C12.4093 71.2092 12.8315 70.7867 12.8315 70.2677V59.3061C12.8315 58.787 12.4091 58.3646 11.8901 58.3646C11.371 58.3646 10.9486 58.787 10.9486 59.3061V69.3536L10.4499 69.4165C7.9996 69.7263 5.76438 70.8081 3.98582 72.545C3.81885 72.7079 3.64805 72.888 3.44809 73.1113L2.45289 74.2233V16.4363C2.45289 11.8303 5.74527 7.91912 10.2813 7.13636L10.9484 7.02129V53.2602C10.9484 53.7795 11.3708 54.2019 11.8899 54.2019C12.4089 54.2019 12.8313 53.7797 12.8313 53.2604V23.4671H58.6818L49.3509 32.798C49.173 32.9759 49.0751 33.2125 49.0751 33.4639C49.0751 33.7154 49.173 33.9518 49.3509 34.1296C49.5287 34.3074 49.7651 34.4052 50.0166 34.4052C50.268 34.4052 50.5044 34.3074 50.6822 34.1296L61.6012 23.2106L61.6608 23.1382L61.6865 23.1253L71.9195 12.8925L79.6671 20.6404L47.5615 52.7462L39.8137 44.9985L46.2257 38.5866C46.4035 38.4087 46.5015 38.1721 46.5015 37.9207C46.5015 37.6692 46.4035 37.4328 46.2257 37.255C45.8587 36.8881 45.2615 36.8881 44.8943 37.255L37.8165 44.3326C37.7928 44.3564 37.7708 44.3813 37.7501 44.4071L37.7352 44.4282C37.7179 44.4513 37.7044 44.469 37.6922 44.4877L37.6827 44.504C37.6626 44.538 37.6527 44.5551 37.6439 44.5728L37.6274 44.608C37.6175 44.6298 37.6099 44.6481 37.6028 44.6666L37.5896 44.699L32.6409 58.7178C32.6263 58.7599 32.6142 58.8067 32.6043 58.8607L32.5188 59.3284H27.0158C26.4966 59.3284 26.0743 59.7508 26.0743 60.2699C26.0743 60.7889 26.4968 61.2113 27.0158 61.2113H68.8825C69.4015 61.2113 69.8239 60.7889 69.8239 60.2699C69.8239 59.7508 69.4015 59.3284 68.8825 59.3284H35.5161L47.8582 54.9718C47.8697 54.967 47.8809 54.9624 47.8922 54.9583C47.9115 54.9513 47.9338 54.9414 47.9562 54.9312L48.2342 55.4309L47.9781 54.9215C48.001 54.9098 48.0235 54.8972 48.0459 54.8837L48.07 54.8694C48.0905 54.8565 48.1127 54.84 48.135 54.8231L48.1605 54.8042C48.1772 54.7905 48.2028 54.768 48.2271 54.7437L79.5043 23.4671H93.4383V56.5707L71.6457 78.3633C71.2788 78.7304 71.2788 79.3279 71.6457 79.695C71.6681 79.7173 71.6926 79.7395 71.718 79.7602C72.0511 80.0316 72.5724 80.0314 72.9051 79.76C72.931 79.7389 72.9552 79.7169 72.9783 79.6938L100.547 52.125V67.4099H97.1873C96.6681 67.4099 96.2459 67.8323 96.2459 68.3513C96.2459 68.8704 96.6681 69.2928 97.1873 69.2928H100.547V74.9892H97.1873C96.6681 74.9892 96.2459 75.4115 96.2459 75.9307C96.2459 76.4497 96.6681 76.8722 97.1873 76.8722H100.547V82.5684H97.1873C96.6681 82.5684 96.2459 82.9908 96.2459 83.5098C96.2459 84.0289 96.6681 84.4513 97.1873 84.4513H100.547V90.1475H97.1873C96.6681 90.1475 96.2459 90.57 96.2459 91.089C96.2459 91.6082 96.6681 92.0305 97.1873 92.0305H100.547V100.382H52.2902L68.5342 84.1375ZM45.8394 53.6871L40.3169 55.6365L36.9235 52.2431L38.8728 46.7205L45.8394 53.6871Z" fill="#666666"/>
<path d="M69.4588 60.745V59.5748H27.2129V60.745H31.1235V63.7528L28.8424 66.0339C28.5686 65.8242 28.2306 65.6945 27.8599 65.6945C26.9635 65.6945 26.2344 66.4235 26.2344 67.3195C26.2344 68.2158 26.9637 68.9448 27.8599 68.9448C28.7561 68.9448 29.485 68.2158 29.485 67.3195C29.485 66.9347 29.3449 66.5857 29.1208 66.307L31.5136 63.9143V60.7452H35.0244V64.7604L29.0553 70.7294C28.779 70.5127 28.4358 70.3782 28.0582 70.3782C27.1618 70.3782 26.4328 71.1072 26.4328 72.0036C26.4328 72.8998 27.1618 73.6287 28.0582 73.6287C28.9547 73.6287 29.6837 72.8996 29.6837 72.0036C29.6837 71.6252 29.5485 71.2812 29.3313 71.005L35.4145 64.9218V60.745H38.9445V66.028L34.2199 70.7525C33.9393 70.5222 33.5852 70.3782 33.1948 70.3782C32.2983 70.3782 31.5693 71.1072 31.5693 72.0036C31.5693 72.8998 32.2983 73.6287 33.1948 73.6287C34.091 73.6287 34.8198 72.8996 34.8198 72.0036C34.8198 71.6387 34.6945 71.305 34.4907 71.0334L39.3345 66.1896V60.745H42.8454V67.2795L39.339 70.7863C39.0527 70.5355 38.6823 70.3782 38.2729 70.3782C37.3767 70.3782 36.6477 71.1072 36.6477 72.0036C36.6477 72.8998 37.3767 73.6287 38.2729 73.6287C39.1694 73.6287 39.8984 72.8996 39.8984 72.0036C39.8984 71.6574 39.788 71.3379 39.6027 71.074L43.2355 67.4408V60.7448H46.7463V70.3979C45.9424 70.4954 45.3154 71.174 45.3154 72.0036C45.3154 72.8998 46.0446 73.6287 46.9412 73.6287C47.8373 73.6287 48.5665 72.8996 48.5665 72.0036C48.5665 71.174 47.9399 70.4954 47.1364 70.3979V60.7448H50.6472V67.4408L54.28 71.0738C54.0949 71.3375 53.9845 71.6574 53.9845 72.0034C53.9845 72.8996 54.7137 73.6285 55.6095 73.6285C56.5056 73.6285 57.2348 72.8994 57.2348 72.0034C57.2348 71.107 56.5056 70.378 55.6095 70.378C55.2004 70.378 54.8302 70.5353 54.5439 70.7859L51.0373 67.2795V60.745H54.5482V66.1896L59.392 71.0332C59.1878 71.305 59.0625 71.6385 59.0625 72.0036C59.0625 72.8998 59.7919 73.6287 60.6883 73.6287C61.5843 73.6287 62.3134 72.8996 62.3134 72.0036C62.3134 71.1072 61.5843 70.3782 60.6883 70.3782C60.2978 70.3782 59.9436 70.5224 59.6628 70.7525L54.9382 66.028V60.745H58.4682V64.9218L64.5516 71.0054C64.3342 71.2818 64.1992 71.6256 64.1992 72.0036C64.1992 72.8998 64.9282 73.6287 65.8242 73.6287C66.7203 73.6287 67.4493 72.8996 67.4493 72.0036C67.4493 71.1072 66.7203 70.3782 65.8242 70.3782C65.4466 70.3782 65.1034 70.5127 64.8272 70.7298L58.8581 64.7602V60.745H62.3689V63.9141L64.7613 66.3068C64.5374 66.5855 64.3971 66.9347 64.3971 67.3193C64.3971 68.2156 65.1266 68.9446 66.023 68.9446C66.919 68.9446 67.6481 68.2156 67.6481 67.3193C67.6481 66.4231 66.9188 65.6943 66.023 65.6943C65.6518 65.6943 65.3137 65.824 65.0397 66.0339L62.759 63.7526V60.7448H69.4588V60.745ZM27.8597 68.1645C27.3936 68.1645 27.0144 67.7855 27.0144 67.3195C27.0144 66.8536 27.3936 66.4746 27.8597 66.4746C28.3256 66.4746 28.7046 66.8536 28.7046 67.3195C28.7048 67.7855 28.3256 68.1645 27.8597 68.1645ZM28.0582 72.8488C27.5921 72.8488 27.2129 72.4697 27.2129 72.0038C27.2129 71.5377 27.5921 71.1585 28.0582 71.1585C28.5244 71.1585 28.9036 71.5377 28.9036 72.0038C28.9036 72.4695 28.5244 72.8488 28.0582 72.8488ZM33.1946 72.8488C32.7285 72.8488 32.3492 72.4697 32.3492 72.0038C32.3492 71.5377 32.7285 71.1585 33.1946 71.1585C33.6605 71.1585 34.0395 71.5377 34.0395 72.0038C34.0397 72.4695 33.6605 72.8488 33.1946 72.8488ZM38.2727 72.8488C37.8068 72.8488 37.4278 72.4697 37.4278 72.0038C37.4278 71.5377 37.8068 71.1585 38.2727 71.1585C38.7389 71.1585 39.1181 71.5377 39.1181 72.0038C39.1181 72.4695 38.7389 72.8488 38.2727 72.8488ZM47.7864 72.0038C47.7864 72.4697 47.4074 72.8488 46.9414 72.8488C46.4751 72.8488 46.0957 72.4697 46.0957 72.0038C46.0957 71.5377 46.4751 71.1585 46.9414 71.1585C47.4074 71.1585 47.7864 71.5377 47.7864 72.0038ZM55.6095 71.1585C56.0755 71.1585 56.4545 71.5377 56.4545 72.0038C56.4545 72.4697 56.0755 72.8488 55.6095 72.8488C55.1436 72.8488 54.7646 72.4697 54.7646 72.0038C54.7646 71.5377 55.1436 71.1585 55.6095 71.1585ZM60.6885 71.1585C61.1544 71.1585 61.5335 71.5377 61.5335 72.0038C61.5335 72.4697 61.1544 72.8488 60.6885 72.8488C60.2222 72.8488 59.8428 72.4697 59.8428 72.0038C59.8428 71.5377 60.2222 71.1585 60.6885 71.1585ZM65.8244 71.1585C66.2904 71.1585 66.6694 71.5377 66.6694 72.0038C66.6694 72.4697 66.2904 72.8488 65.8244 72.8488C65.3585 72.8488 64.9795 72.4697 64.9795 72.0038C64.9795 71.5377 65.3585 71.1585 65.8244 71.1585ZM66.0234 66.4746C66.4893 66.4746 66.8683 66.8536 66.8683 67.3195C66.8683 67.7855 66.4893 68.1645 66.0234 68.1645C65.5571 68.1645 65.1777 67.7855 65.1777 67.3195C65.1775 66.8536 65.5571 66.4746 66.0234 66.4746Z" fill="#666666"/>
</g>
<defs>
<clipPath id="clip0">
<rect width="103" height="103" fill="white"/>
</clipPath>
</defs>
</svg>
