<svg width="100" height="100" viewBox="0 0 100 100" fill="none" xmlns="http://www.w3.org/2000/svg">
<g clip-path="url(#clip0)">
<path d="M85.0964 69.4564L86.54 54.3016C87.1952 54.6339 87.9261 54.8387 88.7097 54.8387C91.3771 54.8387 93.5484 52.6674 93.5484 50V31.0697C93.5484 28.203 91.6244 25.6529 88.8696 24.8661L82.2581 22.9776V20.0967C84.2325 18.3239 85.4839 15.7612 85.4839 12.9032V9.67742C85.4839 4.34019 81.1437 0 75.8064 0C70.4692 0 66.129 4.34019 66.129 9.67742V12.9032C66.129 15.7597 67.3804 18.3224 69.3548 20.0967V22.9776L62.7434 24.8661C59.9885 25.6513 58.0645 28.203 58.0645 31.0697V33.1165L56.4516 32.655V29.7741C58.426 28.0014 59.6774 25.4387 59.6774 22.5806V19.3548C59.6774 14.0176 55.3372 9.67742 50 9.67742C44.6628 9.67742 40.3226 14.0176 40.3226 19.3548V22.5806C40.3226 25.4371 41.574 27.9998 43.5484 29.7741V32.655L41.9355 33.1165V31.0697C41.9355 28.203 40.0115 25.6529 37.2566 24.8661L30.6452 22.9776V20.0967C32.6195 18.3239 33.871 15.7612 33.871 12.9032V9.67742C33.871 4.34019 29.5308 0 24.1935 0C18.8563 0 14.5161 4.34019 14.5161 9.67742V12.9032C14.5161 15.7597 15.7675 18.3224 17.7419 20.0967V22.9776L11.1305 24.8661C8.3756 25.6513 6.45161 28.203 6.45161 31.0697V50C6.45161 52.6674 8.62289 54.8387 11.2903 54.8387C12.0739 54.8387 12.8048 54.6339 13.46 54.3016L14.9036 69.4564C5.28683 72.7342 0 77.2532 0 82.2581C0 90.8597 17.5246 100 50 100C82.4754 100 100 90.8597 100 82.2581C100 77.2532 94.7132 72.7342 85.0964 69.4564ZM70.8213 80.6452L67.9018 50H74.1936V80.6452H70.8213ZM77.4194 50H83.7111L80.7916 80.6452H77.4194V50ZM69.3548 9.67742C69.3548 6.11927 72.2483 3.22581 75.8064 3.22581C79.3646 3.22581 82.2581 6.11927 82.2581 9.67742V12.9032C82.2581 16.4614 79.3646 19.3548 75.8064 19.3548C72.2483 19.3548 69.3548 16.4614 69.3548 12.9032V9.67742ZM75.8064 22.5806C76.9389 22.5806 78.021 22.3743 79.0323 22.016V23.7486C78.6322 24.366 77.521 25.8065 75.8064 25.8065C74.0888 25.8065 72.976 24.3597 72.5806 23.7502V22.016C73.5919 22.3743 74.674 22.5806 75.8064 22.5806ZM61.2903 31.0697C61.2903 29.6371 62.2535 28.3613 63.6293 27.9675L70.2739 26.0695C71.2111 27.2886 73.0303 29.0323 75.8064 29.0323C78.5826 29.0323 80.4018 27.2886 81.3374 26.0695L87.982 27.9675C89.3594 28.3613 90.321 29.6371 90.321 31.0697V50C90.321 50.8884 89.598 51.6129 88.7081 51.6129C87.8174 51.6129 87.0952 50.8884 87.0952 50V33.871H83.8694V46.7742H67.7419V33.871H64.5161V35.1854C64.0633 34.9208 63.5837 34.6916 63.0631 34.5435L61.2903 34.0371V31.0697ZM43.5484 19.3548C43.5484 15.7967 46.4418 12.9032 50 12.9032C53.5582 12.9032 56.4516 15.7967 56.4516 19.3548V22.5806C56.4516 26.1388 53.5582 29.0323 50 29.0323C46.4418 29.0323 43.5484 26.1388 43.5484 22.5806V19.3548ZM50 32.2581C51.1325 32.2581 52.2146 32.0517 53.2258 31.6934V33.426C52.8257 34.0434 51.7145 35.4839 50 35.4839C48.2855 35.4839 47.1743 34.0434 46.7742 33.426V31.6934C47.7854 32.0517 48.8675 32.2581 50 32.2581ZM44.469 35.7469C45.4046 36.966 47.2239 38.7097 50 38.7097C52.7761 38.7097 54.5954 36.966 55.531 35.7469L62.1755 37.6449C63.553 38.0387 64.5146 39.3145 64.5146 40.7471V59.6774C64.5146 60.5658 63.7916 61.2903 62.9016 61.2903C62.0109 61.2903 61.2887 60.5658 61.2887 59.6774V43.5484H58.0629V56.4516H41.9355V43.5484H38.7097V59.6774C38.7097 60.5658 37.9867 61.2903 37.0968 61.2903C36.2068 61.2903 35.4839 60.5658 35.4839 59.6774V40.7471C35.4839 39.3145 36.447 38.0387 37.8229 37.6449L44.469 35.7469ZM45.0148 90.3226L42.0954 59.6774H48.3871V90.3226H45.0148ZM51.6129 59.6774H57.9046L54.9852 90.3226H51.6129V59.6774ZM19.2084 80.6452L16.2889 50H22.5806V80.6452H19.2084ZM25.8065 50H32.0982L29.1787 80.6452H25.8065V50ZM17.7419 9.67742C17.7419 6.11927 20.6354 3.22581 24.1935 3.22581C27.7517 3.22581 30.6452 6.11927 30.6452 9.67742V12.9032C30.6452 16.4614 27.7517 19.3548 24.1935 19.3548C20.6354 19.3548 17.7419 16.4614 17.7419 12.9032V9.67742ZM24.1935 22.5806C25.326 22.5806 26.4081 22.3743 27.4194 22.016V23.7486C27.0193 24.366 25.908 25.8065 24.1935 25.8065C22.4791 25.8065 21.3678 24.366 20.9677 23.7486V22.016C21.979 22.3743 23.0611 22.5806 24.1935 22.5806ZM11.2903 51.6129C10.4004 51.6129 9.67742 50.8884 9.67742 50V31.0697C9.67742 29.6371 10.6406 28.3613 12.0164 27.9675L18.661 26.0695C19.5982 27.2886 21.4174 29.0323 24.1935 29.0323C26.9697 29.0323 28.7889 27.2886 29.7245 26.0695L36.3691 27.9675C37.7465 28.3613 38.7081 29.6371 38.7081 31.0697V34.0371L36.9353 34.5435C36.4148 34.6916 35.9351 34.9208 35.4823 35.1854V33.871H32.2565V46.7742H16.129V33.871H12.9032V50C12.9032 50.8884 12.1803 51.6129 11.2903 51.6129ZM50 96.7742C22.4357 96.7742 3.22581 89.1239 3.22581 82.2581C3.22581 78.9401 7.67232 75.4497 15.2178 72.7594L16.2755 83.871H32.1116L34.06 63.4128C34.8932 64.0916 35.9407 64.5161 37.0968 64.5161C37.8804 64.5161 38.6112 64.3114 39.2665 63.979L42.082 93.5484H57.918L60.7335 63.979C61.3888 64.3114 62.1196 64.5161 62.9032 64.5161C64.0593 64.5161 65.1068 64.0916 65.94 63.4128L67.8884 83.871H83.7245L84.7822 72.7594C92.3277 75.4497 96.7742 78.9401 96.7742 82.2581C96.7742 89.1239 77.5643 96.7742 50 96.7742Z" fill="#555555"/>
</g>
<defs>
<clipPath id="clip0">
<rect width="100" height="100" fill="white"/>
</clipPath>
</defs>
</svg>
