<svg width="116" height="103" viewBox="0 0 116 103" fill="none" xmlns="http://www.w3.org/2000/svg">
<path d="M113.139 96.745C114.384 96.745 115.393 95.744 115.393 94.5095V70.1743C115.393 64.2078 111.928 59.0315 106.891 56.5119C109.511 54.3113 111.179 51.0279 111.179 47.3635V44.5772C111.179 37.9676 105.758 32.5903 99.0942 32.5903C92.4305 32.5903 87.0091 37.9676 87.0091 44.5772V47.3635C87.0091 50.5488 88.2706 53.4454 90.3209 55.5944C86.3585 56.4711 82.6119 58.1442 79.2651 60.5659L58.8567 75.3333C58.4348 75.6386 58.048 75.9818 57.6965 76.3544C57.345 75.9818 56.958 75.6386 56.5364 75.3333L36.1279 60.5659C32.7811 58.1442 29.0345 56.4711 25.0721 55.5944C27.1224 53.4454 28.3841 50.5488 28.3841 47.3635V44.5772C28.3841 37.9676 22.9628 32.5903 16.299 32.5903C9.63532 32.5903 4.21392 37.9676 4.21392 44.5772V47.3635C4.21392 51.0279 5.88204 54.3113 8.50239 56.5119C3.46502 59.0317 0 64.2078 0 70.1746V100.764C0 101.999 1.00923 103 2.25386 103H30.3438C31.5884 103 32.5976 101.999 32.5976 100.764V80.2377L47.3437 89.0564C49.946 90.6128 53.0792 90.6567 55.7249 89.175C56.4722 88.7563 57.1309 88.239 57.6965 87.6484C58.2622 88.2392 58.9208 88.7565 59.6681 89.175C60.9557 89.8963 62.3586 90.2561 63.7595 90.2561C65.2374 90.2561 66.7136 89.8555 68.0493 89.0566L82.7957 80.2379V100.764C82.7957 101.999 83.8049 103 85.0495 103H113.139C114.384 103 115.393 101.999 115.393 100.764V92.6876C115.393 91.4531 114.384 90.4521 113.139 90.4521C111.895 90.4521 110.886 91.4531 110.886 92.6876V98.5289H87.3029V77.8991C87.3029 77.7833 87.2911 77.6704 87.2743 77.5594L89.7241 76.0944C90.7901 75.4569 91.133 74.0832 90.4903 73.0259C89.8473 71.9685 88.4617 71.6277 87.3966 72.2659L65.7214 85.2284C64.5299 85.941 63.0953 85.9611 61.8844 85.2824C60.6732 84.6039 59.9499 83.3751 59.9499 81.9952C59.9499 80.7937 60.5343 79.6535 61.513 78.9452L81.9214 64.1778C86.2858 61.0196 91.4483 59.3503 96.851 59.3503H99.9717C105.989 59.3503 110.885 64.2062 110.885 70.1748V94.5097C110.886 95.744 111.895 96.745 113.139 96.745ZM8.72094 44.5772C8.72094 40.433 12.1202 37.0612 16.2986 37.0612C20.477 37.0612 23.8762 40.4328 23.8762 44.5772V47.3635C23.8762 51.5077 20.477 54.8795 16.2986 54.8795C12.1202 54.8795 8.72094 51.5079 8.72094 47.3635V44.5772ZM53.5082 85.2819C52.2966 85.9604 50.8622 85.94 49.6709 85.2279L27.996 72.2654C26.9302 71.6275 25.5448 71.9683 24.9023 73.0254C24.2595 74.0825 24.6025 75.4564 25.6685 76.0939L28.1155 77.5576C28.0984 77.6688 28.0894 77.7828 28.0894 77.8989V98.5287H4.50748V70.1746C4.50748 64.206 9.40338 59.3501 15.4209 59.3501H18.5416C23.9443 59.3501 29.1067 61.0193 33.4711 64.1776L53.8795 78.945C54.8583 79.6533 55.4427 80.7935 55.4427 81.995C55.4427 83.3746 54.7194 84.6034 53.5082 85.2819ZM106.672 47.3635C106.672 51.5077 103.273 54.8795 99.0942 54.8795C94.9158 54.8795 91.5166 51.5079 91.5166 47.3635V44.5772C91.5166 40.433 94.9158 37.0612 99.0942 37.0612C103.273 37.0612 106.672 40.4328 106.672 44.5772V47.3635Z" fill="#666666"/>
<path d="M96.085 0H88.6475C87.4028 0 86.3936 1.00079 86.3936 2.23553C86.3936 3.47027 87.4028 4.47107 88.6475 4.47107H90.6435L64.3062 30.5947L47.0709 13.4995C46.6481 13.0804 46.0751 12.8448 45.4773 12.8448C44.8796 12.8448 44.3065 13.0804 43.8837 13.4995L27.8238 29.4289C26.9438 30.3019 26.9438 31.7173 27.8238 32.5906C28.704 33.4636 30.1307 33.4634 31.0114 32.5906L45.4776 18.2418L62.7127 35.337C63.1528 35.7736 63.7295 35.9917 64.3062 35.9917C64.883 35.9917 65.4597 35.7736 65.8998 35.337L93.8312 7.63254V9.61238C93.8312 10.8471 94.8404 11.8479 96.085 11.8479C97.3296 11.8479 98.3389 10.8471 98.3389 9.61238V2.23553C98.3386 1.00102 97.3294 0 96.085 0Z" fill="#666666"/>
<path d="M7.91662 99.5278C7.882 99.8989 7.84923 100.27 7.81969 100.641H24.0696C24.0592 100.271 24.0527 99.8991 24.0479 99.5278H22.854V94.1528L24.7068 92.6381C24.9064 92.7001 25.1217 92.7356 25.3479 92.7356C26.349 92.7356 27.1637 92.0693 27.1637 91.2507C27.1637 90.4316 26.349 89.7657 25.3479 89.7657C24.3465 89.7657 23.5321 90.4319 23.5321 91.2507C23.5321 91.4762 23.5955 91.6895 23.7063 91.8811L21.6918 93.5286C21.5642 93.6329 21.4924 93.7746 21.4924 93.9223V99.5281H19.9579V87.7674L21.2161 86.7389C21.4423 86.8215 21.6922 86.8687 21.9556 86.8687C22.9565 86.8687 23.7714 86.2025 23.7714 85.3837C23.7714 84.5651 22.9565 83.8988 21.9556 83.8988C20.954 83.8988 20.1397 84.5651 20.1397 85.3837C20.1397 85.5792 20.1873 85.7656 20.2713 85.9363L18.7954 87.1431C18.6678 87.2475 18.5958 87.3894 18.5958 87.5368V99.5283H17.0068V78.3692C17.6715 78.1483 18.1418 77.6154 18.1418 76.9937C18.1418 76.1747 17.3274 75.5088 16.326 75.5088C15.3251 75.5088 14.5102 76.1749 14.5102 76.9937C14.5102 77.6154 14.9805 78.1483 15.6452 78.3692V99.5283H14.0562V84.5514C14.0562 84.4035 13.9844 84.2618 13.8566 84.1572L12.48 83.0315C12.6037 82.8309 12.6745 82.6055 12.6745 82.3662C12.6745 81.5472 11.8601 80.8813 10.8587 80.8813C9.85776 80.8813 9.04286 81.5474 9.04286 82.3662C9.04286 83.185 9.85776 83.8512 10.8587 83.8512C11.0675 83.8512 11.2669 83.8207 11.4541 83.7674L12.6941 84.7819V99.5283H11.1052V90.9524C11.1052 90.8048 11.0334 90.6631 10.9055 90.5587L8.891 88.9112C9.00178 88.7194 9.06524 88.5063 9.06524 88.2808C9.06524 87.4618 8.25103 86.7959 7.24942 86.7959C6.2485 86.7959 5.43359 87.462 5.43359 88.2808C5.43359 89.0994 6.2485 89.7657 7.24942 89.7657C7.47559 89.7657 7.69114 89.7303 7.891 89.6682L9.74329 91.1829V99.5281H7.91662V99.5278ZM25.3474 90.8789C25.5974 90.8789 25.8014 91.0458 25.8014 91.2502C25.8014 91.4551 25.5974 91.6215 25.3474 91.6215C25.097 91.6215 24.8935 91.4551 24.8935 91.2502C24.8935 91.0456 25.097 90.8789 25.3474 90.8789ZM21.9553 85.0122C22.2053 85.0122 22.4093 85.1786 22.4093 85.3835C22.4093 85.5879 22.2053 85.7548 21.9553 85.7548C21.7049 85.7548 21.5014 85.5879 21.5014 85.3835C21.5014 85.1786 21.7047 85.0122 21.9553 85.0122ZM16.3258 76.622C16.5762 76.622 16.7797 76.7884 16.7797 76.9933C16.7797 77.1977 16.5762 77.3646 16.3258 77.3646C16.0754 77.3646 15.8718 77.1977 15.8718 76.9933C15.8718 76.7884 16.0754 76.622 16.3258 76.622ZM10.8587 82.7371C10.6087 82.7371 10.4047 82.5704 10.4047 82.3658C10.4047 82.1609 10.6087 81.9945 10.8587 81.9945C11.1091 81.9945 11.3126 82.1609 11.3126 82.3658C11.3126 82.5704 11.1091 82.7371 10.8587 82.7371ZM7.24942 88.6514C6.99948 88.6514 6.79546 88.485 6.79546 88.2801C6.79546 88.0757 6.99948 87.9088 7.24942 87.9088C7.49982 87.9088 7.70337 88.0757 7.70337 88.2801C7.70337 88.485 7.50005 88.6514 7.24942 88.6514Z" fill="#666666"/>
<path d="M90.7125 99.5278C90.6779 99.8989 90.6451 100.27 90.6156 100.641H106.865C106.855 100.271 106.849 99.8991 106.844 99.5278H105.65V94.1528L107.503 92.6381C107.702 92.7001 107.918 92.7356 108.144 92.7356C109.145 92.7356 109.959 92.0693 109.959 91.2507C109.959 90.4316 109.145 89.7657 108.144 89.7657C107.142 89.7657 106.328 90.4319 106.328 91.2507C106.328 91.4762 106.391 91.6895 106.502 91.8811L104.487 93.5286C104.36 93.6329 104.288 93.7746 104.288 93.9223V99.5281H102.754V87.7674L104.012 86.7389C104.238 86.8215 104.488 86.8687 104.751 86.8687C105.752 86.8687 106.567 86.2025 106.567 85.3837C106.567 84.5651 105.752 83.8988 104.751 83.8988C103.75 83.8988 102.935 84.5651 102.935 85.3837C102.935 85.5792 102.983 85.7656 103.067 85.9363L101.591 87.1431C101.463 87.2475 101.391 87.3894 101.391 87.5368V99.5283H99.8025V78.3692C100.467 78.1483 100.937 77.6154 100.937 76.9937C100.937 76.1747 100.123 75.5088 99.1217 75.5088C98.1207 75.5088 97.3058 76.1749 97.3058 76.9937C97.3058 77.6154 97.7762 78.1483 98.4408 78.3692V99.5283H96.8519V84.5514C96.8519 84.4035 96.7801 84.2618 96.6523 84.1572L95.2756 83.0315C95.3993 82.8309 95.4702 82.6055 95.4702 82.3662C95.4702 81.5472 94.6557 80.8813 93.6543 80.8813C92.6534 80.8813 91.8385 81.5474 91.8385 82.3662C91.8385 83.185 92.6534 83.8512 93.6543 83.8512C93.8632 83.8512 94.0626 83.8207 94.2498 83.7674L95.4898 84.7819V99.5283H93.9008V90.9524C93.9008 90.8048 93.829 90.6631 93.7012 90.5587L91.6867 88.9112C91.7974 88.7194 91.8609 88.5063 91.8609 88.2808C91.8609 87.4618 91.0464 86.7959 90.0451 86.7959C89.0441 86.7959 88.2292 87.462 88.2292 88.2808C88.2292 89.0994 89.0441 89.7657 90.0451 89.7657C90.2712 89.7657 90.4866 89.7303 90.6867 89.6682L92.5389 91.1829V99.5281H90.7125V99.5278ZM108.144 90.8789C108.393 90.8789 108.598 91.0458 108.598 91.2502C108.598 91.4551 108.393 91.6215 108.144 91.6215C107.893 91.6215 107.69 91.4551 107.69 91.2502C107.69 91.0456 107.893 90.8789 108.144 90.8789ZM104.751 85.0122C105.001 85.0122 105.205 85.1786 105.205 85.3835C105.205 85.5879 105.001 85.7548 104.751 85.7548C104.501 85.7548 104.297 85.5879 104.297 85.3835C104.297 85.1786 104.501 85.0122 104.751 85.0122ZM99.1217 76.622C99.3721 76.622 99.5756 76.7884 99.5756 76.9933C99.5756 77.1977 99.3721 77.3646 99.1217 77.3646C98.8713 77.3646 98.6677 77.1977 98.6677 76.9933C98.6677 76.7884 98.8713 76.622 99.1217 76.622ZM93.6546 82.7371C93.4046 82.7371 93.2006 82.5704 93.2006 82.3658C93.2006 82.1609 93.4046 81.9945 93.6546 81.9945C93.905 81.9945 94.1085 82.1609 94.1085 82.3658C94.1085 82.5704 93.905 82.7371 93.6546 82.7371ZM90.0455 88.6514C89.7956 88.6514 89.5916 88.485 89.5916 88.2801C89.5916 88.0757 89.7956 87.9088 90.0455 87.9088C90.2959 87.9088 90.4995 88.0757 90.4995 88.2801C90.4995 88.485 90.2959 88.6514 90.0455 88.6514Z" fill="#666666"/>
</svg>
